<?xml version="1.0" standalone="no"?>
<!DOCTYPE svg PUBLIC "-//W3C//DTD SVG 20010904//EN"
 "http://www.w3.org/TR/2001/REC-SVG-20010904/DTD/svg10.dtd">
<svg version="1.0" xmlns="http://www.w3.org/2000/svg"
 width="563.000000pt" height="585.000000pt" viewBox="0 0 563.000000 585.000000"
 preserveAspectRatio="xMidYMid meet">

<g transform="translate(0.000000,585.000000) scale(0.100000,-0.100000)"
fill="#000000" stroke="none">
<path d="M2570 4903 c-54 -9 -127 -37 -168 -66 -52 -35 -127 -133 -181 -237
-60 -115 -72 -167 -71 -310 0 -147 6 -190 27 -190 13 0 14 10 9 53 -13 103 -8
260 9 312 36 106 107 226 174 295 92 94 144 114 306 115 114 0 123 -2 186 -31
124 -59 221 -140 261 -219 30 -58 55 -249 59 -459 l2 -90 -119 3 c-175 3 -234
10 -234 30 0 9 -7 29 -15 45 -8 15 -15 32 -15 38 0 5 20 44 45 86 72 125 97
204 93 287 -6 122 -61 168 -203 168 -98 1 -131 -15 -177 -80 -61 -90 -48 -189
52 -394 36 -74 38 -81 24 -107 -7 -15 -14 -35 -14 -44 0 -16 -13 -18 -122 -18
-268 -1 -424 -25 -448 -71 -13 -23 -13 -86 0 -94 26 -16 2 -23 -82 -24 -112
-1 -218 -21 -353 -68 -150 -52 -228 -97 -288 -165 -34 -39 -59 -58 -74 -58
-13 0 -23 -6 -24 -12 0 -7 -2 -22 -4 -32 -5 -25 12 -56 29 -56 8 0 61 -28 118
-62 143 -85 254 -132 413 -172 127 -32 139 -37 191 -82 92 -80 109 -92 163
-119 28 -14 51 -28 51 -31 0 -8 -340 -1066 -551 -1712 -43 -134 -79 -247 -79
-253 0 -5 6 -9 14 -9 9 0 22 25 34 63 11 34 108 334 215 667 108 333 252 778
320 990 86 267 121 388 113 393 -6 5 14 6 44 3 164 -17 508 -27 686 -21 l201
6 160 -473 c88 -260 248 -733 354 -1050 163 -486 197 -578 213 -578 13 0 16 5
11 18 -4 9 -125 368 -270 797 -145 429 -288 854 -319 944 -31 90 -56 170 -56
176 0 7 30 27 68 45 81 38 118 71 143 128 13 30 24 42 39 42 51 0 387 121 610
219 199 88 200 89 186 147 -8 32 -245 189 -350 233 -144 60 -357 99 -543 101
-31 0 -32 1 -30 40 2 55 -23 77 -110 97 l-72 17 -5 50 c-3 28 -8 110 -11 181
-11 246 -36 335 -118 418 -71 72 -180 141 -261 166 -65 20 -182 26 -256 14z
m265 -213 c11 -4 31 -20 45 -35 22 -23 25 -36 25 -98 l0 -72 -44 3 c-34 2 -49
-2 -67 -19 -26 -25 -49 -82 -40 -104 7 -18 45 -5 93 31 40 30 38 23 -28 -96
-87 -157 -122 -157 -194 0 -23 52 -46 106 -50 120 -6 22 -6 23 6 8 42 -53 129
-89 129 -53 0 26 -26 79 -49 99 -18 17 -27 18 -66 9 l-45 -10 0 46 c0 55 41
145 73 163 50 27 153 30 212 8z m-48 -549 c7 -9 13 -24 13 -33 0 -16 -10 -18
-75 -18 -77 0 -82 3 -65 42 9 20 19 23 63 24 36 0 56 -4 64 -15z m173 -91
c357 -13 410 -26 410 -95 l0 -32 -492 -9 c-271 -5 -563 -9 -648 -9 l-155 0 -3
44 c-4 51 14 76 61 87 99 21 462 28 827 14z m621 -170 c156 -16 289 -44 289
-62 0 -4 -5 -8 -12 -8 -22 0 -48 -33 -48 -62 0 -43 16 -65 55 -78 66 -22 135
16 135 73 0 37 4 36 146 -56 l111 -72 -406 -6 c-223 -3 -887 -7 -1476 -8
l-1069 -1 54 56 c35 36 80 69 125 90 l70 34 3 -34 c4 -49 43 -81 97 -81 84 0
125 78 69 130 -15 14 -32 22 -38 18 -8 -4 -8 -3 0 6 6 7 53 21 105 31 78 16
140 20 359 21 146 1 346 5 445 8 290 12 874 12 986 1z m-1879 -107 c38 -34 12
-77 -47 -77 -58 0 -82 38 -48 76 20 22 70 23 95 1z m2249 -2 c20 -16 22 -22
12 -44 -20 -43 -99 -42 -123 2 -25 48 63 81 111 42z m347 -208 c-3 -17 -85
-18 -1521 -21 -1512 -2 -1517 -2 -1517 18 0 20 6 20 1521 20 1443 0 1520 -1
1517 -17z m-53 -42 c-19 -17 -423 -180 -544 -220 -69 -23 -160 -48 -204 -56
-398 -75 -1011 -69 -1487 16 -290 52 -417 94 -580 191 l-105 63 1380 5 c759 3
1418 6 1465 8 48 1 80 -2 75 -7z m-2115 -311 c118 -16 111 -11 93 -72 -9 -29
-17 -54 -18 -56 -9 -10 -118 56 -165 99 -52 48 -54 50 -25 45 17 -3 68 -10
115 -16z m1328 -27 c-20 -47 -40 -65 -115 -100 -39 -18 -74 -33 -77 -33 -2 0
-12 24 -22 53 -9 28 -19 58 -22 65 -3 8 8 12 34 13 30 0 142 15 206 28 4 0 2
-11 -4 -26z"/>
<path d="M2685 4308 c-11 -6 -21 -12 -23 -13 -1 -1 0 -9 3 -17 6 -14 10 -14
36 -1 27 13 32 13 55 -2 23 -15 44 -13 44 3 0 12 -56 42 -77 42 -10 0 -27 -6
-38 -12z"/>
<path d="M2125 3808 c-103 -56 -9 -184 98 -133 59 28 67 93 15 129 -26 18 -83
21 -113 4z m93 -34 c45 -31 17 -79 -44 -77 -40 1 -64 18 -64 44 0 21 36 49 65
49 11 0 31 -7 43 -16z"/>
<path d="M2485 3808 c-51 -28 -60 -80 -19 -119 56 -53 167 -15 167 57 0 56
-90 94 -148 62z m97 -35 c38 -34 14 -74 -46 -76 -61 -2 -89 46 -44 77 29 21
67 20 90 -1z"/>
<path d="M2969 3791 c-16 -16 -29 -38 -29 -48 0 -57 80 -96 143 -69 62 26 72
85 20 126 -39 31 -98 27 -134 -9z m121 -19 c31 -25 19 -57 -25 -72 -26 -9 -40
-8 -57 1 -42 22 -47 40 -18 69 25 25 71 26 100 2z"/>
<path d="M3365 3808 c-48 -28 -57 -70 -25 -111 40 -50 130 -43 163 12 20 35
11 70 -25 95 -26 19 -84 21 -113 4z m98 -32 c40 -30 10 -80 -48 -80 -18 0 -40
6 -49 13 -53 44 41 109 97 67z"/>
<path d="M2381 1814 c-12 -15 -21 -33 -21 -40 0 -22 28 -16 35 6 3 11 10 20
15 20 5 0 12 -9 15 -20 7 -21 20 -26 30 -10 9 14 -23 70 -40 70 -7 0 -23 -12
-34 -26z"/>
<path d="M2303 1786 c-17 -8 -23 -22 -28 -71 -9 -84 -35 -194 -53 -230 -8 -16
-41 -66 -73 -110 -83 -114 -89 -134 -89 -270 0 -106 -1 -115 -19 -115 -10 0
-29 9 -42 19 -22 17 -23 26 -21 89 2 39 -1 79 -7 91 -16 30 -61 27 -92 -5 -20
-21 -24 -38 -27 -103 -5 -92 11 -137 59 -173 54 -39 111 -51 213 -43 121 8
146 14 146 32 0 12 -10 13 -57 7 -249 -31 -333 12 -333 169 0 70 19 107 56
107 13 0 15 -13 14 -77 -1 -43 -2 -83 -1 -90 2 -21 69 -54 103 -51 l33 3 5
135 c6 149 3 142 91 264 78 110 95 150 114 281 9 60 18 111 20 114 3 2 11 -10
18 -27 9 -22 17 -28 26 -22 12 7 12 13 2 39 -17 40 -31 49 -58 37z"/>
<path d="M3141 1729 c-17 -48 -14 -443 4 -575 28 -213 26 -204 47 -204 14 0
17 5 13 23 -26 119 -37 230 -42 428 -3 125 -2 248 2 274 l7 48 24 -41 c39 -65
93 -69 153 -12 17 17 36 28 41 25 6 -3 10 -54 10 -111 0 -80 3 -105 13 -102 8
3 13 38 15 115 2 91 0 114 -13 127 -19 19 -40 11 -93 -35 -46 -41 -64 -37
-106 21 -20 28 -42 50 -50 50 -8 0 -19 -14 -25 -31z"/>
<path d="M2397 1736 c-4 -10 2 -16 20 -18 21 -2 33 -15 52 -52 26 -49 51 -71
51 -44 0 25 -48 115 -65 122 -28 10 -53 7 -58 -8z"/>
<path d="M2382 1688 c-15 -15 -16 -50 0 -66 33 -33 76 5 55 49 -14 28 -37 35
-55 17z"/>
<path d="M3220 1569 c-16 -29 -4 -71 18 -67 19 4 26 29 18 64 -8 30 -22 31
-36 3z"/>
<path d="M3321 1576 c-20 -23 -10 -71 14 -71 15 0 21 8 23 31 4 38 -19 62 -37
40z"/>
<path d="M2510 1564 c0 -8 -16 -30 -35 -50 -19 -19 -35 -36 -35 -39 0 -2 9
-43 21 -92 17 -70 20 -105 15 -173 -9 -115 -26 -271 -32 -292 -6 -19 20 -26
30 -9 4 5 14 89 23 186 17 180 15 214 -16 338 -8 34 -7 40 19 65 35 34 46 67
25 76 -9 3 -15 0 -15 -10z"/>
<path d="M2957 1419 c-11 -6 -25 -26 -33 -45 -17 -42 -17 -44 1 -44 8 0 15 4
15 9 0 4 10 21 22 36 20 26 22 27 35 9 7 -10 13 -43 13 -75 0 -31 7 -92 16
-135 10 -49 14 -103 11 -142 -4 -55 -3 -63 12 -60 23 5 26 114 6 219 -8 45
-15 108 -15 140 0 46 -5 64 -20 79 -22 22 -36 24 -63 9z"/>
<path d="M3397 1423 c-3 -5 12 -36 33 -70 55 -86 83 -175 77 -240 -4 -40 -2
-53 8 -53 17 0 25 23 25 74 0 61 -23 130 -72 215 -41 72 -60 91 -71 74z"/>
<path d="M2701 1359 c-19 -55 -14 -153 9 -182 l21 -26 -39 -63 c-61 -100 -75
-147 -70 -228 9 -125 46 -155 193 -155 83 1 110 5 160 25 38 16 64 34 72 50
18 34 16 105 -3 145 -27 58 -121 79 -156 36 -26 -32 -23 -48 13 -66 41 -21 37
-58 -6 -65 -16 -3 -29 -9 -27 -13 1 -4 2 -11 2 -16 0 -9 58 1 79 13 30 19 0
106 -37 106 -6 0 -9 7 -6 15 9 21 67 19 95 -4 20 -16 24 -28 24 -82 l0 -64
-60 -24 c-77 -31 -226 -36 -267 -9 -34 23 -51 77 -46 148 4 56 10 71 84 207
l29 51 -20 22 c-16 18 -20 36 -20 95 0 40 3 77 8 81 4 4 28 -7 52 -24 57 -40
123 -44 109 -7 -3 7 -13 11 -23 8 -10 -3 -43 9 -73 26 -69 39 -83 39 -97 0z"/>
<path d="M2910 1230 c-5 -10 -10 -21 -10 -24 0 -8 44 -8 64 0 24 9 19 21 -14
32 -25 9 -31 8 -40 -8z"/>
<path d="M3345 1213 c-3 -21 -15 -81 -26 -133 -22 -113 -23 -120 -6 -120 7 0
20 39 34 103 33 150 36 187 19 187 -10 0 -17 -14 -21 -37z"/>
<path d="M2786 1214 c-17 -12 -17 -14 -3 -20 22 -8 62 -1 60 11 -2 6 -9 10
-15 10 -7 0 -15 3 -18 7 -3 3 -14 0 -24 -8z"/>
<path d="M3614 1216 c-3 -8 0 -32 6 -55 6 -22 8 -52 4 -66 -5 -21 -12 -25 -40
-25 -24 0 -34 -5 -34 -15 0 -22 73 -20 91 2 9 11 13 39 12 82 l-1 66 24 -28
c42 -49 30 -142 -25 -191 -19 -18 -32 -18 -156 -12 -114 5 -135 4 -135 -8 0
-11 20 -16 78 -22 197 -19 237 -9 273 69 32 71 24 148 -20 195 -24 25 -69 30
-77 8z"/>
<path d="M2250 1168 c0 -18 9 -69 19 -114 11 -44 23 -104 27 -132 5 -37 11
-52 22 -52 18 0 12 66 -18 192 -11 46 -20 95 -20 111 0 17 -5 27 -15 27 -10 0
-15 -10 -15 -32z"/>
<path d="M3240 1090 c-13 -77 -7 -132 15 -124 8 3 12 20 12 42 -1 20 2 63 7
95 7 48 6 57 -7 57 -11 0 -18 -19 -27 -70z"/>
<path d="M2368 995 c3 -85 6 -105 18 -105 13 0 15 17 13 105 -2 88 -5 105 -18
105 -14 0 -16 -15 -13 -105z"/>
</g>
</svg>
