<?xml version="1.0" standalone="no"?>
<!DOCTYPE svg PUBLIC "-//W3C//DTD SVG 20010904//EN"
 "http://www.w3.org/TR/2001/REC-SVG-20010904/DTD/svg10.dtd">
<svg version="1.0" xmlns="http://www.w3.org/2000/svg"
 width="500.000000pt" height="500.000000pt" viewBox="0 0 500.000000 500.000000"
 preserveAspectRatio="xMidYMid meet">

<g transform="translate(0.000000,500.000000) scale(0.100000,-0.100000)"
fill="#000000" stroke="none">
<path d="M3640 3751 c-233 -69 -386 -142 -538 -254 l-52 -39 -67 16 c-191 48
-463 67 -634 45 -109 -15 -119 -20 -83 -46 25 -17 37 -19 84 -12 132 19 382 7
552 -27 161 -32 368 -115 485 -195 23 -16 48 -29 56 -29 23 0 29 31 11 51 -14
16 -204 129 -217 129 -2 0 -31 12 -63 26 l-58 26 84 55 c143 94 303 163 499
214 78 20 85 21 117 6 42 -21 59 -54 73 -144 14 -90 14 -317 0 -403 -14 -91
-58 -263 -70 -275 -6 -6 -13 -5 -19 5 -33 57 -78 110 -93 110 -34 0 -30 -30
16 -98 87 -131 143 -267 197 -481 50 -200 108 -546 97 -575 -6 -14 -119 -61
-214 -89 l-52 -15 -34 73 c-35 74 -99 155 -122 155 -7 0 -18 -6 -24 -14 -9
-11 -3 -24 30 -62 75 -87 119 -214 105 -306 -13 -90 -119 -177 -214 -178 -81
0 -142 44 -221 160 -49 71 -65 119 -56 173 16 93 60 151 149 193 26 13 36 24
36 41 0 66 -161 -33 -213 -132 -15 -28 -23 -66 -27 -130 l-5 -90 -69 -7 c-69
-7 -89 -18 -78 -46 4 -12 21 -14 97 -9 l92 6 44 -60 c78 -108 185 -176 260
-166 48 6 135 46 176 81 49 41 88 129 88 198 l0 58 110 36 c215 70 397 172
481 267 178 202 92 419 -233 585 -54 27 -120 57 -148 67 -64 23 -68 28 -98
100 l-25 60 28 85 c56 166 73 278 73 470 0 188 -16 303 -51 349 -55 74 -119
84 -262 42z"/>
<path d="M1349 3707 c-42 -29 -75 -76 -95 -141 -26 -80 -30 -348 -9 -521 31
-253 32 -230 -12 -320 l-39 -80 -111 -55 c-290 -145 -407 -329 -323 -506 50
-104 193 -215 389 -300 l89 -39 4 -95 c3 -75 9 -105 27 -140 48 -94 132 -151
233 -158 104 -8 179 49 253 190 l37 70 37 -6 c246 -42 761 -75 782 -50 21 26
-2 44 -55 44 -178 1 -635 42 -731 66 -20 5 -22 11 -22 79 -1 89 -33 167 -90
220 -54 50 -90 63 -111 41 -19 -19 -25 -11 63 -80 92 -71 108 -238 36 -368
-40 -71 -106 -136 -148 -144 -98 -18 -180 20 -228 107 -27 49 -30 62 -30 149
0 86 3 101 31 160 17 36 48 82 68 103 38 38 44 69 14 75 -28 5 -87 -57 -125
-134 -30 -62 -39 -73 -55 -68 -34 10 -127 55 -132 63 -8 13 14 223 34 336 59
314 161 562 315 767 59 78 65 103 25 103 -20 0 -37 -17 -84 -84 -48 -67 -61
-80 -67 -65 -13 38 -30 247 -30 388 0 214 33 328 102 357 39 15 123 2 261 -43
100 -32 361 -156 362 -172 1 -5 -39 -25 -89 -45 -128 -52 -180 -82 -180 -106
0 -31 34 -29 110 8 68 33 183 74 274 97 43 11 43 12 25 30 -10 10 -53 37 -94
60 -356 194 -617 271 -711 207z"/>
<path d="M1813 2573 c-25 -32 -28 -45 -28 -107 1 -111 47 -173 112 -150 80 28
104 197 38 268 -37 40 -86 36 -122 -11z"/>
<path d="M3034 2571 c-41 -25 -69 -103 -60 -166 14 -88 77 -144 132 -115 53
29 79 138 50 214 -28 74 -72 98 -122 67z"/>
<path d="M2191 2411 c-10 -6 -12 -21 -8 -51 14 -103 133 -144 216 -74 l29 24
51 -31 c61 -38 122 -47 174 -26 60 26 98 108 62 137 -23 19 -42 5 -49 -34 -8
-42 -29 -56 -87 -56 -38 0 -47 5 -89 50 -25 28 -54 50 -63 50 -9 0 -23 -13
-32 -29 -24 -47 -44 -61 -84 -61 -44 0 -55 10 -73 65 -14 41 -25 50 -47 36z"/>
</g>
</svg>
