<?xml version="1.0" standalone="no"?>
<!DOCTYPE svg PUBLIC "-//W3C//DTD SVG 20010904//EN"
 "http://www.w3.org/TR/2001/REC-SVG-20010904/DTD/svg10.dtd">
<svg version="1.0" xmlns="http://www.w3.org/2000/svg"
 width="564.000000pt" height="1002.000000pt" viewBox="0 0 564.000000 1002.000000"
 preserveAspectRatio="xMidYMid meet">

<g transform="translate(0.000000,1002.000000) scale(0.100000,-0.100000)"
fill="#000000" stroke="none">
<path d="M2825 5956 c-43 -19 -88 -68 -115 -126 -22 -47 -37 -57 -73 -51 -5 1
-68 6 -140 12 -163 13 -270 -2 -275 -38 -2 -17 3 -23 27 -28 17 -3 35 -4 41 0
17 10 179 7 288 -5 56 -7 113 -9 127 -6 17 4 34 26 61 76 33 64 73 110 94 110
9 0 60 -127 60 -149 0 -21 50 -154 64 -171 7 -8 18 -35 25 -60 7 -25 42 -96
77 -158 35 -62 64 -115 64 -118 0 -10 168 -261 179 -268 6 -4 19 -26 29 -49
11 -24 33 -59 49 -78 60 -68 111 -160 151 -271 47 -131 55 -178 46 -260 -8
-73 -30 -101 -128 -166 l-71 -47 -171 -3 -170 -3 15 73 c16 81 12 108 -18 108
-21 0 -24 -7 -41 -83 -5 -26 -20 -69 -32 -97 -25 -56 -47 -66 -127 -55 -57 8
-60 16 -62 139 -1 79 -9 118 -26 123 -16 6 -25 -24 -32 -112 l-6 -80 -52 -2
-51 -2 1 77 c1 42 -4 86 -10 96 -10 18 -11 18 -26 -5 -8 -13 -21 -69 -27 -124
-7 -55 -16 -106 -22 -112 -15 -18 -109 -16 -136 3 -21 14 -35 41 -107 199 -36
80 -97 272 -135 425 -38 154 -59 199 -117 247 -25 21 -69 70 -99 109 -111 147
-125 261 -60 463 20 62 36 118 36 126 0 21 -20 29 -35 14 -18 -18 -82 -185
-96 -248 l-11 -50 -115 -3 c-116 -3 -132 -8 -113 -38 7 -11 35 -16 120 -18 98
-3 110 -6 110 -22 0 -9 3 -32 6 -49 l7 -31 -80 0 c-77 0 -103 -9 -103 -36 0
-19 36 -27 122 -27 l78 0 57 -84 c31 -46 84 -109 117 -138 45 -41 65 -67 76
-101 18 -51 21 -37 -74 -303 -33 -93 -36 -193 -7 -249 22 -42 90 -109 141
-140 41 -24 144 -40 154 -23 12 19 25 12 39 -21 20 -46 46 -67 100 -77 80 -15
138 -5 170 29 15 17 27 36 27 44 0 10 16 13 61 12 52 -1 63 -4 69 -21 15 -40
39 -49 136 -53 l94 -4 33 33 32 34 85 -7 c47 -4 134 -3 193 2 100 9 112 12
170 47 63 39 136 104 154 136 9 17 15 18 72 6 101 -20 250 2 340 50 35 19 182
203 217 273 67 132 69 280 6 411 -34 70 -79 119 -167 181 -86 61 -131 76 -228
76 -73 0 -89 -4 -146 -33 -86 -43 -121 -87 -130 -166 -8 -68 5 -113 38 -130
29 -16 96 -13 139 5 26 10 51 13 85 9 43 -6 49 -11 68 -48 22 -45 26 -116 10
-160 -6 -14 -29 -46 -53 -70 -53 -56 -107 -67 -211 -46 l-69 14 -25 65 c-15
36 -47 98 -72 139 -25 40 -58 96 -73 124 -15 28 -43 67 -61 86 -39 41 -139
189 -184 271 -17 30 -49 88 -73 129 -23 41 -50 97 -60 125 -10 28 -32 79 -49
113 -17 34 -31 75 -31 90 0 40 -66 195 -91 216 -25 20 -34 21 -74 3z m1180
-822 c55 -26 166 -116 189 -153 55 -89 68 -138 64 -240 -3 -86 -7 -103 -37
-162 -29 -57 -105 -157 -170 -224 -48 -50 -250 -90 -327 -65 -49 16 -51 20
-53 83 0 29 -5 68 -11 87 -16 57 -14 71 13 61 97 -36 205 -15 268 52 85 91
107 191 66 292 -29 71 -61 94 -141 102 -39 4 -69 1 -105 -13 -44 -15 -54 -16
-76 -4 -23 12 -26 18 -20 50 14 74 71 129 159 151 41 11 144 1 181 -17z
m-1885 -538 c0 -24 99 -323 129 -389 17 -38 31 -73 31 -79 0 -14 -91 2 -125
23 -16 10 -50 39 -75 64 l-45 46 1 72 c0 53 9 96 32 163 18 51 32 99 32 109 0
9 5 13 10 10 6 -3 10 -12 10 -19z"/>
<path d="M1940 5915 c-54 -58 -52 -273 3 -252 12 4 17 28 22 95 4 49 11 96 16
103 12 20 55 -7 70 -45 20 -50 58 -96 74 -90 36 14 -6 124 -66 176 -52 45 -86
48 -119 13z"/>
<path d="M2018 5496 c-15 -34 3 -76 32 -76 21 0 34 31 28 71 -5 35 -44 38 -60
5z"/>
<path d="M2397 5493 c-10 -10 -8 -66 3 -83 14 -22 44 0 48 34 5 40 -29 72 -51
49z"/>
<path d="M2673 5360 c-13 -6 -23 -18 -23 -30 0 -19 6 -20 124 -20 105 0 125 2
130 16 13 34 -12 44 -113 43 -53 0 -106 -4 -118 -9z"/>
<path d="M2192 5349 c-31 -12 -23 -31 18 -43 28 -8 35 -7 51 13 11 13 16 27
13 32 -7 11 -52 11 -82 -2z"/>
<path d="M2751 5199 c-57 -11 -70 -24 -49 -45 21 -21 164 -20 214 1 36 15 45
39 18 49 -22 8 -130 6 -183 -5z"/>
</g>
</svg>
