<svg id="svg" version="1.1" xmlns="http://www.w3.org/2000/svg" xmlns:xlink="http://www.w3.org/1999/xlink" width="400" height="73.72675828617623" viewBox="0, 0, 400,73.72675828617623"><g id="svgg"><path id="path0" d="M206.536 16.208 C 206.261 16.543,203.771 21.613,202.954 23.500 C 202.412 24.754,201.958 25.771,201.734 26.234 C 201.605 26.500,201.500 26.782,201.500 26.861 C 201.500 26.939,201.356 27.322,201.180 27.710 C 200.681 28.812,199.411 32.284,199.002 33.667 C 198.798 34.354,198.565 35.134,198.483 35.400 C 197.388 38.945,200.344 41.150,202.360 38.291 C 202.569 37.993,202.874 37.605,203.037 37.427 C 203.795 36.600,203.254 36.242,202.391 37.000 C 199.581 39.468,199.508 34.644,202.262 28.375 C 202.393 28.077,202.620 27.552,202.767 27.208 C 203.023 26.610,203.289 26.008,203.984 24.458 C 204.159 24.069,205.098 22.108,206.070 20.100 C 207.043 18.093,207.819 16.434,207.795 16.415 C 207.303 16.019,206.765 15.930,206.536 16.208 M192.772 17.906 C 192.171 18.824,191.090 20.888,190.368 22.500 C 189.795 23.777,188.068 27.885,187.845 28.500 C 187.728 28.821,187.556 29.271,187.461 29.500 C 187.366 29.729,187.227 30.067,187.152 30.250 C 187.077 30.433,186.778 31.333,186.489 32.250 C 186.200 33.167,185.896 34.047,185.815 34.206 C 185.733 34.365,185.667 34.648,185.667 34.833 C 185.667 35.019,185.601 35.301,185.520 35.461 C 185.335 35.825,185.000 37.236,185.000 37.651 C 185.000 37.974,186.212 38.595,186.497 38.418 C 186.575 38.370,186.922 37.750,187.269 37.040 C 189.259 32.960,191.381 30.667,193.166 30.667 C 196.747 30.667,193.597 38.166,189.988 38.232 C 188.837 38.253,188.091 39.103,188.862 39.515 C 191.582 40.971,196.795 35.720,197.120 31.195 C 197.427 26.936,192.433 27.809,189.067 32.603 C 188.709 33.113,188.241 33.729,188.026 33.972 L 187.636 34.415 187.747 33.749 C 187.808 33.383,187.923 32.933,188.004 32.750 C 188.084 32.567,188.260 32.079,188.394 31.667 C 189.382 28.636,192.615 21.172,193.974 18.787 C 194.428 17.990,194.424 17.928,193.909 17.693 C 193.289 17.411,193.070 17.452,192.772 17.906 M174.667 20.257 C 174.006 20.422,172.445 20.489,169.083 20.499 C 162.767 20.516,161.208 20.814,158.879 22.450 C 155.731 24.660,156.164 28.667,159.550 28.667 C 161.322 28.667,164.516 26.931,164.057 26.217 C 163.833 25.868,163.916 25.858,162.417 26.407 C 159.689 27.405,157.609 26.488,158.326 24.603 C 158.937 22.996,160.681 22.469,165.482 22.439 C 169.557 22.414,169.482 22.382,168.300 23.631 C 167.205 24.787,165.333 28.384,165.333 29.330 C 165.333 29.877,164.781 30.167,163.737 30.167 C 157.782 30.167,151.649 34.626,152.038 38.674 C 152.321 41.613,154.921 43.110,158.241 42.245 C 161.373 41.429,164.929 37.239,166.652 32.333 L 166.974 31.417 169.028 31.333 L 171.083 31.250 171.083 30.667 L 171.083 30.083 169.388 30.000 C 167.289 29.897,167.370 30.005,168.005 28.140 C 169.175 24.702,170.586 22.500,171.617 22.500 C 173.508 22.500,176.058 21.620,176.238 20.906 C 176.465 20.001,176.175 19.881,174.667 20.257 M213.971 27.741 C 211.931 28.188,209.380 29.921,207.938 31.841 C 204.074 36.981,208.174 41.191,213.633 37.688 C 215.881 36.246,215.871 35.201,213.621 36.334 C 211.938 37.182,211.332 37.292,210.480 36.907 C 209.314 36.382,208.820 35.167,209.773 35.167 C 209.900 35.167,210.135 35.100,210.294 35.018 C 210.453 34.935,211.108 34.618,211.750 34.313 C 215.335 32.605,217.167 30.836,217.167 29.081 C 217.167 27.802,215.974 27.302,213.971 27.741 M221.876 27.787 C 221.248 27.865,221.233 27.908,221.083 30.083 C 220.977 31.624,220.810 32.524,220.385 33.833 C 220.148 34.565,219.986 34.963,219.295 36.500 C 219.109 36.912,218.877 37.438,218.778 37.667 C 218.680 37.896,218.574 38.138,218.542 38.204 C 218.484 38.329,219.977 39.092,220.058 38.980 C 220.083 38.945,220.824 37.454,221.704 35.667 C 223.589 31.840,224.257 31.000,225.414 31.000 C 226.327 31.000,226.642 31.481,226.337 32.406 C 225.962 33.542,226.488 33.875,227.243 32.978 C 228.672 31.280,228.771 29.407,227.469 28.734 C 226.264 28.111,224.458 29.538,222.656 32.537 C 221.740 34.062,221.652 33.807,222.209 31.250 C 222.526 29.794,222.732 27.658,222.552 27.693 C 222.477 27.708,222.173 27.750,221.876 27.787 M179.333 28.026 C 178.230 28.327,177.583 28.522,177.250 28.654 C 176.522 28.942,174.853 29.813,174.667 30.001 C 174.621 30.047,174.296 30.299,173.945 30.561 C 173.104 31.189,172.520 31.770,171.915 32.583 C 171.642 32.950,171.376 33.287,171.325 33.333 C 170.577 34.000,170.129 37.072,170.641 38.033 C 171.602 39.838,174.636 39.111,177.420 36.408 C 178.638 35.225,178.928 35.092,178.766 35.792 C 178.495 36.964,178.470 37.525,178.669 38.005 C 179.263 39.441,181.286 39.221,182.970 37.539 C 184.011 36.498,183.595 35.863,182.447 36.739 C 181.732 37.284,181.256 37.280,180.742 36.726 C 180.142 36.079,180.207 35.742,181.464 33.000 C 182.251 31.282,182.257 31.222,181.686 30.926 C 181.210 30.681,180.500 31.172,180.500 31.747 C 180.500 32.333,177.289 35.701,176.022 36.444 C 172.806 38.329,171.613 34.652,174.517 31.805 C 175.529 30.813,177.006 29.857,178.100 29.486 C 178.458 29.364,178.821 29.206,178.908 29.133 C 178.995 29.060,179.203 29.000,179.369 29.000 C 180.147 29.000,181.000 28.586,181.000 28.209 C 181.000 27.787,180.438 27.725,179.333 28.026 M214.862 29.276 C 215.960 30.270,214.329 32.270,211.216 33.746 C 210.501 34.085,209.804 34.419,209.667 34.488 C 209.236 34.705,208.993 34.508,209.097 34.028 C 209.758 30.988,213.419 27.970,214.862 29.276 M164.388 31.875 C 164.085 33.459,161.892 37.575,160.734 38.734 C 157.073 42.396,152.916 39.885,155.714 35.702 C 157.102 33.626,161.251 31.412,163.871 31.348 C 164.483 31.334,164.490 31.340,164.388 31.875 M121.737 45.228 C 118.098 46.565,117.502 51.082,120.624 53.657 C 123.058 55.665,128.389 55.201,132.834 52.596 C 133.393 52.268,133.888 52.000,133.932 52.000 C 133.976 52.000,134.682 51.550,135.500 51.000 C 136.318 50.450,137.035 50.000,137.093 50.000 C 137.151 50.000,137.398 49.865,137.641 49.699 C 138.158 49.347,141.675 47.756,142.855 47.341 C 143.302 47.183,143.717 47.005,143.778 46.944 C 143.839 46.883,144.008 46.831,144.153 46.828 C 144.298 46.825,144.567 46.704,144.750 46.558 C 145.064 46.310,145.039 46.300,144.333 46.403 C 141.844 46.763,137.616 48.384,134.667 50.109 C 130.706 52.425,129.315 53.065,127.457 53.430 C 122.371 54.427,117.555 48.989,121.667 46.892 C 124.188 45.606,127.181 47.286,127.487 50.158 L 127.583 51.066 127.998 50.257 C 128.604 49.075,128.565 47.713,127.901 46.897 C 126.699 45.418,123.545 44.564,121.737 45.228 M253.417 45.207 C 250.818 46.098,249.609 47.709,250.258 49.417 C 250.398 49.783,250.556 50.215,250.609 50.375 C 250.782 50.897,250.986 50.683,251.095 49.866 C 251.449 47.199,254.814 45.578,257.051 46.997 C 260.831 49.394,256.163 54.419,251.067 53.438 C 249.411 53.120,248.256 52.597,244.625 50.524 C 242.666 49.405,242.002 49.058,240.583 48.411 C 238.917 47.651,236.994 46.987,235.500 46.655 C 232.891 46.076,233.041 46.293,236.083 47.501 C 238.950 48.639,240.821 49.554,242.284 50.531 C 242.945 50.972,243.518 51.333,243.559 51.333 C 243.599 51.333,244.109 51.623,244.692 51.977 C 250.445 55.472,255.928 55.916,258.553 53.099 C 260.767 50.723,260.276 46.761,257.624 45.614 C 257.327 45.485,256.874 45.295,256.617 45.190 C 256.052 44.960,254.107 44.970,253.417 45.207 M220.333 45.921 C 219.004 46.034,217.617 46.176,217.250 46.238 C 216.883 46.299,216.096 46.426,215.500 46.520 C 212.616 46.977,209.117 47.741,206.375 48.514 C 206.077 48.598,205.590 48.734,205.292 48.816 C 204.532 49.025,202.981 49.512,202.583 49.665 C 202.400 49.736,201.463 50.039,200.500 50.338 C 199.537 50.638,198.412 50.990,198.000 51.121 C 195.125 52.034,191.311 52.806,188.961 52.951 C 188.160 53.000,187.546 53.106,187.596 53.187 C 187.719 53.387,191.493 53.372,193.472 53.164 C 196.425 52.854,198.077 52.647,198.750 52.503 C 199.117 52.425,199.867 52.274,200.417 52.168 C 200.967 52.062,201.698 51.906,202.042 51.821 C 204.096 51.314,205.232 51.018,205.833 50.833 C 206.063 50.763,206.588 50.614,207.000 50.503 C 207.412 50.392,207.880 50.233,208.039 50.150 C 208.199 50.068,208.465 50.000,208.631 50.000 C 208.797 50.000,209.005 49.937,209.092 49.860 C 209.179 49.783,209.813 49.552,210.500 49.348 C 211.188 49.144,211.938 48.912,212.167 48.833 C 215.577 47.650,224.116 47.043,227.500 47.743 C 233.456 48.975,234.156 53.012,228.415 53.021 C 226.011 53.025,224.724 52.331,223.831 50.549 C 223.380 49.649,223.294 49.609,223.055 50.177 C 221.487 53.906,229.412 56.879,233.300 54.019 C 235.036 52.742,235.112 50.472,233.472 48.850 C 230.732 46.141,227.144 45.341,220.333 45.921 M144.883 47.819 C 141.334 49.029,140.879 52.225,143.927 54.542 C 144.736 55.157,146.640 56.167,146.992 56.167 C 147.090 56.167,147.301 56.235,147.461 56.319 C 148.496 56.862,155.027 56.982,158.667 56.525 C 160.369 56.310,163.364 55.807,164.708 55.509 C 165.653 55.299,166.729 55.060,167.417 54.906 C 168.354 54.696,171.913 53.683,173.500 53.173 C 174.371 52.894,175.608 52.507,176.250 52.313 C 176.892 52.119,177.567 51.903,177.750 51.832 C 177.933 51.762,178.421 51.612,178.833 51.500 C 179.246 51.387,179.771 51.237,180.000 51.167 C 180.620 50.976,181.654 50.709,182.500 50.521 C 182.912 50.429,183.438 50.308,183.667 50.252 C 184.560 50.033,186.324 49.794,187.917 49.678 C 189.356 49.573,189.100 49.552,186.045 49.528 C 184.099 49.513,181.961 49.579,181.295 49.676 C 177.975 50.159,177.042 50.318,175.333 50.691 C 173.293 51.136,169.321 52.242,166.939 53.028 C 163.924 54.023,162.929 54.280,160.583 54.669 C 156.026 55.424,151.570 55.452,148.250 54.748 C 146.284 54.330,144.167 52.724,144.167 51.649 C 144.167 49.543,149.652 48.825,151.633 50.671 C 152.160 51.162,153.000 52.441,153.000 52.752 C 153.000 53.286,153.418 52.881,153.563 52.208 C 154.221 49.133,148.909 46.446,144.883 47.819 " stroke="none" fill="#bf3b14" fill-rule="evenodd"></path><path id="path1" d="M0.000 36.833 L 0.000 73.667 200.000 73.667 L 400.000 73.667 400.000 36.833 L 400.000 0.000 200.000 0.000 L 0.000 0.000 0.000 36.833 M207.433 15.936 C 208.199 16.299,208.195 16.317,206.602 19.565 C 205.157 22.515,204.249 24.431,203.753 25.583 C 203.595 25.950,203.314 26.587,203.128 27.000 C 202.943 27.412,202.716 27.938,202.623 28.167 C 202.243 29.111,202.116 29.433,202.000 29.750 C 201.933 29.933,201.795 30.271,201.695 30.500 C 199.763 34.892,200.140 38.893,202.283 36.750 C 203.447 35.586,204.142 36.508,203.059 37.780 C 202.889 37.980,202.546 38.404,202.296 38.724 C 200.030 41.623,197.042 38.823,198.322 35.000 C 198.399 34.771,198.554 34.246,198.666 33.833 C 198.779 33.421,198.934 32.933,199.011 32.750 C 199.087 32.567,199.266 32.057,199.409 31.618 C 199.551 31.178,200.086 29.753,200.596 28.451 C 201.497 26.155,201.681 25.709,202.351 24.208 C 202.524 23.819,202.808 23.181,202.981 22.792 C 204.381 19.642,206.454 15.667,206.698 15.667 C 206.791 15.667,207.121 15.788,207.433 15.936 M194.302 17.614 C 194.514 17.746,194.664 17.909,194.635 17.975 C 194.607 18.041,194.048 19.180,193.395 20.506 C 192.278 22.771,192.070 23.218,191.401 24.792 C 191.255 25.135,190.992 25.705,190.818 26.057 C 190.643 26.410,190.500 26.767,190.500 26.851 C 190.500 26.935,190.356 27.322,190.180 27.710 C 188.773 30.817,187.916 33.853,188.840 32.458 C 189.445 31.545,192.084 29.000,192.426 29.000 C 192.558 29.000,192.667 28.940,192.667 28.867 C 192.667 28.706,193.516 28.395,194.375 28.242 C 195.350 28.067,196.083 28.283,196.739 28.939 L 197.333 29.533 197.333 31.090 C 197.333 31.948,197.259 32.693,197.167 32.750 C 197.075 32.807,197.000 32.991,197.000 33.160 C 197.000 33.935,195.066 36.925,193.811 38.093 C 193.179 38.679,192.727 38.966,191.294 39.688 C 190.210 40.233,187.964 39.686,188.364 38.974 C 188.848 38.112,189.025 38.000,189.901 37.999 C 191.197 37.998,192.223 37.299,193.320 35.667 C 195.916 31.808,193.821 29.097,190.719 32.301 C 189.321 33.745,187.000 37.456,187.000 38.247 C 187.000 38.650,186.521 38.899,186.119 38.706 C 185.916 38.608,185.506 38.428,185.208 38.307 C 184.576 38.048,184.586 38.130,184.989 36.417 C 185.540 34.074,186.456 31.234,187.019 30.127 C 187.100 29.968,187.167 29.723,187.167 29.583 C 187.167 29.443,187.233 29.199,187.314 29.039 C 187.395 28.880,187.535 28.563,187.625 28.333 C 187.715 28.104,187.884 27.692,188.000 27.417 C 188.116 27.142,188.274 26.767,188.351 26.583 C 190.418 21.647,192.381 17.641,192.901 17.299 C 193.128 17.149,193.801 17.301,194.302 17.614 M176.362 19.942 C 176.720 20.267,176.744 20.535,176.458 21.041 C 175.927 21.983,174.770 22.427,172.354 22.615 C 171.381 22.690,170.167 23.405,170.167 23.904 C 170.167 23.949,169.956 24.345,169.699 24.784 C 169.055 25.883,167.843 28.976,167.835 29.542 C 167.834 29.610,168.568 29.667,169.467 29.667 C 171.309 29.667,171.500 29.762,171.500 30.682 C 171.500 31.469,171.408 31.500,169.083 31.500 L 167.193 31.500 166.992 32.125 C 166.617 33.294,165.339 36.051,165.131 36.139 C 165.059 36.169,165.000 36.270,165.000 36.362 C 165.000 36.781,163.144 39.147,161.932 40.273 C 157.484 44.406,151.921 43.328,151.918 38.333 C 151.915 34.105,156.659 30.560,163.050 30.015 C 164.748 29.870,165.149 29.669,165.161 28.956 C 165.164 28.794,165.235 28.532,165.319 28.373 C 165.403 28.214,165.599 27.783,165.754 27.417 C 166.425 25.830,166.888 25.009,167.752 23.875 L 168.673 22.667 165.599 22.667 C 160.624 22.667,158.501 23.422,158.500 25.194 C 158.500 26.668,159.984 27.028,162.424 26.145 L 163.865 25.624 164.199 25.958 C 164.812 26.571,162.768 28.500,161.505 28.500 C 161.330 28.500,161.140 28.575,161.083 28.667 C 160.866 29.019,158.374 28.863,157.755 28.458 C 155.364 26.894,156.508 23.148,159.876 21.515 C 162.055 20.458,162.959 20.333,168.411 20.333 C 173.017 20.333,174.207 20.245,175.250 19.824 C 175.767 19.615,176.031 19.643,176.362 19.942 M216.684 27.714 C 218.390 28.861,216.848 31.898,213.681 33.628 C 212.093 34.495,210.295 35.333,210.022 35.333 C 209.330 35.333,209.612 36.198,210.447 36.641 C 211.204 37.041,214.045 36.305,214.306 35.641 C 214.407 35.384,215.110 35.495,215.398 35.812 C 216.264 36.769,212.263 39.167,209.801 39.167 C 205.413 39.167,204.877 34.323,208.843 30.500 C 210.041 29.345,210.461 29.000,210.669 29.000 C 210.759 29.000,210.833 28.941,210.833 28.868 C 210.833 28.796,211.254 28.523,211.768 28.263 C 213.726 27.272,215.698 27.051,216.684 27.714 M222.796 28.513 C 222.822 29.112,222.704 30.226,222.530 31.042 C 222.160 32.770,222.147 32.755,222.975 31.542 C 225.000 28.576,226.805 27.649,228.078 28.922 C 229.076 29.921,228.767 31.680,227.326 33.194 C 226.397 34.172,225.651 33.704,226.092 32.421 C 226.463 31.342,225.719 30.816,224.692 31.432 C 223.984 31.858,223.257 32.973,222.079 35.443 C 220.112 39.567,220.243 39.406,219.216 38.968 C 218.463 38.647,218.168 38.334,218.324 38.024 C 218.559 37.561,219.204 36.097,219.895 34.458 C 220.125 33.914,220.311 33.256,220.650 31.789 C 220.751 31.353,220.834 30.378,220.836 29.623 C 220.839 28.025,220.929 27.830,221.782 27.566 C 222.696 27.284,222.745 27.330,222.796 28.513 M181.300 28.263 C 181.352 28.794,180.692 29.167,179.699 29.167 C 179.509 29.167,179.307 29.242,179.250 29.333 C 179.193 29.425,179.010 29.500,178.844 29.500 C 176.436 29.500,172.564 33.722,173.157 35.701 C 173.827 37.936,177.303 36.085,179.949 32.083 C 181.167 30.240,181.080 30.304,181.846 30.713 C 182.628 31.130,182.634 31.182,182.017 32.435 C 180.870 34.764,180.581 35.753,180.846 36.449 C 181.045 36.974,181.727 36.952,182.530 36.396 C 183.133 35.978,183.180 35.970,183.581 36.233 C 184.153 36.608,184.120 36.729,183.190 37.660 C 180.850 39.999,178.227 39.670,178.362 37.055 C 178.427 35.802,178.478 35.823,177.509 36.708 C 175.424 38.612,174.341 39.160,172.651 39.164 C 169.601 39.172,169.094 35.338,171.753 32.385 C 172.068 32.036,172.327 31.702,172.329 31.644 C 172.335 31.488,174.621 29.667,174.811 29.667 C 174.899 29.667,174.997 29.610,175.028 29.541 C 175.103 29.370,177.111 28.398,177.833 28.183 C 178.154 28.088,178.642 27.937,178.917 27.848 C 180.042 27.483,181.244 27.692,181.300 28.263 M212.772 29.566 C 211.358 30.391,209.333 32.991,209.333 33.982 C 209.333 34.836,213.674 32.344,214.586 30.966 C 215.544 29.519,214.385 28.625,212.772 29.566 M163.305 31.687 C 157.544 32.538,152.773 38.009,156.050 40.007 C 158.344 41.405,161.628 38.360,163.824 32.799 C 164.293 31.612,164.262 31.546,163.305 31.687 M125.450 45.021 C 128.683 46.323,129.506 48.094,128.055 50.629 C 127.587 51.448,127.334 51.414,127.331 50.532 C 127.318 47.361,123.394 45.528,121.068 47.605 C 118.670 49.747,122.633 53.682,126.793 53.289 C 128.487 53.129,132.076 51.567,134.333 50.006 C 136.515 48.498,142.232 46.339,144.394 46.207 C 146.493 46.080,146.254 46.333,143.167 47.511 C 141.743 48.053,140.997 48.366,139.370 49.102 C 138.886 49.321,138.424 49.500,138.342 49.500 C 138.261 49.500,138.169 49.556,138.139 49.625 C 138.069 49.781,137.182 50.323,136.792 50.446 C 136.631 50.497,136.500 50.605,136.500 50.686 C 136.500 50.767,136.427 50.833,136.338 50.833 C 136.250 50.833,135.631 51.190,134.963 51.625 C 133.891 52.323,131.007 53.831,130.083 54.175 C 127.685 55.070,125.254 55.445,123.689 55.162 C 121.988 54.855,121.234 54.509,120.161 53.545 C 117.468 51.127,117.872 46.742,120.917 45.356 C 121.192 45.230,121.529 45.066,121.667 44.990 C 122.043 44.783,124.918 44.807,125.450 45.021 M257.749 45.396 C 260.724 47.007,261.143 50.829,258.625 53.383 C 255.938 56.109,250.398 55.739,245.025 52.476 C 244.442 52.123,243.933 51.833,243.892 51.833 C 243.852 51.833,243.267 51.462,242.594 51.007 C 240.693 49.725,239.010 48.909,235.345 47.494 C 234.021 46.983,232.909 46.476,232.872 46.366 C 232.790 46.121,234.636 46.089,235.405 46.322 C 238.040 47.123,238.965 47.446,240.333 48.043 C 242.140 48.831,244.230 49.897,244.500 50.167 C 244.546 50.212,244.883 50.411,245.250 50.608 C 245.617 50.805,246.217 51.137,246.583 51.344 C 249.822 53.180,251.793 53.633,254.133 53.081 C 258.220 52.117,259.620 47.888,256.193 46.861 C 253.855 46.161,251.333 47.960,251.333 50.329 C 251.333 51.651,250.869 51.517,250.179 49.997 C 249.367 48.206,250.117 46.469,252.119 45.500 C 252.558 45.288,253.029 45.056,253.167 44.984 C 253.917 44.591,256.731 44.844,257.749 45.396 M227.564 45.680 C 227.941 45.779,228.550 45.939,228.917 46.035 C 229.283 46.131,229.901 46.350,230.290 46.522 C 230.678 46.693,231.038 46.833,231.090 46.833 C 231.141 46.833,231.574 47.083,232.051 47.389 C 235.118 49.351,235.804 51.894,233.798 53.866 C 233.220 54.434,232.909 54.616,231.617 55.143 C 230.656 55.535,226.549 55.271,226.064 54.786 C 225.998 54.720,225.846 54.667,225.725 54.667 C 225.227 54.667,223.623 53.442,223.155 52.705 C 222.309 51.371,222.723 48.623,223.633 49.533 C 223.743 49.643,223.835 49.850,223.837 49.992 C 223.845 50.472,224.983 51.809,225.786 52.281 C 227.744 53.433,232.135 52.631,232.161 51.117 C 232.223 47.606,221.163 46.541,211.917 49.167 C 211.550 49.271,211.080 49.398,210.873 49.448 C 210.665 49.499,210.454 49.606,210.404 49.687 C 210.354 49.767,210.135 49.833,209.917 49.833 C 209.698 49.833,209.473 49.908,209.417 50.000 C 209.360 50.092,209.135 50.167,208.917 50.167 C 208.698 50.167,208.479 50.233,208.429 50.314 C 208.378 50.395,208.130 50.502,207.877 50.550 C 207.624 50.599,207.135 50.720,206.792 50.820 C 199.742 52.854,196.344 53.381,190.133 53.401 C 186.653 53.412,185.464 53.364,185.308 53.208 C 185.193 53.093,184.928 53.000,184.717 53.000 C 184.506 53.000,184.333 52.916,184.333 52.814 C 184.333 52.695,184.499 52.668,184.792 52.739 C 185.735 52.969,189.590 52.755,191.917 52.345 C 192.375 52.264,193.050 52.148,193.417 52.086 C 193.783 52.024,194.233 51.910,194.417 51.833 C 194.600 51.755,194.956 51.649,195.208 51.596 C 195.460 51.543,195.873 51.457,196.125 51.404 C 196.377 51.351,196.733 51.247,196.917 51.173 C 197.100 51.099,197.588 50.944,198.000 50.828 C 199.491 50.411,200.923 49.959,201.206 49.814 C 201.365 49.733,201.610 49.667,201.750 49.667 C 201.890 49.667,202.135 49.598,202.294 49.514 C 202.963 49.162,207.888 47.760,210.292 47.238 C 214.035 46.425,215.847 46.127,218.719 45.856 C 219.619 45.770,220.400 45.656,220.455 45.600 C 220.632 45.424,226.852 45.493,227.564 45.680 M149.667 47.607 C 151.565 48.128,153.667 49.594,153.667 50.397 C 153.667 50.535,153.742 50.693,153.833 50.750 C 154.279 51.025,153.780 53.101,153.224 53.287 C 153.126 53.319,152.847 52.949,152.604 52.465 C 152.082 51.420,151.748 51.003,151.088 50.571 C 148.606 48.945,143.546 50.160,144.568 52.137 C 146.391 55.662,156.902 56.025,166.487 52.894 C 167.992 52.402,169.356 52.000,169.519 52.000 C 169.681 52.000,169.860 51.925,169.917 51.833 C 169.973 51.742,170.236 51.667,170.500 51.667 C 170.764 51.667,171.027 51.592,171.083 51.500 C 171.140 51.408,171.402 51.333,171.667 51.333 C 171.931 51.333,172.188 51.267,172.239 51.185 C 172.289 51.104,172.575 50.995,172.873 50.944 C 173.172 50.893,173.773 50.773,174.208 50.676 C 177.816 49.874,179.583 49.594,182.750 49.321 C 185.034 49.125,190.545 49.224,191.417 49.478 L 191.917 49.623 191.500 49.721 C 191.271 49.775,190.108 49.859,188.917 49.907 C 186.073 50.022,184.541 50.265,181.000 51.163 C 179.495 51.545,176.510 52.462,172.750 53.697 C 172.475 53.787,172.006 53.930,171.708 54.014 C 171.410 54.098,170.885 54.247,170.542 54.344 C 170.198 54.442,169.635 54.592,169.292 54.678 C 168.948 54.763,168.367 54.908,168.000 55.000 C 166.271 55.432,165.865 55.529,165.167 55.676 C 153.634 58.099,146.802 57.630,143.137 54.164 C 139.156 50.401,143.597 45.941,149.667 47.607 " stroke="none" fill="#fbfbfb" fill-rule="evenodd"></path><path id="path2" d="M205.616 17.323 C 205.461 17.586,205.334 17.865,205.334 17.942 C 205.334 18.020,205.488 17.831,205.676 17.523 C 205.864 17.215,205.991 16.936,205.959 16.903 C 205.926 16.870,205.772 17.059,205.616 17.323 M192.900 17.294 C 192.799 17.362,192.626 17.604,192.516 17.833 C 192.324 18.231,192.327 18.235,192.578 17.917 C 192.722 17.733,192.966 17.490,193.119 17.375 C 193.412 17.156,193.216 17.083,192.900 17.294 M193.958 17.582 C 194.566 17.846,194.607 17.962,194.255 18.426 C 194.121 18.604,194.009 18.825,194.008 18.917 C 194.007 19.008,194.168 18.829,194.367 18.518 L 194.729 17.953 194.346 17.643 C 194.135 17.473,193.840 17.336,193.690 17.340 C 193.540 17.343,193.660 17.452,193.958 17.582 M204.917 18.667 C 204.774 18.942,204.696 19.167,204.741 19.167 C 204.787 19.167,204.941 18.942,205.083 18.667 C 205.226 18.392,205.304 18.167,205.259 18.167 C 205.213 18.167,205.059 18.392,204.917 18.667 M193.494 19.959 C 193.144 20.661,193.142 20.667,193.228 20.667 C 193.336 20.667,193.851 19.628,193.779 19.557 C 193.748 19.526,193.620 19.707,193.494 19.959 M175.333 19.849 C 175.140 19.987,175.184 20.005,175.530 19.930 C 176.064 19.814,176.566 20.231,176.445 20.692 C 176.401 20.862,176.432 20.958,176.516 20.907 C 176.767 20.751,176.685 20.235,176.362 19.942 C 176.011 19.625,175.690 19.596,175.333 19.849 M173.917 20.167 L 173.583 20.310 173.917 20.319 C 174.100 20.324,174.362 20.256,174.500 20.167 C 174.831 19.953,174.415 19.953,173.917 20.167 M162.917 20.500 L 162.583 20.643 162.917 20.638 C 163.100 20.636,163.438 20.573,163.667 20.500 L 164.083 20.367 163.667 20.362 C 163.438 20.359,163.100 20.421,162.917 20.500 M205.449 21.592 C 204.837 22.839,204.894 22.987,205.519 21.775 C 205.796 21.239,205.994 20.772,205.960 20.738 C 205.926 20.704,205.696 21.088,205.449 21.592 M159.902 21.496 C 159.360 21.769,158.579 22.298,158.167 22.672 L 157.417 23.353 158.333 22.651 C 158.837 22.265,159.644 21.768,160.125 21.546 C 160.606 21.324,161.000 21.110,161.000 21.071 C 161.000 20.952,160.922 20.982,159.902 21.496 M175.782 21.598 C 175.525 21.819,175.375 21.998,175.449 21.994 C 175.634 21.987,176.396 21.340,176.315 21.260 C 176.279 21.224,176.040 21.376,175.782 21.598 M172.750 22.500 L 172.250 22.627 172.750 22.644 C 173.025 22.654,173.362 22.589,173.500 22.500 C 173.810 22.300,173.536 22.300,172.750 22.500 M166.064 22.625 L 168.710 22.675 168.397 23.030 L 168.083 23.385 168.552 23.083 C 169.299 22.602,168.828 22.502,166.000 22.540 L 163.417 22.574 166.064 22.625 M161.250 22.833 C 160.825 23.016,161.263 23.016,161.833 22.833 C 162.168 22.726,162.185 22.699,161.917 22.695 C 161.733 22.692,161.433 22.755,161.250 22.833 M169.600 24.666 C 169.350 25.125,169.182 25.500,169.225 25.500 C 169.337 25.500,170.185 23.962,170.113 23.890 C 170.080 23.858,169.850 24.207,169.600 24.666 M156.604 24.923 C 156.547 25.072,156.506 25.319,156.514 25.472 C 156.522 25.625,156.595 25.529,156.675 25.258 C 156.833 24.732,156.777 24.472,156.604 24.923 M201.680 25.708 C 201.599 25.915,201.377 26.477,201.186 26.958 C 200.995 27.440,200.876 27.833,200.923 27.833 C 200.970 27.833,201.074 27.665,201.154 27.458 C 201.234 27.252,201.456 26.690,201.647 26.208 C 201.839 25.727,201.957 25.333,201.910 25.333 C 201.863 25.333,201.760 25.502,201.680 25.708 M163.777 25.833 C 163.976 25.913,164.217 26.115,164.314 26.281 C 164.411 26.447,164.492 26.501,164.495 26.401 C 164.502 26.147,163.940 25.664,163.654 25.677 C 163.523 25.683,163.579 25.753,163.777 25.833 M159.443 26.708 C 159.542 26.869,161.022 26.867,161.276 26.706 C 161.382 26.638,160.996 26.583,160.418 26.583 C 159.839 26.583,159.401 26.640,159.443 26.708 M164.081 26.837 C 164.023 26.931,163.588 27.268,163.115 27.587 C 162.642 27.906,162.315 28.167,162.389 28.167 C 162.579 28.167,163.892 27.248,164.155 26.931 C 164.276 26.785,164.332 26.667,164.280 26.667 C 164.229 26.667,164.139 26.743,164.081 26.837 M214.625 27.454 C 214.923 27.491,215.410 27.491,215.708 27.454 C 216.006 27.417,215.762 27.387,215.167 27.387 C 214.571 27.387,214.327 27.417,214.625 27.454 M222.083 27.498 C 221.813 27.613,221.849 27.634,222.275 27.611 C 222.564 27.596,222.766 27.527,222.724 27.458 C 222.631 27.307,222.518 27.314,222.083 27.498 M180.267 27.787 C 181.196 27.851,181.201 27.854,181.130 28.342 C 181.090 28.612,181.124 28.833,181.206 28.833 C 181.288 28.833,181.331 28.590,181.302 28.292 C 181.250 27.751,181.248 27.750,180.291 27.736 L 179.332 27.723 180.267 27.787 M212.375 27.931 C 212.077 28.061,211.833 28.204,211.833 28.249 C 211.833 28.323,213.157 27.855,213.319 27.723 C 213.498 27.578,212.859 27.719,212.375 27.931 M221.006 27.989 C 220.911 28.166,220.847 28.785,220.864 29.364 L 220.895 30.417 220.949 29.500 C 221.025 28.206,221.125 27.869,221.458 27.782 C 221.728 27.711,221.728 27.704,221.464 27.686 C 221.307 27.675,221.101 27.812,221.006 27.989 M177.833 28.174 C 177.651 28.298,177.718 28.313,178.083 28.232 C 178.696 28.095,178.829 27.999,178.403 28.003 C 178.227 28.004,177.971 28.081,177.833 28.174 M194.625 28.284 C 194.831 28.324,195.169 28.324,195.375 28.284 C 195.581 28.245,195.412 28.212,195.000 28.212 C 194.588 28.212,194.419 28.245,194.625 28.284 M193.125 28.550 C 192.873 28.650,192.667 28.793,192.667 28.870 C 192.667 28.946,192.873 28.904,193.125 28.777 C 193.377 28.650,193.696 28.504,193.833 28.453 C 194.056 28.370,194.056 28.360,193.833 28.364 C 193.696 28.367,193.377 28.450,193.125 28.550 M226.109 28.458 C 226.067 28.527,226.393 28.583,226.833 28.583 C 227.274 28.583,227.600 28.527,227.558 28.458 C 227.515 28.390,227.189 28.333,226.833 28.333 C 226.477 28.333,226.152 28.390,226.109 28.458 M158.083 28.667 C 158.140 28.758,158.351 28.828,158.552 28.822 C 158.904 28.810,158.905 28.805,158.583 28.667 C 158.125 28.470,157.961 28.470,158.083 28.667 M160.583 28.667 C 160.262 28.805,160.263 28.810,160.615 28.822 C 160.816 28.828,161.027 28.758,161.083 28.667 C 161.205 28.470,161.042 28.470,160.583 28.667 M180.000 29.000 C 179.665 29.107,179.649 29.134,179.917 29.138 C 180.100 29.141,180.400 29.079,180.583 29.000 C 181.008 28.817,180.570 28.817,180.000 29.000 M222.692 29.188 C 222.678 29.428,222.629 29.878,222.584 30.188 L 222.501 30.750 222.677 30.191 C 222.773 29.883,222.822 29.433,222.784 29.191 L 222.717 28.750 222.692 29.188 M191.929 29.254 C 191.752 29.387,191.640 29.528,191.679 29.567 C 191.718 29.606,191.927 29.494,192.143 29.319 C 192.599 28.949,192.408 28.891,191.929 29.254 M200.104 29.663 C 199.728 30.603,199.786 30.743,200.182 29.851 C 200.361 29.448,200.477 29.088,200.441 29.052 C 200.405 29.016,200.253 29.291,200.104 29.663 M164.883 29.565 C 164.810 29.692,164.600 29.833,164.417 29.879 C 164.110 29.955,164.113 29.963,164.452 29.981 C 164.665 29.992,164.897 29.859,165.000 29.667 C 165.199 29.294,165.093 29.201,164.883 29.565 M167.734 29.537 C 167.764 29.687,168.293 29.775,169.513 29.833 L 171.250 29.917 171.350 30.667 L 171.450 31.417 171.475 30.742 C 171.511 29.763,171.333 29.667,169.481 29.667 C 168.541 29.667,167.826 29.595,167.776 29.496 C 167.730 29.402,167.711 29.421,167.734 29.537 M228.345 29.448 C 228.383 29.881,228.643 30.248,228.655 29.885 C 228.661 29.684,228.592 29.473,228.500 29.417 C 228.408 29.360,228.339 29.374,228.345 29.448 M177.357 29.936 C 176.876 30.176,176.509 30.398,176.541 30.430 C 176.599 30.488,178.142 29.747,178.305 29.584 C 178.477 29.412,178.208 29.512,177.357 29.936 M211.994 29.921 C 211.363 30.386,210.421 31.401,210.141 31.917 C 210.041 32.100,210.250 31.916,210.605 31.507 C 211.249 30.765,211.829 30.207,212.432 29.751 C 212.607 29.619,212.708 29.508,212.657 29.505 C 212.606 29.502,212.308 29.689,211.994 29.921 M190.246 30.875 L 189.083 32.083 190.292 30.921 C 191.414 29.842,191.576 29.667,191.454 29.667 C 191.428 29.667,190.885 30.210,190.246 30.875 M161.417 30.171 C 161.194 30.270,161.333 30.286,161.833 30.219 C 162.246 30.165,162.615 30.093,162.653 30.060 C 162.798 29.935,161.735 30.030,161.417 30.171 M223.412 30.942 C 222.279 32.523,222.301 32.505,222.404 31.750 C 222.480 31.192,222.467 31.150,222.325 31.488 C 222.232 31.710,222.174 32.010,222.195 32.154 C 222.217 32.299,222.142 32.585,222.028 32.792 C 221.638 33.501,222.084 33.165,222.583 32.375 C 222.858 31.939,223.332 31.257,223.636 30.859 C 223.941 30.460,224.164 30.108,224.132 30.076 C 224.100 30.045,223.777 30.434,223.412 30.942 M188.774 30.877 C 188.386 31.892,188.450 32.085,188.848 31.103 C 189.030 30.656,189.149 30.260,189.113 30.224 C 189.077 30.189,188.925 30.482,188.774 30.877 M159.833 30.500 C 159.611 30.644,159.611 30.662,159.833 30.662 C 159.971 30.662,160.196 30.589,160.333 30.500 C 160.556 30.356,160.556 30.338,160.333 30.338 C 160.196 30.338,159.971 30.411,159.833 30.500 M180.972 30.625 C 180.836 30.785,180.403 31.404,180.009 32.000 C 179.614 32.596,179.095 33.308,178.854 33.583 L 178.417 34.082 178.873 33.681 C 179.124 33.460,179.746 32.652,180.257 31.885 C 180.811 31.052,181.258 30.537,181.368 30.605 C 181.479 30.673,181.504 30.642,181.433 30.526 C 181.279 30.277,181.263 30.280,180.972 30.625 M175.333 31.222 C 174.829 31.618,174.304 32.085,174.167 32.259 C 174.029 32.432,174.292 32.260,174.750 31.877 C 175.208 31.494,175.771 31.030,176.000 30.846 C 176.229 30.662,176.379 30.509,176.333 30.506 C 176.287 30.503,175.838 30.825,175.333 31.222 M214.599 30.917 C 214.449 31.146,214.390 31.333,214.469 31.333 C 214.548 31.333,214.699 31.146,214.803 30.917 C 214.907 30.688,214.966 30.500,214.932 30.500 C 214.899 30.500,214.749 30.688,214.599 30.917 M228.519 30.695 C 228.509 30.848,228.457 31.110,228.404 31.278 C 228.313 31.567,228.318 31.568,228.499 31.286 C 228.603 31.123,228.655 30.861,228.614 30.703 C 228.546 30.445,228.537 30.444,228.519 30.695 M215.757 31.892 C 214.684 32.994,214.733 33.035,215.890 32.005 C 216.299 31.641,217.121 30.635,216.970 30.684 C 216.941 30.693,216.395 31.237,215.757 31.892 M194.113 31.264 C 194.508 31.659,194.536 31.781,194.457 32.723 C 194.405 33.331,194.425 33.614,194.506 33.417 C 194.880 32.507,194.441 30.833,193.829 30.833 C 193.748 30.833,193.876 31.027,194.113 31.264 M225.417 31.120 C 225.600 31.165,225.900 31.325,226.083 31.476 C 226.414 31.748,226.414 31.747,226.099 31.375 C 225.925 31.169,225.625 31.009,225.433 31.019 C 225.097 31.038,225.096 31.042,225.417 31.120 M167.006 31.656 C 166.911 31.833,166.839 32.077,166.846 32.197 C 166.854 32.318,166.934 32.213,167.025 31.963 L 167.191 31.510 169.221 31.458 L 171.250 31.405 169.214 31.369 C 167.352 31.336,167.164 31.361,167.006 31.656 M220.583 31.833 C 220.520 32.121,220.506 32.395,220.552 32.441 C 220.597 32.486,220.687 32.288,220.750 32.000 C 220.813 31.712,220.828 31.439,220.782 31.393 C 220.736 31.347,220.647 31.545,220.583 31.833 M156.624 31.819 C 155.957 32.246,155.835 32.419,156.417 32.111 C 157.115 31.740,157.446 31.503,157.250 31.515 C 157.158 31.520,156.877 31.657,156.624 31.819 M213.583 32.013 C 212.595 32.761,212.461 32.972,213.389 32.322 C 214.089 31.831,214.470 31.489,214.302 31.505 C 214.273 31.507,213.950 31.736,213.583 32.013 M161.917 31.833 C 161.492 32.016,161.930 32.016,162.500 31.833 C 162.835 31.726,162.851 31.699,162.583 31.695 C 162.400 31.692,162.100 31.755,161.917 31.833 M223.810 32.125 C 223.331 32.704,223.127 33.000,223.210 33.000 C 223.256 33.000,223.494 32.737,223.739 32.417 C 224.193 31.821,224.248 31.597,223.810 32.125 M188.129 32.741 C 187.889 33.470,187.989 34.185,188.244 33.556 C 188.354 33.282,188.488 32.000,188.406 32.000 C 188.388 32.000,188.263 32.333,188.129 32.741 M197.186 32.111 C 197.175 32.218,197.118 32.443,197.059 32.611 C 196.975 32.848,196.997 32.874,197.158 32.726 C 197.272 32.621,197.329 32.396,197.285 32.226 C 197.241 32.056,197.197 32.004,197.186 32.111 M207.089 32.598 C 206.934 32.835,206.835 33.058,206.870 33.093 C 206.906 33.128,207.066 32.934,207.227 32.662 C 207.586 32.053,207.478 32.004,207.089 32.598 M163.798 32.754 C 163.747 32.935,163.654 33.233,163.592 33.417 C 163.530 33.600,163.601 33.539,163.750 33.282 C 163.899 33.024,163.992 32.726,163.956 32.619 C 163.921 32.513,163.850 32.573,163.798 32.754 M166.528 32.991 C 166.430 33.271,166.386 33.500,166.429 33.500 C 166.542 33.500,166.856 32.634,166.774 32.552 C 166.736 32.514,166.625 32.712,166.528 32.991 M189.906 33.042 L 189.417 33.583 189.958 33.094 C 190.463 32.638,190.577 32.500,190.448 32.500 C 190.419 32.500,190.175 32.744,189.906 33.042 M159.125 32.929 C 158.479 33.279,158.552 33.400,159.208 33.066 C 159.837 32.747,159.948 32.664,159.736 32.673 C 159.652 32.677,159.377 32.792,159.125 32.929 M171.195 33.016 C 170.887 33.510,171.024 33.547,171.383 33.067 C 171.547 32.847,171.622 32.667,171.548 32.667 C 171.474 32.667,171.315 32.824,171.195 33.016 M209.491 33.106 C 209.399 33.348,209.355 33.577,209.393 33.615 C 209.431 33.653,209.541 33.455,209.639 33.175 C 209.855 32.553,209.725 32.493,209.491 33.106 M173.254 33.658 C 173.114 33.929,173.006 34.285,173.014 34.450 C 173.024 34.650,173.072 34.607,173.158 34.324 C 173.229 34.089,173.375 33.733,173.483 33.532 C 173.590 33.331,173.640 33.167,173.593 33.167 C 173.547 33.167,173.394 33.388,173.254 33.658 M200.604 33.423 C 200.547 33.572,200.506 33.819,200.514 33.972 C 200.522 34.125,200.595 34.029,200.675 33.758 C 200.833 33.232,200.777 32.972,200.604 33.423 M162.868 34.922 C 162.576 35.515,162.372 36.000,162.416 36.000 C 162.528 36.000,163.535 33.980,163.461 33.905 C 163.427 33.872,163.160 34.329,162.868 34.922 M209.180 34.032 C 209.163 34.396,209.369 34.518,209.675 34.325 C 209.878 34.196,209.872 34.171,209.639 34.169 C 209.486 34.168,209.323 34.073,209.277 33.958 C 209.225 33.830,209.188 33.858,209.180 34.032 M156.575 34.875 L 155.917 35.583 156.664 34.917 C 157.075 34.550,157.444 34.231,157.484 34.208 C 157.523 34.185,157.483 34.167,157.395 34.167 C 157.307 34.167,156.938 34.485,156.575 34.875 M177.692 34.767 C 177.568 34.907,177.499 35.055,177.540 35.095 C 177.580 35.136,177.749 35.018,177.916 34.834 C 178.082 34.650,178.150 34.503,178.067 34.506 C 177.985 34.510,177.815 34.627,177.692 34.767 M200.271 35.021 C 200.129 35.732,200.140 36.631,200.292 36.723 C 200.360 36.764,200.424 36.281,200.434 35.649 C 200.453 34.370,200.424 34.257,200.271 35.021 M206.220 35.667 C 206.220 36.262,206.250 36.506,206.287 36.208 C 206.324 35.910,206.324 35.423,206.287 35.125 C 206.250 34.827,206.220 35.071,206.220 35.667 M185.271 35.090 C 185.213 35.239,185.173 35.486,185.181 35.639 C 185.189 35.792,185.261 35.695,185.342 35.425 C 185.499 34.899,185.444 34.639,185.271 35.090 M180.580 35.683 C 180.517 35.967,180.533 36.266,180.614 36.348 C 180.701 36.434,180.774 36.219,180.789 35.831 C 180.821 35.036,180.735 34.975,180.580 35.683 M170.101 35.597 C 169.957 35.972,169.976 37.465,170.125 37.557 C 170.194 37.599,170.250 37.116,170.250 36.483 C 170.250 35.225,170.248 35.214,170.101 35.597 M209.450 35.557 C 209.403 35.680,209.439 35.886,209.531 36.015 C 209.667 36.206,209.682 36.199,209.612 35.979 C 209.565 35.829,209.610 35.623,209.713 35.520 C 209.845 35.388,209.847 35.333,209.718 35.333 C 209.618 35.333,209.497 35.434,209.450 35.557 M173.008 35.716 C 172.999 36.061,173.715 36.836,174.034 36.827 C 174.153 36.824,174.063 36.718,173.834 36.591 C 173.606 36.465,173.328 36.149,173.217 35.889 C 173.082 35.573,173.013 35.516,173.008 35.716 M215.221 35.777 C 215.520 36.132,215.515 36.150,214.894 36.860 C 214.313 37.525,214.307 37.543,214.812 37.083 C 215.636 36.334,215.720 36.096,215.286 35.729 L 214.917 35.417 215.221 35.777 M155.691 35.888 C 155.448 36.180,154.998 37.266,155.008 37.536 C 155.012 37.654,155.156 37.389,155.329 36.949 C 155.501 36.508,155.732 36.039,155.841 35.907 C 155.951 35.775,156.003 35.667,155.957 35.667 C 155.912 35.667,155.792 35.766,155.691 35.888 M177.250 36.780 C 175.990 37.967,176.407 37.731,177.831 36.450 C 178.311 36.019,178.638 35.670,178.560 35.673 C 178.481 35.677,177.892 36.175,177.250 36.780 M221.447 36.424 C 221.055 37.245,221.110 37.385,221.519 36.609 C 221.705 36.257,221.828 35.939,221.792 35.903 C 221.756 35.867,221.600 36.102,221.447 36.424 M178.387 37.167 C 178.387 37.762,178.417 38.006,178.454 37.708 C 178.491 37.410,178.491 36.923,178.454 36.625 C 178.417 36.327,178.387 36.571,178.387 37.167 M202.344 36.718 L 201.938 37.250 202.436 36.792 C 203.016 36.259,203.252 36.221,203.487 36.625 C 203.580 36.785,203.659 36.838,203.662 36.742 C 203.682 36.049,202.865 36.034,202.344 36.718 M192.645 36.611 C 192.520 36.764,192.124 37.101,191.767 37.361 C 191.409 37.621,191.196 37.833,191.292 37.833 C 191.480 37.833,193.154 36.351,192.979 36.340 C 192.921 36.336,192.771 36.458,192.645 36.611 M198.050 37.167 C 198.050 37.671,198.081 37.877,198.119 37.625 C 198.158 37.373,198.158 36.960,198.119 36.708 C 198.081 36.456,198.050 36.662,198.050 37.167 M174.750 36.667 C 174.429 36.805,174.430 36.810,174.782 36.822 C 174.983 36.828,175.193 36.758,175.250 36.667 C 175.372 36.470,175.209 36.470,174.750 36.667 M194.008 37.741 L 193.267 38.583 194.084 37.798 C 194.533 37.365,194.867 36.986,194.825 36.955 C 194.784 36.924,194.416 37.278,194.008 37.741 M206.341 36.886 C 206.318 37.307,207.549 38.835,207.908 38.831 C 208.004 38.830,207.838 38.636,207.538 38.400 C 207.238 38.163,206.848 37.696,206.670 37.360 C 206.493 37.025,206.345 36.811,206.341 36.886 M200.645 37.208 C 200.883 37.511,201.581 37.607,201.735 37.357 C 201.784 37.279,201.638 37.250,201.411 37.294 C 201.184 37.337,200.867 37.270,200.707 37.145 C 200.444 36.938,200.438 36.944,200.645 37.208 M183.073 37.708 L 182.583 38.250 183.125 37.760 C 183.630 37.304,183.743 37.167,183.615 37.167 C 183.586 37.167,183.342 37.410,183.073 37.708 M151.887 38.333 C 151.887 38.929,151.917 39.173,151.954 38.875 C 151.991 38.577,151.991 38.090,151.954 37.792 C 151.917 37.494,151.887 37.737,151.887 38.333 M160.583 38.393 C 160.033 38.971,159.396 39.570,159.167 39.726 C 158.763 40.001,158.762 40.004,159.149 39.819 C 159.647 39.582,160.911 38.426,161.356 37.802 C 161.849 37.110,161.694 37.228,160.583 38.393 M220.601 38.164 C 220.362 38.620,220.168 39.051,220.169 39.122 C 220.171 39.269,220.877 38.062,221.045 37.625 C 221.260 37.063,221.031 37.341,220.601 38.164 M175.500 38.175 L 175.083 38.509 175.542 38.311 C 175.794 38.202,176.000 38.050,176.000 37.973 C 176.000 37.783,175.977 37.792,175.500 38.175 M162.595 39.464 C 161.738 40.405,161.581 40.623,162.150 40.083 C 162.935 39.337,164.115 37.992,163.972 38.005 C 163.942 38.008,163.322 38.665,162.595 39.464 M189.375 38.119 C 189.627 38.158,190.040 38.158,190.292 38.119 C 190.544 38.081,190.338 38.050,189.833 38.050 C 189.329 38.050,189.123 38.081,189.375 38.119 M218.277 38.111 C 218.143 38.246,218.646 38.833,218.896 38.833 C 218.994 38.833,218.906 38.716,218.701 38.572 C 218.496 38.428,218.371 38.241,218.424 38.155 C 218.535 37.976,218.441 37.948,218.277 38.111 M186.769 38.428 C 186.701 38.606,186.544 38.673,186.331 38.618 C 186.149 38.570,186.042 38.599,186.093 38.682 C 186.144 38.765,186.285 38.833,186.406 38.833 C 186.658 38.833,187.091 38.369,186.961 38.239 C 186.913 38.191,186.827 38.277,186.769 38.428 M178.857 38.757 C 179.099 39.004,179.370 39.179,179.459 39.145 C 179.548 39.111,179.350 38.909,179.019 38.695 L 178.417 38.307 178.857 38.757 M192.667 38.842 L 192.250 39.176 192.708 38.978 C 192.960 38.869,193.167 38.717,193.167 38.640 C 193.167 38.450,193.144 38.459,192.667 38.842 M201.840 39.007 C 201.522 39.278,201.339 39.500,201.433 39.500 C 201.527 39.500,201.820 39.275,202.083 39.000 C 202.690 38.367,202.585 38.370,201.840 39.007 M155.007 38.975 C 154.998 39.264,156.063 40.334,156.358 40.333 C 156.482 40.332,156.344 40.186,156.051 40.008 C 155.759 39.829,155.406 39.473,155.266 39.217 C 155.127 38.960,155.010 38.851,155.007 38.975 M173.500 39.000 C 173.157 39.110,173.142 39.136,173.417 39.148 C 173.600 39.155,173.862 39.089,174.000 39.000 C 174.292 38.811,174.089 38.811,173.500 39.000 M210.833 39.000 C 210.490 39.110,210.475 39.136,210.750 39.148 C 210.933 39.155,211.196 39.089,211.333 39.000 C 211.625 38.811,211.423 38.811,210.833 39.000 M188.243 39.178 C 188.088 39.429,188.671 39.826,189.167 39.805 L 189.583 39.788 189.167 39.711 C 188.659 39.618,188.305 39.348,188.428 39.148 C 188.479 39.067,188.482 39.000,188.436 39.000 C 188.391 39.000,188.304 39.080,188.243 39.178 M190.583 39.667 L 190.083 39.794 190.615 39.814 C 190.908 39.824,191.193 39.758,191.250 39.667 C 191.364 39.482,191.308 39.482,190.583 39.667 M152.099 40.000 C 152.390 41.091,154.654 43.068,155.101 42.621 C 155.141 42.581,154.849 42.424,154.451 42.272 C 153.616 41.953,152.822 41.194,152.331 40.246 C 152.137 39.870,152.036 39.764,152.099 40.000 M160.915 41.003 C 160.857 41.097,160.421 41.396,159.946 41.669 C 159.472 41.941,159.162 42.164,159.259 42.165 C 159.486 42.167,160.925 41.256,161.073 41.016 C 161.135 40.916,161.149 40.833,161.103 40.833 C 161.057 40.833,160.972 40.910,160.915 41.003 M157.917 42.500 C 157.707 42.590,157.676 42.643,157.833 42.643 C 157.971 42.643,158.233 42.579,158.417 42.500 C 158.627 42.410,158.658 42.357,158.500 42.357 C 158.362 42.357,158.100 42.421,157.917 42.500 M156.044 42.786 C 156.297 42.825,156.672 42.824,156.877 42.784 C 157.082 42.744,156.875 42.713,156.417 42.714 C 155.958 42.716,155.791 42.748,156.044 42.786 M124.347 44.893 C 124.385 44.925,124.679 45.000,125.000 45.059 C 125.410 45.134,125.509 45.118,125.333 45.002 C 125.107 44.854,124.182 44.751,124.347 44.893 M253.246 45.007 C 253.176 45.120,253.301 45.141,253.611 45.067 C 254.250 44.913,254.310 44.833,253.788 44.833 C 253.549 44.833,253.305 44.911,253.246 45.007 M256.417 45.000 C 256.875 45.197,257.039 45.197,256.917 45.000 C 256.860 44.908,256.649 44.839,256.448 44.845 C 256.096 44.856,256.095 44.862,256.417 45.000 M127.041 45.920 C 127.381 46.151,127.849 46.619,128.080 46.959 C 128.311 47.299,128.500 47.481,128.500 47.364 C 128.500 47.086,126.914 45.500,126.636 45.500 C 126.519 45.500,126.701 45.689,127.041 45.920 M220.167 45.662 C 219.938 45.734,220.463 45.753,221.333 45.706 C 222.204 45.659,222.948 45.594,222.986 45.560 C 223.121 45.443,220.578 45.535,220.167 45.662 M224.667 45.593 C 225.245 45.717,227.720 45.772,227.416 45.653 C 227.233 45.582,226.483 45.527,225.750 45.531 C 225.017 45.535,224.529 45.563,224.667 45.593 M258.617 46.126 C 259.002 46.506,259.467 47.102,259.651 47.450 C 259.835 47.798,259.989 48.004,259.993 47.908 C 260.007 47.557,259.026 46.208,258.478 45.827 C 257.969 45.472,257.982 45.500,258.617 46.126 M119.553 46.375 C 118.997 46.963,118.591 47.646,118.721 47.777 C 118.766 47.822,118.855 47.695,118.919 47.494 C 118.982 47.294,119.298 46.838,119.620 46.482 C 120.328 45.698,120.274 45.613,119.553 46.375 M217.167 46.006 C 216.898 46.095,217.075 46.111,217.667 46.050 C 218.171 45.998,218.615 45.928,218.653 45.894 C 218.786 45.777,217.580 45.868,217.167 46.006 M143.167 46.331 C 142.996 46.440,143.129 46.458,143.583 46.388 C 144.407 46.262,144.547 46.166,143.903 46.169 C 143.635 46.171,143.304 46.243,143.167 46.331 M145.305 46.313 C 145.465 46.414,145.348 46.528,144.889 46.718 C 144.537 46.864,144.341 46.987,144.453 46.991 C 144.564 46.996,144.917 46.875,145.237 46.723 C 145.823 46.443,145.888 46.164,145.365 46.169 C 145.147 46.171,145.134 46.204,145.305 46.313 M214.917 46.333 L 214.583 46.477 214.917 46.472 C 215.100 46.469,215.438 46.407,215.667 46.333 L 216.083 46.200 215.667 46.195 C 215.438 46.192,215.100 46.255,214.917 46.333 M232.833 46.327 C 232.833 46.536,233.497 46.892,233.632 46.757 C 233.689 46.700,233.564 46.609,233.354 46.554 C 233.068 46.479,233.028 46.418,233.194 46.313 C 233.365 46.205,233.348 46.171,233.125 46.169 C 232.965 46.168,232.833 46.239,232.833 46.327 M234.347 46.226 C 234.385 46.259,234.679 46.334,235.000 46.392 C 235.410 46.468,235.509 46.451,235.333 46.336 C 235.107 46.188,234.182 46.085,234.347 46.226 M123.294 46.618 C 123.501 46.658,123.801 46.656,123.960 46.615 C 124.120 46.573,123.950 46.540,123.583 46.542 C 123.217 46.544,123.086 46.578,123.294 46.618 M141.917 46.667 C 141.707 46.757,141.676 46.810,141.833 46.810 C 141.971 46.810,142.233 46.745,142.417 46.667 C 142.627 46.576,142.658 46.523,142.500 46.523 C 142.362 46.523,142.100 46.588,141.917 46.667 M213.000 46.667 C 212.440 46.846,213.045 46.846,213.750 46.667 C 214.199 46.552,214.208 46.539,213.833 46.536 C 213.604 46.535,213.229 46.593,213.000 46.667 M254.794 46.618 C 255.001 46.658,255.301 46.656,255.460 46.615 C 255.620 46.573,255.450 46.540,255.083 46.542 C 254.717 46.544,254.586 46.578,254.794 46.618 M122.042 46.839 C 121.484 47.063,121.588 47.177,122.167 46.975 C 122.442 46.879,122.667 46.771,122.667 46.734 C 122.667 46.635,122.464 46.669,122.042 46.839 M256.292 46.875 C 257.495 47.260,258.084 48.013,258.077 49.154 C 258.073 49.909,258.109 50.079,258.216 49.798 C 258.683 48.564,257.260 46.586,255.975 46.684 C 255.851 46.693,255.994 46.779,256.292 46.875 M124.847 46.882 C 124.885 46.908,125.217 47.139,125.583 47.394 L 126.250 47.857 125.673 47.345 C 125.356 47.064,125.024 46.833,124.937 46.833 C 124.849 46.833,124.809 46.855,124.847 46.882 M211.417 47.000 C 211.207 47.090,211.176 47.143,211.333 47.143 C 211.471 47.143,211.733 47.079,211.917 47.000 C 212.127 46.910,212.158 46.857,212.000 46.857 C 211.862 46.857,211.600 46.921,211.417 47.000 M234.261 47.069 C 235.102 47.435,235.636 47.525,234.917 47.179 C 234.550 47.002,234.137 46.855,234.000 46.852 C 233.862 46.849,233.980 46.946,234.261 47.069 M120.977 47.494 C 120.760 47.675,120.643 47.825,120.715 47.828 C 120.788 47.831,121.008 47.683,121.205 47.500 C 121.666 47.070,121.491 47.066,120.977 47.494 M146.875 47.282 C 147.035 47.323,147.298 47.323,147.458 47.282 C 147.619 47.240,147.487 47.205,147.167 47.205 C 146.846 47.205,146.715 47.240,146.875 47.282 M209.833 47.333 C 209.498 47.441,209.482 47.468,209.750 47.472 C 209.933 47.474,210.233 47.412,210.417 47.333 C 210.841 47.151,210.403 47.151,209.833 47.333 M231.667 47.218 C 231.667 47.257,231.985 47.499,232.375 47.756 C 232.765 48.013,232.995 48.117,232.888 47.987 C 232.681 47.736,231.667 47.098,231.667 47.218 M252.522 47.590 C 251.973 48.053,251.242 49.131,251.383 49.272 C 251.432 49.321,251.600 49.089,251.757 48.758 C 251.915 48.426,252.313 47.933,252.643 47.661 C 252.973 47.389,253.194 47.167,253.134 47.167 C 253.074 47.167,252.799 47.357,252.522 47.590 M145.627 47.451 C 145.834 47.491,146.134 47.490,146.294 47.448 C 146.453 47.406,146.283 47.374,145.917 47.375 C 145.550 47.377,145.420 47.411,145.627 47.451 M148.127 47.451 C 148.334 47.491,148.634 47.490,148.794 47.448 C 148.953 47.406,148.783 47.374,148.417 47.375 C 148.050 47.377,147.920 47.411,148.127 47.451 M208.500 47.667 C 208.157 47.777,208.142 47.803,208.417 47.814 C 208.600 47.822,208.862 47.756,209.000 47.667 C 209.292 47.478,209.089 47.478,208.500 47.667 M219.833 47.650 C 219.421 47.705,220.764 47.750,222.819 47.750 C 224.873 47.750,226.336 47.703,226.069 47.645 C 225.458 47.512,220.837 47.516,219.833 47.650 M150.333 47.889 C 150.333 47.932,150.575 48.052,150.871 48.155 C 151.167 48.258,151.336 48.274,151.246 48.190 C 151.056 48.012,150.333 47.774,150.333 47.889 M207.167 48.000 C 206.832 48.107,206.815 48.134,207.083 48.138 C 207.267 48.141,207.567 48.079,207.750 48.000 C 208.175 47.817,207.737 47.817,207.167 48.000 M216.917 48.000 C 216.224 48.176,216.906 48.184,217.750 48.010 C 218.311 47.894,218.337 47.872,217.917 47.872 C 217.642 47.873,217.192 47.930,216.917 48.000 M227.014 47.895 C 227.052 47.928,227.383 48.001,227.750 48.057 C 228.215 48.128,228.316 48.113,228.083 48.008 C 227.763 47.863,226.871 47.768,227.014 47.895 M249.881 48.583 C 249.882 49.042,249.915 49.209,249.953 48.956 C 249.991 48.703,249.990 48.328,249.951 48.123 C 249.911 47.918,249.880 48.125,249.881 48.583 M118.437 48.256 C 118.380 48.405,118.340 48.690,118.348 48.889 C 118.359 49.145,118.410 49.087,118.525 48.690 C 118.691 48.113,118.622 47.774,118.437 48.256 M240.500 48.250 C 240.729 48.381,240.992 48.488,241.083 48.488 C 241.175 48.488,241.063 48.381,240.833 48.250 C 240.604 48.119,240.342 48.012,240.250 48.012 C 240.158 48.012,240.271 48.119,240.500 48.250 M128.687 48.417 C 128.673 48.600,128.624 48.938,128.576 49.167 L 128.491 49.583 128.669 49.174 C 128.767 48.950,128.817 48.612,128.780 48.424 C 128.714 48.092,128.711 48.092,128.687 48.417 M143.000 48.552 C 142.771 48.759,142.474 49.075,142.341 49.255 C 142.208 49.436,142.414 49.287,142.800 48.925 C 143.431 48.330,143.584 48.156,143.458 48.172 C 143.435 48.175,143.229 48.346,143.000 48.552 M206.000 48.333 C 205.657 48.443,205.642 48.469,205.917 48.481 C 206.100 48.489,206.362 48.422,206.500 48.333 C 206.792 48.145,206.589 48.145,206.000 48.333 M214.917 48.333 C 214.492 48.516,214.930 48.516,215.500 48.333 C 215.835 48.226,215.851 48.199,215.583 48.195 C 215.400 48.192,215.100 48.255,214.917 48.333 M260.120 49.083 C 260.171 49.633,260.240 50.115,260.273 50.153 C 260.390 50.287,260.298 48.912,260.164 48.500 C 260.079 48.241,260.062 48.462,260.120 49.083 M151.838 48.609 C 152.065 48.760,152.479 49.079,152.760 49.317 C 153.040 49.555,152.939 49.431,152.535 49.042 C 152.131 48.652,151.717 48.333,151.613 48.333 C 151.510 48.333,151.611 48.457,151.838 48.609 M213.333 48.667 C 212.998 48.774,212.982 48.801,213.250 48.805 C 213.433 48.808,213.733 48.745,213.917 48.667 C 214.341 48.484,213.903 48.484,213.333 48.667 M136.292 48.929 C 135.645 49.279,135.719 49.400,136.375 49.066 C 137.003 48.747,137.114 48.664,136.903 48.673 C 136.819 48.677,136.544 48.792,136.292 48.929 M234.086 49.380 C 234.247 49.635,234.420 49.802,234.472 49.751 C 234.523 49.699,234.391 49.491,234.179 49.287 L 233.793 48.917 234.086 49.380 M184.292 49.289 C 184.681 49.324,185.319 49.324,185.708 49.289 C 186.098 49.254,185.779 49.225,185.000 49.225 C 184.221 49.225,183.902 49.254,184.292 49.289 M187.458 49.287 C 187.756 49.324,188.244 49.324,188.542 49.287 C 188.840 49.250,188.596 49.220,188.000 49.220 C 187.404 49.220,187.160 49.250,187.458 49.287 M180.667 49.497 C 180.432 49.570,180.795 49.589,181.500 49.540 C 182.188 49.493,182.781 49.427,182.819 49.394 C 182.953 49.278,181.080 49.368,180.667 49.497 M190.250 49.482 L 191.250 49.567 190.167 49.671 L 189.083 49.776 190.250 49.802 C 191.558 49.831,192.201 49.615,191.326 49.440 C 191.032 49.381,190.445 49.348,190.021 49.365 C 189.298 49.394,189.312 49.402,190.250 49.482 M223.067 49.526 C 222.989 49.653,223.022 49.673,223.166 49.584 C 223.303 49.499,223.467 49.563,223.609 49.756 C 223.732 49.925,223.833 49.989,223.833 49.899 C 223.833 49.477,223.268 49.202,223.067 49.526 M243.167 49.508 C 243.745 49.901,244.074 50.015,243.667 49.682 C 243.438 49.494,243.175 49.340,243.083 49.340 C 242.992 49.339,243.029 49.415,243.167 49.508 M240.333 49.575 C 240.333 49.621,240.558 49.774,240.833 49.917 C 241.108 50.059,241.333 50.138,241.333 50.092 C 241.333 50.046,241.108 49.892,240.833 49.750 C 240.558 49.608,240.333 49.529,240.333 49.575 M250.007 49.550 C 249.996 49.748,250.503 50.707,250.792 51.038 C 251.157 51.453,251.337 51.248,251.310 50.448 L 251.286 49.750 251.185 50.371 C 251.064 51.106,250.862 51.035,250.364 50.083 C 250.172 49.717,250.011 49.477,250.007 49.550 M127.995 50.460 L 127.584 51.235 127.478 50.743 L 127.373 50.250 127.353 50.698 C 127.321 51.437,127.620 51.389,128.094 50.580 C 128.340 50.161,128.510 49.788,128.474 49.751 C 128.437 49.715,128.222 50.033,127.995 50.460 M134.333 50.015 C 134.057 50.241,134.029 50.298,134.250 50.183 C 134.794 49.902,135.095 49.672,134.917 49.673 C 134.825 49.674,134.563 49.827,134.333 50.015 M147.792 49.784 C 147.998 49.824,148.335 49.824,148.542 49.784 C 148.748 49.745,148.579 49.712,148.167 49.712 C 147.754 49.712,147.585 49.745,147.792 49.784 M178.417 49.835 C 178.202 49.927,178.381 49.945,178.917 49.883 C 179.375 49.830,179.781 49.759,179.819 49.727 C 179.964 49.602,178.735 49.697,178.417 49.835 M137.083 50.167 C 136.808 50.349,136.658 50.497,136.750 50.495 C 136.917 50.493,137.823 49.843,137.667 49.838 C 137.621 49.837,137.358 49.985,137.083 50.167 M185.917 50.000 L 185.250 50.119 185.833 50.123 C 186.154 50.125,186.642 50.070,186.917 50.000 C 187.595 49.827,186.880 49.827,185.917 50.000 M222.771 50.090 C 222.713 50.239,222.678 50.748,222.692 51.222 L 222.717 52.083 222.828 51.000 C 222.946 49.841,222.935 49.661,222.771 50.090 M118.362 50.250 C 118.359 50.433,118.421 50.733,118.500 50.917 C 118.683 51.341,118.683 50.903,118.500 50.333 C 118.393 49.998,118.366 49.982,118.362 50.250 M176.583 50.174 C 176.351 50.280,176.452 50.295,176.917 50.224 C 177.283 50.168,177.615 50.095,177.653 50.061 C 177.796 49.935,176.903 50.029,176.583 50.174 M184.000 50.333 L 183.583 50.467 184.000 50.481 C 184.229 50.489,184.529 50.422,184.667 50.333 C 184.985 50.128,184.642 50.128,184.000 50.333 M175.000 50.508 C 174.817 50.631,174.885 50.647,175.250 50.565 C 175.863 50.428,175.996 50.332,175.569 50.336 C 175.394 50.337,175.137 50.415,175.000 50.508 M144.565 50.922 C 144.413 51.154,144.318 51.374,144.356 51.411 C 144.393 51.448,144.549 51.258,144.704 50.989 C 145.048 50.390,144.946 50.340,144.565 50.922 M182.417 50.667 C 181.955 50.784,181.949 50.795,182.333 50.811 C 182.563 50.821,182.862 50.756,183.000 50.667 C 183.284 50.483,183.137 50.483,182.417 50.667 M206.833 50.667 C 206.490 50.777,206.475 50.803,206.750 50.814 C 206.933 50.822,207.196 50.756,207.333 50.667 C 207.625 50.478,207.423 50.478,206.833 50.667 M242.000 50.541 C 242.000 50.646,243.794 51.833,243.953 51.833 C 244.068 51.833,243.580 51.482,242.458 50.758 C 242.206 50.595,242.000 50.497,242.000 50.541 M141.539 51.167 C 141.539 51.487,141.573 51.619,141.615 51.458 C 141.657 51.298,141.657 51.035,141.615 50.875 C 141.573 50.715,141.539 50.846,141.539 51.167 M153.750 51.584 C 153.750 52.070,153.806 52.433,153.875 52.391 C 153.944 52.348,154.000 51.985,154.000 51.583 C 154.000 51.182,153.944 50.819,153.875 50.776 C 153.806 50.734,153.750 51.098,153.750 51.584 M173.500 50.841 C 173.317 50.964,173.385 50.980,173.750 50.898 C 174.363 50.761,174.496 50.666,174.069 50.669 C 173.894 50.671,173.637 50.748,173.500 50.841 M245.333 50.741 C 245.333 50.787,245.558 50.941,245.833 51.083 C 246.108 51.226,246.333 51.304,246.333 51.259 C 246.333 51.213,246.108 51.059,245.833 50.917 C 245.558 50.774,245.333 50.696,245.333 50.741 M181.167 51.000 C 180.823 51.110,180.809 51.136,181.083 51.148 C 181.267 51.155,181.529 51.089,181.667 51.000 C 181.959 50.811,181.756 50.811,181.167 51.000 M205.667 51.000 C 205.323 51.110,205.309 51.136,205.583 51.148 C 205.767 51.155,206.029 51.089,206.167 51.000 C 206.459 50.811,206.256 50.811,205.667 51.000 M224.297 51.085 C 224.392 51.270,224.645 51.569,224.860 51.751 C 225.236 52.069,225.235 52.063,224.836 51.582 C 224.172 50.783,224.116 50.731,224.297 51.085 M257.329 51.130 C 256.643 51.960,256.558 52.109,256.977 51.752 C 257.321 51.457,257.762 50.833,257.626 50.833 C 257.598 50.833,257.464 50.967,257.329 51.130 M121.583 51.667 C 121.941 52.033,122.272 52.333,122.318 52.333 C 122.363 52.333,122.108 52.033,121.750 51.667 C 121.392 51.300,121.062 51.000,121.016 51.000 C 120.970 51.000,121.225 51.300,121.583 51.667 M152.106 51.583 C 152.361 51.950,152.592 52.281,152.618 52.319 C 152.645 52.358,152.667 52.317,152.667 52.230 C 152.667 52.142,152.436 51.811,152.155 51.494 L 151.643 50.917 152.106 51.583 M172.250 51.167 C 172.128 51.364,172.291 51.364,172.750 51.167 C 173.071 51.029,173.070 51.023,172.718 51.012 C 172.517 51.005,172.307 51.075,172.250 51.167 M179.833 51.333 C 179.490 51.443,179.475 51.469,179.750 51.481 C 179.933 51.489,180.196 51.422,180.333 51.333 C 180.625 51.145,180.423 51.145,179.833 51.333 M204.500 51.333 C 204.157 51.443,204.142 51.469,204.417 51.481 C 204.600 51.489,204.862 51.422,205.000 51.333 C 205.292 51.145,205.089 51.145,204.500 51.333 M134.123 51.982 C 133.108 52.578,132.883 52.810,133.750 52.367 C 134.394 52.038,135.171 51.507,135.000 51.514 C 134.954 51.515,134.560 51.726,134.123 51.982 M178.523 51.691 C 178.215 51.780,177.995 51.884,178.033 51.922 C 178.117 52.006,179.333 51.682,179.333 51.575 C 179.333 51.477,179.201 51.496,178.523 51.691 M144.334 51.953 C 144.333 52.226,145.294 53.304,145.731 53.520 C 145.925 53.615,145.831 53.488,145.523 53.237 C 145.215 52.986,144.821 52.548,144.649 52.265 C 144.476 51.982,144.334 51.841,144.334 51.953 M244.417 52.086 C 244.600 52.236,244.900 52.431,245.083 52.521 L 245.417 52.685 245.083 52.414 C 244.900 52.264,244.600 52.069,244.417 51.979 L 244.083 51.815 244.417 52.086 M176.533 52.290 C 176.138 52.426,175.845 52.567,175.881 52.603 C 175.917 52.639,176.389 52.523,176.931 52.345 C 177.473 52.167,177.767 52.026,177.583 52.032 C 177.400 52.037,176.927 52.153,176.533 52.290 M192.917 52.167 C 192.707 52.257,192.676 52.310,192.833 52.310 C 192.971 52.310,193.233 52.245,193.417 52.167 C 193.627 52.076,193.658 52.023,193.500 52.023 C 193.362 52.023,193.100 52.088,192.917 52.167 M225.643 52.323 C 225.860 52.512,226.116 52.667,226.213 52.667 C 226.418 52.667,226.408 52.658,225.750 52.273 L 225.250 51.980 225.643 52.323 M141.845 52.417 C 141.845 52.508,141.952 52.771,142.083 53.000 C 142.214 53.229,142.322 53.342,142.322 53.250 C 142.322 53.158,142.214 52.896,142.083 52.667 C 141.952 52.438,141.845 52.325,141.845 52.417 M167.667 52.500 C 167.444 52.644,167.444 52.662,167.667 52.662 C 167.804 52.662,168.029 52.589,168.167 52.500 C 168.389 52.356,168.389 52.338,168.167 52.338 C 168.029 52.338,167.804 52.411,167.667 52.500 M191.000 52.500 L 190.583 52.633 191.000 52.638 C 191.229 52.641,191.567 52.579,191.750 52.500 L 192.083 52.357 191.750 52.362 C 191.567 52.364,191.229 52.427,191.000 52.500 M199.417 52.504 C 199.194 52.603,199.333 52.619,199.833 52.553 C 200.246 52.498,200.615 52.427,200.653 52.393 C 200.798 52.268,199.735 52.363,199.417 52.504 M119.917 53.333 C 120.275 53.700,120.605 54.000,120.651 54.000 C 120.697 54.000,120.441 53.700,120.083 53.333 C 119.725 52.967,119.395 52.667,119.349 52.667 C 119.303 52.667,119.559 52.967,119.917 53.333 M184.333 52.814 C 184.333 52.916,184.516 53.000,184.740 53.000 C 184.964 53.000,185.193 53.075,185.250 53.167 C 185.307 53.258,185.578 53.333,185.853 53.333 C 186.144 53.333,186.310 53.264,186.250 53.167 C 186.185 53.062,186.571 52.995,187.282 52.988 C 187.906 52.981,188.754 52.910,189.167 52.830 C 189.839 52.700,189.804 52.692,188.833 52.757 C 187.128 52.871,185.292 52.863,184.792 52.740 C 184.498 52.668,184.333 52.695,184.333 52.814 M197.333 52.842 C 197.052 52.937,197.188 52.952,197.750 52.887 C 198.208 52.834,198.615 52.763,198.653 52.729 C 198.784 52.612,197.750 52.700,197.333 52.842 M226.966 52.863 C 227.324 53.006,229.289 53.003,229.802 52.858 C 230.014 52.799,229.399 52.750,228.434 52.750 C 227.470 52.750,226.809 52.801,226.966 52.863 M245.917 53.000 C 246.192 53.182,246.492 53.331,246.583 53.332 C 246.675 53.332,246.504 53.182,246.204 52.999 C 245.497 52.568,245.265 52.568,245.917 53.000 M152.836 52.948 C 152.831 53.309,153.194 53.378,153.474 53.071 C 153.734 52.786,153.732 52.782,153.446 52.998 C 153.186 53.195,153.119 53.194,152.990 52.989 C 152.895 52.839,152.837 52.824,152.836 52.948 M124.250 53.167 C 124.433 53.245,124.733 53.308,124.917 53.305 C 125.185 53.301,125.168 53.274,124.833 53.167 C 124.263 52.984,123.825 52.984,124.250 53.167 M127.667 53.167 C 127.332 53.274,127.315 53.301,127.583 53.305 C 127.767 53.308,128.067 53.245,128.250 53.167 C 128.675 52.984,128.237 52.984,127.667 53.167 M194.833 53.167 C 194.000 53.342,194.855 53.349,195.833 53.175 C 196.510 53.055,196.526 53.042,196.000 53.043 C 195.679 53.043,195.154 53.099,194.833 53.167 M223.583 53.307 C 223.764 53.522,224.064 53.775,224.248 53.869 C 224.602 54.050,224.551 53.995,223.751 53.331 C 223.270 52.931,223.264 52.930,223.583 53.307 M250.333 53.159 C 250.471 53.252,250.727 53.329,250.903 53.331 C 251.329 53.334,251.196 53.239,250.583 53.102 C 250.218 53.020,250.151 53.036,250.333 53.159 M172.833 53.500 C 172.611 53.644,172.611 53.662,172.833 53.662 C 172.971 53.662,173.196 53.589,173.333 53.500 C 173.556 53.356,173.556 53.338,173.333 53.338 C 173.196 53.338,172.971 53.411,172.833 53.500 M188.958 53.457 C 189.623 53.489,190.710 53.489,191.375 53.457 C 192.040 53.425,191.496 53.400,190.167 53.400 C 188.838 53.400,188.294 53.425,188.958 53.457 M143.000 54.083 C 143.311 54.404,143.603 54.667,143.649 54.667 C 143.695 54.667,143.478 54.404,143.167 54.083 C 142.856 53.762,142.564 53.500,142.518 53.500 C 142.472 53.500,142.689 53.762,143.000 54.083 M163.417 53.833 C 162.955 53.951,162.949 53.962,163.333 53.978 C 163.563 53.987,163.862 53.922,164.000 53.833 C 164.284 53.650,164.137 53.650,163.417 53.833 M171.833 53.833 C 171.611 53.977,171.611 53.995,171.833 53.995 C 171.971 53.995,172.196 53.922,172.333 53.833 C 172.556 53.690,172.556 53.672,172.333 53.672 C 172.196 53.672,171.971 53.744,171.833 53.833 M161.000 54.333 C 160.440 54.513,161.045 54.513,161.750 54.333 C 162.199 54.219,162.208 54.206,161.833 54.203 C 161.604 54.201,161.229 54.260,161.000 54.333 M147.833 54.481 C 147.971 54.560,148.383 54.670,148.750 54.726 C 149.170 54.790,149.294 54.777,149.083 54.689 C 148.596 54.486,147.531 54.309,147.833 54.481 M158.833 54.670 C 158.574 54.755,158.795 54.771,159.417 54.713 C 159.967 54.662,160.448 54.593,160.486 54.560 C 160.621 54.444,159.245 54.535,158.833 54.670 M127.417 54.833 L 127.083 54.977 127.417 54.986 C 127.600 54.991,127.862 54.922,128.000 54.833 C 128.331 54.619,127.915 54.619,127.417 54.833 M250.667 54.826 C 250.804 54.919,251.060 54.996,251.236 54.997 C 251.663 55.001,251.529 54.905,250.917 54.768 C 250.552 54.687,250.484 54.702,250.667 54.826 M150.500 55.001 C 151.447 55.138,153.609 55.214,153.486 55.106 C 153.448 55.072,152.554 55.005,151.500 54.957 C 150.227 54.898,149.891 54.913,150.500 55.001 M155.000 55.000 L 153.917 55.109 154.833 55.117 C 155.337 55.122,156.275 55.071,156.917 55.006 L 158.083 54.886 157.083 54.888 C 156.533 54.890,155.596 54.940,155.000 55.000 M124.111 55.224 C 124.523 55.314,125.131 55.314,125.611 55.224 C 126.350 55.086,126.293 55.073,124.917 55.074 C 123.623 55.074,123.512 55.095,124.111 55.224 M166.833 55.167 C 166.490 55.277,166.475 55.303,166.750 55.314 C 166.933 55.322,167.196 55.256,167.333 55.167 C 167.625 54.978,167.423 54.978,166.833 55.167 M227.250 55.162 C 227.568 55.303,228.631 55.399,228.486 55.273 C 228.448 55.240,228.079 55.168,227.667 55.114 C 227.166 55.048,227.027 55.064,227.250 55.162 M230.917 55.167 C 230.455 55.284,230.449 55.295,230.833 55.311 C 231.063 55.321,231.362 55.256,231.500 55.167 C 231.784 54.983,231.637 54.983,230.917 55.167 M252.875 55.223 C 253.332 55.307,254.002 55.307,254.458 55.223 C 255.159 55.093,255.068 55.076,253.667 55.076 C 252.266 55.076,252.175 55.093,252.875 55.223 M144.833 55.415 C 144.833 55.529,145.854 56.035,145.930 55.959 C 145.966 55.923,145.734 55.768,145.415 55.616 C 145.095 55.463,144.833 55.373,144.833 55.415 M165.417 55.500 C 164.955 55.617,164.949 55.629,165.333 55.644 C 165.563 55.654,165.862 55.589,166.000 55.500 C 166.284 55.317,166.137 55.317,165.417 55.500 M163.750 55.833 C 163.296 55.949,163.289 55.961,163.667 55.969 C 163.896 55.973,164.233 55.912,164.417 55.833 C 164.828 55.657,164.444 55.657,163.750 55.833 M162.000 56.167 C 161.423 56.288,161.422 56.290,161.917 56.309 C 162.192 56.320,162.529 56.256,162.667 56.167 C 162.944 55.987,162.852 55.987,162.000 56.167 M159.292 56.618 C 159.498 56.657,159.835 56.657,160.042 56.618 C 160.248 56.578,160.079 56.545,159.667 56.545 C 159.254 56.545,159.085 56.578,159.292 56.618 M148.708 56.948 C 148.869 56.990,149.131 56.990,149.292 56.948 C 149.452 56.906,149.321 56.872,149.000 56.872 C 148.679 56.872,148.548 56.906,148.708 56.948 M156.461 56.954 C 156.761 56.991,157.211 56.990,157.461 56.952 C 157.712 56.914,157.467 56.884,156.917 56.885 C 156.367 56.886,156.162 56.917,156.461 56.954 M150.042 57.119 C 150.294 57.158,150.706 57.158,150.958 57.119 C 151.210 57.081,151.004 57.050,150.500 57.050 C 149.996 57.050,149.790 57.081,150.042 57.119 M153.958 57.121 C 154.256 57.158,154.744 57.158,155.042 57.121 C 155.340 57.084,155.096 57.053,154.500 57.053 C 153.904 57.053,153.660 57.084,153.958 57.121 " stroke="none" fill="#e6ae9d" fill-rule="evenodd"></path><path id="path3" d="M206.479 16.125 C 206.272 16.389,206.278 16.395,206.540 16.190 C 206.699 16.065,206.946 16.008,207.090 16.063 C 207.240 16.120,207.307 16.093,207.249 15.998 C 207.091 15.743,206.731 15.803,206.479 16.125 M192.880 17.542 C 192.596 17.909,192.465 18.262,192.738 17.927 C 192.882 17.749,193.094 17.544,193.208 17.471 C 193.345 17.384,193.352 17.338,193.229 17.336 C 193.125 17.334,192.968 17.427,192.880 17.542 M204.575 19.684 C 204.247 20.335,204.006 20.895,204.039 20.928 C 204.072 20.961,204.376 20.428,204.715 19.744 C 205.054 19.060,205.295 18.500,205.251 18.500 C 205.207 18.500,204.903 19.033,204.575 19.684 M176.233 20.603 C 176.233 21.105,176.260 21.152,176.385 20.873 C 176.475 20.670,176.475 20.426,176.385 20.264 C 176.272 20.064,176.233 20.151,176.233 20.603 M166.708 20.458 C 168.060 20.486,170.273 20.486,171.625 20.458 C 172.977 20.430,171.871 20.407,169.167 20.407 C 166.462 20.407,165.356 20.430,166.708 20.458 M173.917 22.167 C 173.455 22.284,173.449 22.295,173.833 22.311 C 174.063 22.321,174.362 22.256,174.500 22.167 C 174.784 21.983,174.637 21.983,173.917 22.167 M166.083 22.455 C 169.221 22.516,169.187 22.502,168.346 23.360 C 167.973 23.741,167.667 24.113,167.667 24.186 C 167.667 24.259,168.011 23.951,168.432 23.501 C 169.493 22.367,169.419 22.327,166.282 22.370 L 163.583 22.407 166.083 22.455 M161.877 22.620 C 162.131 22.658,162.506 22.657,162.711 22.617 C 162.916 22.578,162.708 22.546,162.250 22.548 C 161.792 22.549,161.624 22.581,161.877 22.620 M171.208 22.615 C 171.369 22.657,171.631 22.657,171.792 22.615 C 171.952 22.573,171.821 22.539,171.500 22.539 C 171.179 22.539,171.048 22.573,171.208 22.615 M169.242 25.015 C 169.095 25.299,169.005 25.561,169.041 25.597 C 169.077 25.633,169.232 25.401,169.384 25.081 C 169.727 24.362,169.608 24.308,169.242 25.015 M164.023 26.134 C 164.233 26.489,164.206 26.556,163.667 27.025 L 163.083 27.532 163.638 27.162 C 164.335 26.697,164.459 26.384,164.087 26.029 C 163.812 25.765,163.808 25.771,164.023 26.134 M156.833 27.274 C 156.833 27.364,157.077 27.658,157.375 27.927 L 157.917 28.417 157.417 27.834 C 157.142 27.514,156.898 27.220,156.875 27.181 C 156.852 27.143,156.833 27.185,156.833 27.274 M222.083 27.682 C 221.804 27.813,221.822 27.825,222.197 27.752 C 222.530 27.688,222.661 27.741,222.713 27.958 C 222.770 28.196,222.780 28.191,222.766 27.930 C 222.747 27.546,222.534 27.469,222.083 27.682 M179.083 28.000 C 178.873 28.090,178.842 28.143,179.000 28.143 C 179.137 28.143,179.400 28.079,179.583 28.000 C 179.793 27.910,179.824 27.857,179.667 27.857 C 179.529 27.857,179.267 27.921,179.083 28.000 M181.023 28.208 C 181.007 28.524,180.909 28.667,180.708 28.669 C 180.548 28.671,180.304 28.748,180.167 28.841 C 179.984 28.965,180.051 28.981,180.417 28.900 C 181.080 28.754,181.209 28.615,181.120 28.144 C 181.052 27.782,181.044 27.788,181.023 28.208 M216.907 28.132 C 216.994 28.258,217.116 28.674,217.178 29.056 L 217.292 29.750 217.312 29.143 C 217.325 28.774,217.219 28.413,217.042 28.219 C 216.881 28.044,216.821 28.005,216.907 28.132 M160.667 28.508 C 160.484 28.631,160.552 28.647,160.917 28.565 C 161.529 28.428,161.663 28.332,161.236 28.336 C 161.060 28.337,160.804 28.415,160.667 28.508 M194.544 28.453 C 194.797 28.491,195.172 28.490,195.377 28.451 C 195.582 28.411,195.375 28.380,194.917 28.381 C 194.458 28.382,194.291 28.415,194.544 28.453 M221.053 29.333 C 221.053 29.929,221.084 30.173,221.121 29.875 C 221.158 29.577,221.158 29.090,221.121 28.792 C 221.084 28.494,221.053 28.738,221.053 29.333 M159.208 28.782 C 159.369 28.823,159.631 28.823,159.792 28.782 C 159.952 28.740,159.821 28.705,159.500 28.705 C 159.179 28.705,159.048 28.740,159.208 28.782 M222.539 29.167 C 222.539 29.488,222.573 29.619,222.615 29.458 C 222.657 29.298,222.657 29.035,222.615 28.875 C 222.573 28.715,222.539 28.846,222.539 29.167 M167.579 29.346 C 167.415 29.863,167.545 29.909,169.388 30.000 L 171.083 30.083 171.083 30.693 C 171.083 31.028,171.140 31.267,171.208 31.224 C 171.277 31.182,171.333 30.890,171.333 30.577 C 171.333 29.895,171.215 29.852,169.167 29.792 C 167.808 29.752,167.752 29.735,167.790 29.375 C 167.839 28.905,167.724 28.889,167.579 29.346 M210.069 29.595 L 209.417 30.191 210.125 29.651 C 210.772 29.157,210.930 29.000,210.778 29.000 C 210.747 29.000,210.428 29.268,210.069 29.595 M214.630 29.259 C 214.887 29.440,215.008 29.707,215.027 30.134 L 215.053 30.750 215.122 30.193 C 215.190 29.635,214.825 29.000,214.437 29.000 C 214.339 29.000,214.426 29.117,214.630 29.259 M165.082 29.539 C 164.945 29.852,164.746 29.933,163.917 30.014 L 162.917 30.111 163.849 30.139 C 164.791 30.167,165.461 29.800,165.308 29.340 C 165.275 29.242,165.174 29.331,165.082 29.539 M190.495 30.792 L 189.417 31.917 190.579 30.833 C 191.218 30.238,191.774 29.731,191.815 29.708 C 191.856 29.685,191.818 29.667,191.731 29.667 C 191.645 29.667,191.088 30.173,190.495 30.792 M173.810 30.542 C 173.491 30.840,173.385 30.964,173.574 30.818 C 173.762 30.672,174.102 30.428,174.329 30.276 C 174.555 30.124,174.662 30.000,174.565 30.000 C 174.468 30.000,174.128 30.244,173.810 30.542 M197.218 30.917 C 197.219 31.467,197.250 31.672,197.287 31.372 C 197.325 31.072,197.324 30.622,197.286 30.372 C 197.248 30.122,197.217 30.367,197.218 30.917 M223.573 30.945 C 223.316 31.282,223.191 31.504,223.295 31.440 C 223.509 31.308,224.230 30.333,224.114 30.333 C 224.073 30.333,223.830 30.609,223.573 30.945 M180.984 30.795 C 180.802 31.036,180.803 31.051,180.992 30.883 C 181.149 30.744,181.312 30.733,181.526 30.847 C 181.695 30.938,181.833 30.974,181.833 30.928 C 181.833 30.634,181.183 30.532,180.984 30.795 M193.681 30.708 C 193.719 30.731,193.975 30.938,194.250 31.167 L 194.750 31.583 194.346 31.125 C 194.124 30.873,193.867 30.667,193.777 30.667 C 193.686 30.667,193.642 30.685,193.681 30.708 M220.875 31.250 C 220.877 31.617,220.911 31.747,220.951 31.540 C 220.991 31.332,220.990 31.032,220.948 30.873 C 220.906 30.714,220.874 30.883,220.875 31.250 M214.428 31.458 C 214.067 31.919,214.039 31.996,214.318 31.752 C 214.652 31.460,215.093 30.833,214.964 30.833 C 214.938 30.833,214.697 31.115,214.428 31.458 M190.823 31.816 C 190.325 32.264,189.954 32.658,190.000 32.691 C 190.046 32.723,190.492 32.356,190.992 31.875 C 192.138 30.772,192.027 30.733,190.823 31.816 M174.336 31.914 C 174.026 32.234,173.805 32.521,173.845 32.552 C 173.884 32.583,174.169 32.322,174.478 31.971 C 175.179 31.174,175.088 31.138,174.336 31.914 M227.967 31.882 C 227.314 33.252,226.466 33.835,226.161 33.125 C 226.038 32.837,226.010 32.823,226.042 33.065 C 226.120 33.662,226.604 33.783,227.092 33.328 C 227.568 32.883,228.420 31.531,228.300 31.411 C 228.260 31.371,228.110 31.582,227.967 31.882 M179.948 32.347 C 179.689 32.706,179.512 33.000,179.553 33.000 C 179.668 33.000,180.541 31.819,180.475 31.753 C 180.443 31.721,180.206 31.988,179.948 32.347 M222.557 32.416 C 222.296 32.829,222.027 33.166,221.958 33.166 C 221.890 33.167,221.833 33.242,221.833 33.333 C 221.833 33.632,222.109 33.509,222.298 33.125 C 222.399 32.919,222.643 32.506,222.841 32.208 C 223.038 31.910,223.161 31.667,223.115 31.667 C 223.069 31.667,222.817 32.004,222.557 32.416 M171.845 32.455 C 171.564 32.796,171.333 33.151,171.333 33.242 C 171.333 33.333,171.458 33.222,171.609 32.995 C 171.761 32.769,172.037 32.415,172.222 32.208 C 172.407 32.002,172.513 31.833,172.458 31.833 C 172.403 31.833,172.127 32.113,171.845 32.455 M223.445 32.375 C 223.222 32.673,222.917 33.179,222.767 33.500 C 222.490 34.094,222.519 34.057,223.447 32.642 C 224.051 31.721,224.050 31.567,223.445 32.375 M155.955 32.423 C 155.613 32.655,155.333 32.881,155.333 32.925 C 155.333 32.969,155.633 32.806,156.000 32.564 C 156.582 32.178,156.779 32.000,156.622 32.000 C 156.597 32.000,156.297 32.190,155.955 32.423 M189.143 32.292 C 188.664 32.871,188.461 33.167,188.543 33.167 C 188.589 33.167,188.827 32.904,189.072 32.583 C 189.526 31.988,189.581 31.763,189.143 32.292 M196.937 32.423 C 196.880 32.572,196.840 32.819,196.848 32.972 C 196.856 33.125,196.928 33.029,197.009 32.758 C 197.166 32.232,197.110 31.972,196.937 32.423 M158.500 33.182 C 158.223 33.408,158.195 33.465,158.417 33.350 C 158.960 33.069,159.262 32.838,159.083 32.840 C 158.992 32.840,158.729 32.994,158.500 33.182 M179.143 33.458 C 178.664 34.037,178.461 34.333,178.543 34.333 C 178.589 34.333,178.827 34.071,179.072 33.750 C 179.526 33.155,179.581 32.930,179.143 33.458 M188.227 33.583 C 188.174 33.721,188.027 33.833,187.899 33.833 C 187.771 33.833,187.667 33.957,187.667 34.108 C 187.667 34.316,187.768 34.273,188.083 33.932 C 188.497 33.486,188.581 33.333,188.411 33.333 C 188.363 33.333,188.280 33.446,188.227 33.583 M153.834 34.083 C 153.619 34.311,153.475 34.527,153.513 34.561 C 153.552 34.595,153.758 34.408,153.971 34.145 C 154.448 33.556,154.364 33.518,153.834 34.083 M156.409 34.875 L 155.750 35.583 156.458 34.925 C 157.117 34.312,157.243 34.167,157.117 34.167 C 157.090 34.167,156.771 34.485,156.409 34.875 M206.429 34.595 C 206.367 34.839,206.349 35.071,206.389 35.111 C 206.428 35.150,206.510 34.982,206.571 34.738 C 206.633 34.494,206.651 34.262,206.611 34.223 C 206.572 34.183,206.490 34.351,206.429 34.595 M172.875 35.083 C 172.877 35.450,172.911 35.580,172.951 35.373 C 172.991 35.166,172.990 34.866,172.948 34.706 C 172.906 34.547,172.874 34.717,172.875 35.083 M195.285 35.935 C 194.937 36.429,194.687 36.833,194.729 36.833 C 194.846 36.833,196.048 35.159,195.978 35.094 C 195.944 35.063,195.632 35.441,195.285 35.935 M209.327 35.424 C 209.154 35.633,209.155 35.718,209.332 35.882 C 209.504 36.042,209.521 36.035,209.416 35.850 C 209.330 35.700,209.392 35.536,209.590 35.391 C 209.759 35.268,209.817 35.167,209.719 35.167 C 209.621 35.167,209.445 35.282,209.327 35.424 M162.583 35.833 C 162.441 36.108,162.362 36.333,162.408 36.333 C 162.454 36.333,162.608 36.108,162.750 35.833 C 162.892 35.558,162.971 35.333,162.925 35.333 C 162.879 35.333,162.726 35.558,162.583 35.833 M178.192 35.645 C 177.995 35.816,177.833 36.016,177.833 36.090 C 177.833 36.164,178.030 36.043,178.269 35.821 L 178.706 35.417 178.603 36.000 C 178.528 36.428,178.542 36.495,178.655 36.250 C 179.039 35.422,178.804 35.114,178.192 35.645 M170.178 36.514 C 170.185 36.919,170.253 37.400,170.329 37.583 C 170.413 37.785,170.432 37.520,170.378 36.917 C 170.269 35.713,170.162 35.497,170.178 36.514 M198.223 37.000 C 198.223 37.688,198.252 37.969,198.288 37.625 C 198.324 37.281,198.324 36.719,198.288 36.375 C 198.252 36.031,198.223 36.313,198.223 37.000 M185.095 36.429 C 185.034 36.673,185.016 36.905,185.055 36.944 C 185.094 36.983,185.177 36.816,185.238 36.571 C 185.299 36.327,185.317 36.095,185.278 36.056 C 185.239 36.017,185.157 36.184,185.095 36.429 M182.567 36.542 L 182.250 36.917 182.620 36.604 C 182.836 36.421,183.129 36.328,183.328 36.380 C 183.515 36.429,183.625 36.401,183.574 36.318 C 183.405 36.045,182.891 36.159,182.567 36.542 M192.491 36.958 L 191.917 37.583 192.542 37.009 C 193.123 36.474,193.243 36.333,193.116 36.333 C 193.088 36.333,192.807 36.615,192.491 36.958 M202.406 36.875 L 201.917 37.417 202.499 36.917 C 202.820 36.642,203.113 36.398,203.152 36.375 C 203.191 36.352,203.149 36.333,203.059 36.333 C 202.969 36.333,202.675 36.577,202.406 36.875 M161.675 37.321 C 161.385 37.772,161.040 38.231,160.908 38.341 C 160.775 38.451,160.667 38.617,160.667 38.711 C 160.667 38.908,161.633 37.717,162.061 36.994 C 162.539 36.184,162.243 36.434,161.675 37.321 M180.907 36.907 C 181.257 37.188,181.926 37.255,182.068 37.024 C 182.117 36.946,181.980 36.915,181.764 36.957 C 181.548 36.998,181.194 36.945,180.977 36.840 C 180.603 36.658,180.599 36.661,180.907 36.907 M154.937 37.090 C 154.880 37.239,154.840 37.486,154.848 37.639 C 154.856 37.792,154.928 37.695,155.009 37.425 C 155.166 36.899,155.110 36.639,154.937 37.090 M210.725 37.039 C 210.964 37.192,211.650 37.183,212.062 37.021 C 212.250 36.947,212.008 36.902,211.453 36.907 C 210.947 36.913,210.619 36.972,210.725 37.039 M193.991 37.625 L 193.417 38.250 194.042 37.676 C 194.623 37.141,194.743 37.000,194.616 37.000 C 194.588 37.000,194.307 37.281,193.991 37.625 M176.000 37.687 C 175.419 38.196,175.419 38.197,175.953 37.841 C 176.248 37.645,176.534 37.413,176.588 37.326 C 176.749 37.065,176.616 37.147,176.000 37.687 M206.797 37.585 C 206.892 37.770,207.145 38.069,207.360 38.251 C 207.736 38.569,207.735 38.563,207.336 38.082 C 206.672 37.283,206.616 37.231,206.797 37.585 M213.505 37.758 C 213.186 37.983,212.999 38.166,213.088 38.166 C 213.177 38.165,213.475 37.981,213.750 37.755 C 214.392 37.229,214.252 37.231,213.505 37.758 M182.000 38.333 C 181.771 38.513,181.471 38.667,181.333 38.676 C 181.173 38.687,181.155 38.722,181.284 38.774 C 181.394 38.819,181.768 38.663,182.114 38.428 C 182.461 38.193,182.670 38.002,182.580 38.004 C 182.490 38.006,182.229 38.154,182.000 38.333 M189.542 38.282 C 189.702 38.323,189.965 38.323,190.125 38.282 C 190.285 38.240,190.154 38.205,189.833 38.205 C 189.512 38.205,189.381 38.240,189.542 38.282 M212.000 38.500 C 211.588 38.673,211.335 38.819,211.438 38.824 C 211.674 38.836,212.833 38.357,212.833 38.248 C 212.833 38.145,212.880 38.131,212.000 38.500 M192.505 38.758 C 192.186 38.983,191.999 39.166,192.088 39.166 C 192.177 39.165,192.475 38.981,192.750 38.755 C 193.392 38.229,193.252 38.231,192.505 38.758 M188.514 38.974 C 188.342 39.295,188.558 39.672,188.908 39.662 C 189.005 39.659,188.952 39.580,188.791 39.486 C 188.561 39.352,188.535 39.246,188.671 38.991 C 188.767 38.813,188.808 38.667,188.762 38.667 C 188.716 38.667,188.604 38.805,188.514 38.974 M201.342 39.180 C 200.934 39.447,200.672 39.667,200.761 39.667 C 200.943 39.667,202.167 38.864,202.167 38.744 C 202.167 38.637,202.172 38.634,201.342 39.180 M162.077 39.875 L 161.250 40.750 162.125 39.923 C 162.938 39.154,163.076 39.000,162.952 39.000 C 162.926 39.000,162.532 39.394,162.077 39.875 M158.000 40.333 C 157.657 40.443,157.642 40.469,157.917 40.481 C 158.100 40.489,158.362 40.422,158.500 40.333 C 158.792 40.145,158.589 40.145,158.000 40.333 M160.434 41.178 C 160.076 41.447,159.854 41.667,159.940 41.667 C 160.026 41.667,160.356 41.445,160.673 41.173 C 161.411 40.542,161.276 40.545,160.434 41.178 M153.326 41.574 C 153.617 41.925,154.498 42.391,154.627 42.262 C 154.679 42.210,154.645 42.167,154.551 42.167 C 154.457 42.167,154.090 41.970,153.736 41.730 C 153.382 41.490,153.197 41.419,153.326 41.574 M155.131 42.530 C 155.288 42.592,155.867 42.643,156.417 42.643 C 156.967 42.643,157.545 42.592,157.702 42.530 C 157.859 42.468,157.281 42.417,156.417 42.417 C 155.553 42.417,154.974 42.468,155.131 42.530 M123.044 44.953 C 123.297 44.991,123.672 44.990,123.877 44.951 C 124.082 44.911,123.875 44.880,123.417 44.881 C 122.958 44.882,122.791 44.915,123.044 44.953 M254.792 44.951 C 254.998 44.991,255.335 44.991,255.542 44.951 C 255.748 44.911,255.579 44.879,255.167 44.879 C 254.754 44.879,254.585 44.911,254.792 44.951 M124.833 45.159 C 124.971 45.252,125.227 45.329,125.403 45.331 C 125.829 45.334,125.696 45.239,125.083 45.102 C 124.718 45.020,124.651 45.036,124.833 45.159 M120.400 45.806 C 120.043 46.065,119.638 46.422,119.500 46.597 C 119.362 46.773,119.514 46.692,119.837 46.417 C 120.160 46.142,120.610 45.789,120.837 45.634 C 121.064 45.478,121.205 45.347,121.150 45.342 C 121.095 45.337,120.758 45.546,120.400 45.806 M126.333 45.675 C 126.911 46.067,127.241 46.181,126.833 45.848 C 126.604 45.661,126.342 45.507,126.250 45.506 C 126.158 45.506,126.196 45.581,126.333 45.675 M221.295 45.787 C 221.594 45.825,222.044 45.824,222.295 45.786 C 222.545 45.748,222.300 45.717,221.750 45.718 C 221.200 45.719,220.995 45.750,221.295 45.787 M226.042 45.782 C 226.202 45.823,226.465 45.823,226.625 45.782 C 226.785 45.740,226.654 45.705,226.333 45.705 C 226.012 45.705,225.881 45.740,226.042 45.782 M219.375 45.953 C 219.627 45.991,220.040 45.991,220.292 45.953 C 220.544 45.915,220.338 45.883,219.833 45.883 C 219.329 45.883,219.123 45.915,219.375 45.953 M227.208 45.948 C 227.369 45.990,227.631 45.990,227.792 45.948 C 227.952 45.906,227.821 45.872,227.500 45.872 C 227.179 45.872,227.048 45.906,227.208 45.948 M216.460 46.285 C 216.668 46.324,216.968 46.323,217.127 46.281 C 217.286 46.239,217.117 46.207,216.750 46.209 C 216.383 46.211,216.253 46.245,216.460 46.285 M144.740 46.578 C 144.326 46.891,144.621 46.895,145.167 46.583 C 145.434 46.431,145.490 46.343,145.324 46.339 C 145.181 46.336,144.918 46.443,144.740 46.578 M233.500 46.583 C 234.048 46.896,234.319 46.900,233.907 46.589 C 233.729 46.454,233.471 46.344,233.333 46.345 C 233.188 46.345,233.258 46.445,233.500 46.583 M214.375 46.615 C 214.535 46.657,214.798 46.657,214.958 46.615 C 215.119 46.573,214.987 46.539,214.667 46.539 C 214.346 46.539,214.215 46.573,214.375 46.615 M212.083 47.008 C 211.851 47.113,211.952 47.128,212.417 47.057 C 212.783 47.001,213.115 46.928,213.153 46.895 C 213.296 46.768,212.403 46.863,212.083 47.008 M120.801 47.458 C 120.508 47.800,120.287 48.167,120.375 48.167 C 120.409 48.167,120.604 47.942,120.807 47.667 C 121.209 47.123,121.205 46.988,120.801 47.458 M252.240 47.708 L 251.750 48.250 252.292 47.760 C 252.590 47.491,252.833 47.248,252.833 47.219 C 252.833 47.090,252.696 47.203,252.240 47.708 M222.542 47.455 C 222.885 47.491,223.448 47.491,223.792 47.455 C 224.135 47.419,223.854 47.389,223.167 47.389 C 222.479 47.389,222.198 47.419,222.542 47.455 M148.833 47.667 C 149.403 47.849,149.841 47.849,149.417 47.667 C 149.233 47.588,148.933 47.526,148.750 47.528 C 148.482 47.532,148.498 47.559,148.833 47.667 M209.083 47.667 C 208.873 47.757,208.842 47.810,209.000 47.810 C 209.137 47.810,209.400 47.745,209.583 47.667 C 209.793 47.576,209.824 47.523,209.667 47.523 C 209.529 47.523,209.267 47.588,209.083 47.667 M219.294 47.618 C 219.501 47.658,219.801 47.656,219.960 47.615 C 220.120 47.573,219.950 47.540,219.583 47.542 C 219.217 47.544,219.086 47.578,219.294 47.618 M226.250 47.667 C 226.955 47.846,227.560 47.846,227.000 47.667 C 226.771 47.593,226.396 47.535,226.167 47.536 C 225.792 47.539,225.801 47.552,226.250 47.667 M128.405 48.561 C 128.405 49.362,128.432 49.455,128.555 49.085 C 128.644 48.817,128.644 48.421,128.555 48.110 C 128.423 47.649,128.405 47.705,128.405 48.561 M218.042 47.782 C 218.202 47.823,218.465 47.823,218.625 47.782 C 218.785 47.740,218.654 47.705,218.333 47.705 C 218.012 47.705,217.881 47.740,218.042 47.782 M207.750 48.000 C 207.540 48.090,207.509 48.143,207.667 48.143 C 207.804 48.143,208.067 48.079,208.250 48.000 C 208.460 47.910,208.491 47.857,208.333 47.857 C 208.196 47.857,207.933 47.921,207.750 48.000 M228.083 48.000 C 228.267 48.079,228.567 48.141,228.750 48.138 C 229.018 48.134,229.002 48.107,228.667 48.000 C 228.097 47.817,227.659 47.817,228.083 48.000 M215.542 48.115 C 215.702 48.157,215.965 48.157,216.125 48.115 C 216.285 48.073,216.154 48.039,215.833 48.039 C 215.512 48.039,215.381 48.073,215.542 48.115 M120.214 49.083 C 120.216 49.542,120.248 49.709,120.286 49.456 C 120.325 49.203,120.324 48.828,120.284 48.623 C 120.244 48.418,120.213 48.625,120.214 49.083 M142.740 49.042 L 142.250 49.583 142.792 49.094 C 143.090 48.825,143.333 48.581,143.333 48.552 C 143.333 48.423,143.196 48.537,142.740 49.042 M258.375 49.083 C 258.377 49.450,258.411 49.580,258.451 49.373 C 258.491 49.166,258.490 48.866,258.448 48.706 C 258.406 48.547,258.374 48.717,258.375 49.083 M212.167 48.841 C 211.984 48.964,212.052 48.980,212.417 48.898 C 213.029 48.761,213.163 48.666,212.736 48.669 C 212.560 48.671,212.304 48.748,212.167 48.841 M152.666 49.417 C 152.987 49.783,153.315 50.158,153.395 50.250 C 153.475 50.342,153.463 50.267,153.368 50.083 C 153.273 49.900,152.945 49.525,152.639 49.250 L 152.083 48.751 152.666 49.417 M260.039 49.500 C 260.039 49.821,260.073 49.952,260.115 49.792 C 260.157 49.631,260.157 49.369,260.115 49.208 C 260.073 49.048,260.039 49.179,260.039 49.500 M137.667 49.682 C 137.390 49.908,137.362 49.965,137.583 49.850 C 138.127 49.569,138.428 49.338,138.250 49.340 C 138.158 49.340,137.896 49.494,137.667 49.682 M184.533 49.457 C 185.331 49.488,186.681 49.488,187.533 49.458 C 188.386 49.427,187.733 49.402,186.083 49.402 C 184.433 49.402,183.736 49.427,184.533 49.457 M180.667 49.667 C 180.104 49.785,180.101 49.790,180.583 49.792 C 180.858 49.793,181.308 49.737,181.583 49.667 C 182.275 49.491,181.503 49.491,180.667 49.667 M189.792 49.618 C 189.998 49.657,190.335 49.657,190.542 49.618 C 190.748 49.578,190.579 49.545,190.167 49.545 C 189.754 49.545,189.585 49.578,189.792 49.618 M146.542 49.782 C 146.702 49.823,146.965 49.823,147.125 49.782 C 147.285 49.740,147.154 49.705,146.833 49.705 C 146.512 49.705,146.381 49.740,146.542 49.782 M186.961 49.787 C 187.261 49.825,187.711 49.824,187.961 49.786 C 188.212 49.748,187.967 49.717,187.417 49.718 C 186.867 49.719,186.662 49.750,186.961 49.787 M244.000 50.152 C 244.229 50.339,244.492 50.493,244.583 50.494 C 244.762 50.495,244.460 50.264,243.917 49.983 C 243.695 49.869,243.723 49.925,244.000 50.152 M136.500 50.348 C 136.223 50.575,136.195 50.631,136.417 50.517 C 136.960 50.236,137.262 50.005,137.083 50.006 C 136.992 50.007,136.729 50.161,136.500 50.348 M184.083 50.174 C 183.851 50.280,183.952 50.295,184.417 50.224 C 184.783 50.168,185.115 50.095,185.153 50.061 C 185.296 49.935,184.403 50.029,184.083 50.174 M250.958 50.421 C 250.914 50.652,250.943 50.881,251.022 50.930 C 251.102 50.980,251.167 50.790,251.167 50.510 C 251.167 49.891,251.068 49.849,250.958 50.421 M141.773 50.535 C 141.717 50.745,141.678 51.104,141.687 51.333 C 141.697 51.579,141.763 51.446,141.848 51.011 C 142.001 50.230,141.947 49.886,141.773 50.535 M120.500 50.435 C 120.500 50.532,120.744 50.872,121.042 51.190 C 121.340 51.509,121.464 51.615,121.318 51.426 C 121.172 51.238,120.928 50.898,120.776 50.671 C 120.624 50.445,120.500 50.338,120.500 50.435 M199.000 50.667 C 198.657 50.777,198.642 50.803,198.917 50.814 C 199.100 50.822,199.362 50.756,199.500 50.667 C 199.792 50.478,199.589 50.478,199.000 50.667 M245.167 50.818 C 245.396 51.006,245.658 51.160,245.750 51.160 C 245.928 51.162,245.627 50.931,245.083 50.650 C 244.862 50.535,244.890 50.592,245.167 50.818 M234.714 51.417 C 234.716 51.875,234.748 52.043,234.786 51.789 C 234.825 51.536,234.824 51.161,234.784 50.956 C 234.744 50.751,234.713 50.958,234.714 51.417 M173.500 51.000 C 173.157 51.110,173.142 51.136,173.417 51.148 C 173.600 51.155,173.862 51.089,174.000 51.000 C 174.292 50.811,174.089 50.811,173.500 51.000 M144.278 51.111 C 144.126 51.263,144.137 52.129,144.292 52.224 C 144.360 52.267,144.417 52.009,144.417 51.651 C 144.417 51.293,144.410 51.000,144.403 51.000 C 144.395 51.000,144.339 51.050,144.278 51.111 M153.691 51.417 C 153.675 51.692,153.624 52.104,153.576 52.333 L 153.491 52.750 153.670 52.339 C 153.768 52.113,153.820 51.701,153.785 51.422 L 153.720 50.917 153.691 51.417 M196.167 51.508 C 195.984 51.631,196.052 51.647,196.417 51.565 C 197.029 51.428,197.163 51.332,196.736 51.336 C 196.560 51.337,196.304 51.415,196.167 51.508 M224.333 51.385 C 224.333 51.414,224.577 51.658,224.875 51.927 L 225.417 52.417 224.927 51.875 C 224.471 51.370,224.333 51.257,224.333 51.385 M231.624 52.152 C 230.939 52.591,230.844 52.746,231.448 52.439 C 231.740 52.291,232.026 52.094,232.083 52.001 C 232.216 51.785,232.176 51.798,231.624 52.152 M200.417 52.167 C 200.207 52.257,200.176 52.310,200.333 52.310 C 200.471 52.310,200.733 52.245,200.917 52.167 C 201.127 52.076,201.158 52.023,201.000 52.023 C 200.862 52.023,200.600 52.088,200.417 52.167 M191.833 52.500 C 191.273 52.679,191.878 52.679,192.583 52.500 C 193.032 52.386,193.041 52.372,192.667 52.370 C 192.438 52.368,192.063 52.427,191.833 52.500 M198.750 52.500 C 198.540 52.590,198.509 52.643,198.667 52.643 C 198.804 52.643,199.067 52.579,199.250 52.500 C 199.460 52.410,199.491 52.357,199.333 52.357 C 199.196 52.357,198.933 52.421,198.750 52.500 M234.039 53.213 C 233.740 53.671,233.608 53.951,233.746 53.837 C 234.037 53.595,234.733 52.506,234.644 52.432 C 234.611 52.405,234.339 52.756,234.039 53.213 M189.500 52.833 C 188.938 52.952,188.935 52.956,189.417 52.958 C 189.692 52.960,190.142 52.903,190.417 52.833 C 191.108 52.657,190.336 52.657,189.500 52.833 M120.084 53.306 C 120.358 53.612,120.733 53.940,120.917 54.035 C 121.100 54.130,121.175 54.142,121.083 54.062 C 120.992 53.981,120.617 53.653,120.250 53.333 L 119.584 52.750 120.084 53.306 M186.500 53.167 C 186.500 53.258,186.767 53.333,187.093 53.333 C 187.446 53.333,187.645 53.266,187.583 53.167 C 187.527 53.075,187.260 53.000,186.990 53.000 C 186.721 53.000,186.500 53.075,186.500 53.167 M193.250 53.167 C 192.450 53.276,192.443 53.282,193.083 53.295 C 193.450 53.302,194.088 53.249,194.500 53.175 C 195.487 52.999,194.517 52.993,193.250 53.167 M223.500 53.052 C 223.500 53.093,223.775 53.337,224.112 53.594 C 224.448 53.850,224.671 53.975,224.607 53.871 C 224.475 53.658,223.500 52.936,223.500 53.052 M254.417 53.167 C 254.207 53.257,254.176 53.310,254.333 53.310 C 254.471 53.310,254.733 53.245,254.917 53.167 C 255.127 53.076,255.158 53.023,255.000 53.023 C 254.862 53.023,254.600 53.088,254.417 53.167 M126.333 53.500 C 125.773 53.679,126.378 53.679,127.083 53.500 C 127.532 53.386,127.541 53.372,127.167 53.370 C 126.938 53.368,126.563 53.427,126.333 53.500 M251.572 53.535 C 251.933 53.611,252.533 53.612,252.906 53.536 C 253.486 53.417,253.392 53.397,252.250 53.396 C 251.125 53.395,251.019 53.417,251.572 53.535 M143.352 54.189 C 144.065 54.863,145.167 55.623,145.167 55.440 C 145.167 55.396,144.885 55.187,144.542 54.975 C 144.198 54.763,143.617 54.335,143.250 54.025 C 142.745 53.598,142.769 53.638,143.352 54.189 M162.583 54.167 L 162.250 54.310 162.583 54.319 C 162.767 54.324,163.029 54.256,163.167 54.167 C 163.498 53.953,163.082 53.953,162.583 54.167 M248.833 54.142 C 248.971 54.222,249.308 54.337,249.583 54.396 C 249.903 54.466,249.993 54.452,249.833 54.358 C 249.696 54.278,249.358 54.163,249.083 54.104 C 248.763 54.034,248.673 54.048,248.833 54.142 M161.000 54.500 C 160.665 54.607,160.649 54.634,160.917 54.638 C 161.100 54.641,161.400 54.579,161.583 54.500 C 162.008 54.317,161.570 54.317,161.000 54.500 M169.000 54.500 C 168.657 54.610,168.642 54.636,168.917 54.648 C 169.100 54.655,169.362 54.589,169.500 54.500 C 169.792 54.311,169.589 54.311,169.000 54.500 M148.667 54.826 C 148.804 54.919,149.060 54.996,149.236 54.997 C 149.663 55.001,149.529 54.905,148.917 54.768 C 148.552 54.687,148.484 54.702,148.667 54.826 M158.750 54.833 L 158.250 54.961 158.750 54.969 C 159.025 54.973,159.400 54.912,159.583 54.833 L 159.917 54.690 159.583 54.698 C 159.400 54.703,159.025 54.763,158.750 54.833 M123.292 54.951 C 123.498 54.991,123.835 54.991,124.042 54.951 C 124.248 54.911,124.079 54.879,123.667 54.879 C 123.254 54.879,123.085 54.911,123.292 54.951 M125.877 54.953 C 126.131 54.991,126.506 54.990,126.711 54.951 C 126.916 54.911,126.708 54.880,126.250 54.881 C 125.792 54.882,125.624 54.915,125.877 54.953 M167.000 55.008 C 166.817 55.131,166.885 55.147,167.250 55.065 C 167.863 54.928,167.996 54.832,167.569 54.836 C 167.394 54.837,167.137 54.915,167.000 55.008 M227.167 55.000 C 227.737 55.183,228.175 55.183,227.750 55.000 C 227.567 54.921,227.267 54.859,227.083 54.862 C 226.815 54.866,226.832 54.893,227.167 55.000 M231.083 55.000 C 230.873 55.090,230.842 55.143,231.000 55.143 C 231.137 55.143,231.400 55.079,231.583 55.000 C 231.793 54.910,231.824 54.857,231.667 54.857 C 231.529 54.857,231.267 54.921,231.083 55.000 M252.044 54.953 C 252.297 54.991,252.672 54.990,252.877 54.951 C 253.082 54.911,252.875 54.880,252.417 54.881 C 251.958 54.882,251.791 54.915,252.044 54.953 M254.627 54.951 C 254.834 54.991,255.134 54.990,255.294 54.948 C 255.453 54.906,255.283 54.874,254.917 54.875 C 254.550 54.877,254.420 54.911,254.627 54.951 M156.542 55.115 C 156.702 55.157,156.965 55.157,157.125 55.115 C 157.285 55.073,157.154 55.039,156.833 55.039 C 156.512 55.039,156.381 55.073,156.542 55.115 M152.383 55.291 C 153.097 55.322,154.222 55.322,154.883 55.290 C 155.543 55.259,154.958 55.233,153.583 55.233 C 152.208 55.234,151.668 55.259,152.383 55.291 M165.500 55.341 C 165.317 55.464,165.385 55.480,165.750 55.398 C 166.363 55.261,166.496 55.166,166.069 55.169 C 165.894 55.171,165.637 55.248,165.500 55.341 M229.208 55.282 C 229.369 55.323,229.631 55.323,229.792 55.282 C 229.952 55.240,229.821 55.205,229.500 55.205 C 229.179 55.205,229.048 55.240,229.208 55.282 M164.000 55.674 C 163.817 55.798,163.885 55.813,164.250 55.732 C 164.863 55.595,164.996 55.499,164.569 55.503 C 164.394 55.504,164.137 55.581,164.000 55.674 M162.083 56.000 C 161.659 56.183,162.097 56.183,162.667 56.000 C 163.002 55.893,163.018 55.866,162.750 55.862 C 162.567 55.859,162.267 55.921,162.083 56.000 M160.083 56.338 C 159.861 56.436,159.999 56.452,160.500 56.386 C 160.912 56.332,161.281 56.260,161.319 56.227 C 161.464 56.101,160.402 56.197,160.083 56.338 M148.250 56.667 C 148.433 56.745,148.696 56.810,148.833 56.810 C 148.991 56.810,148.960 56.757,148.750 56.667 C 148.567 56.588,148.304 56.523,148.167 56.523 C 148.009 56.523,148.040 56.576,148.250 56.667 M157.250 56.667 C 156.514 56.854,157.352 56.862,158.250 56.676 L 158.917 56.538 158.333 56.539 C 158.012 56.539,157.525 56.597,157.250 56.667 M151.167 56.986 C 152.037 57.039,153.425 57.040,154.250 56.987 C 155.312 56.919,154.850 56.890,152.667 56.890 C 150.386 56.889,149.996 56.914,151.167 56.986 " stroke="none" fill="#dc947c" fill-rule="evenodd"></path><path id="path4" d="M223.377 45.620 C 223.631 45.658,224.006 45.657,224.211 45.617 C 224.416 45.578,224.208 45.546,223.750 45.548 C 223.292 45.549,223.124 45.581,223.377 45.620 M233.542 46.282 C 233.702 46.323,233.965 46.323,234.125 46.282 C 234.285 46.240,234.154 46.205,233.833 46.205 C 233.512 46.205,233.381 46.240,233.542 46.282 M146.792 47.451 C 146.998 47.491,147.335 47.491,147.542 47.451 C 147.748 47.411,147.579 47.379,147.167 47.379 C 146.754 47.379,146.585 47.411,146.792 47.451 M124.627 55.118 C 124.834 55.158,125.134 55.156,125.294 55.115 C 125.453 55.073,125.283 55.040,124.917 55.042 C 124.550 55.044,124.420 55.078,124.627 55.118 M253.292 55.118 C 253.498 55.157,253.835 55.157,254.042 55.118 C 254.248 55.078,254.079 55.045,253.667 55.045 C 253.254 55.045,253.085 55.078,253.292 55.118 M151.627 57.118 C 151.834 57.158,152.134 57.156,152.294 57.115 C 152.453 57.073,152.283 57.040,151.917 57.042 C 151.550 57.044,151.420 57.078,151.627 57.118 " stroke="none" fill="#dc9484" fill-rule="evenodd"></path></g></svg>