<?xml version="1.0" standalone="no"?>
<!DOCTYPE svg PUBLIC "-//W3C//DTD SVG 20010904//EN"
 "http://www.w3.org/TR/2001/REC-SVG-20010904/DTD/svg10.dtd">
<svg version="1.0" xmlns="http://www.w3.org/2000/svg"
 width="564.000000pt" height="564.000000pt" viewBox="0 0 564.000000 564.000000"
 preserveAspectRatio="xMidYMid meet">

<g transform="translate(0.000000,564.000000) scale(0.100000,-0.100000)"
fill="#000000" stroke="none">
<path d="M2545 4075 c-77 -7 -176 -23 -220 -35 -44 -13 -115 -25 -157 -29 -61
-5 -80 -10 -92 -26 -17 -22 -32 -83 -23 -91 3 -3 0 -23 -8 -43 -21 -60 -46
-257 -44 -340 l2 -76 -114 -7 c-187 -12 -314 -37 -565 -115 l-82 -25 -116 47
c-65 25 -132 48 -149 52 -18 3 -43 11 -57 18 -42 21 -300 103 -390 125 -47 11
-128 24 -180 30 -52 5 -113 14 -135 19 -44 12 -174 14 -199 5 -9 -3 -16 -16
-16 -28 0 -20 4 -21 88 -18 56 2 113 -2 156 -12 37 -9 85 -16 107 -16 71 0
240 -40 404 -97 88 -30 194 -65 235 -78 41 -13 116 -40 165 -60 81 -34 93 -36
120 -25 17 7 55 19 85 27 30 8 91 25 135 38 44 13 100 27 125 30 25 4 77 13
115 20 127 25 368 22 595 -7 92 -11 120 -21 120 -42 0 -46 112 -66 154 -27 24
22 183 46 244 37 20 -3 60 -9 87 -12 28 -3 63 -16 80 -27 47 -34 100 -29 137
11 39 45 75 58 235 87 76 13 158 29 183 34 123 27 231 34 423 27 109 -4 233
-11 275 -16 60 -6 86 -5 117 6 115 42 256 86 305 95 30 6 98 23 150 39 222 68
576 117 738 100 59 -5 62 -5 62 16 0 29 -22 34 -145 34 -183 0 -477 -47 -676
-109 -53 -16 -118 -33 -145 -37 -27 -3 -114 -29 -192 -56 -109 -37 -153 -48
-180 -44 -21 3 -127 11 -237 17 -187 11 -354 4 -465 -18 l-25 -4 -1 118 c0
101 -4 129 -27 196 -15 42 -27 93 -27 112 0 22 -8 43 -21 56 -18 18 -30 21
-83 16 -48 -3 -75 1 -125 20 -123 45 -252 74 -380 83 -69 5 -148 11 -176 14
-27 2 -113 -2 -190 -9z m340 -50 c163 -14 267 -36 389 -82 52 -20 80 -24 120
-21 66 7 76 3 76 -35 0 -17 11 -58 24 -92 42 -103 56 -301 24 -331 -7 -6 -56
-19 -108 -28 -52 -9 -106 -19 -120 -22 -23 -4 -27 0 -44 49 -23 67 -12 96 51
142 44 31 53 52 28 61 -14 6 -85 -31 -85 -44 0 -4 -12 -20 -26 -35 -20 -24
-27 -27 -39 -17 -8 7 -15 21 -15 32 0 10 -12 31 -26 45 -22 22 -31 25 -67 18
-120 -21 -146 7 -81 85 25 30 25 50 -1 50 -17 0 -65 -57 -77 -92 -10 -28 -11
-28 -97 -28 -47 0 -101 -4 -120 -10 -28 -8 -38 -6 -59 10 -16 13 -40 20 -67
20 -36 0 -48 -5 -69 -31 -14 -17 -26 -37 -26 -45 0 -19 -3 -18 -39 15 -47 44
-131 83 -148 70 -20 -17 -16 -29 15 -42 36 -16 109 -64 117 -76 3 -6 -4 -26
-17 -44 -20 -31 -25 -34 -49 -25 -43 15 -84 7 -84 -17 0 -16 8 -21 43 -23 43
-3 47 -8 35 -50 -6 -23 -7 -24 -102 -17 -53 3 -117 8 -143 11 l-48 6 0 94 c0
102 13 210 36 290 8 28 14 67 14 87 0 47 23 69 64 62 20 -4 74 5 148 24 103
27 237 45 378 49 19 1 107 -5 195 -13z m-276 -391 c15 -18 27 -23 39 -18 9 4
68 9 131 12 87 3 128 0 176 -13 57 -15 66 -15 92 -1 27 13 32 13 52 0 11 -8
21 -26 21 -39 0 -13 8 -30 19 -37 30 -21 71 -89 71 -118 0 -21 -6 -29 -25 -34
-14 -4 -34 -2 -45 4 -31 16 -75 12 -111 -13 -29 -19 -42 -21 -89 -15 -85 10
-220 9 -269 -3 -39 -9 -45 -8 -66 15 -30 32 -77 42 -115 23 -37 -19 -100 -6
-100 20 0 32 42 103 81 136 21 19 39 41 39 50 0 23 35 57 58 57 10 0 28 -12
41 -26z m-50 -283 c20 -13 6 -41 -21 -41 -33 0 -50 14 -42 33 7 18 40 22 63 8z
m571 -9 c0 -16 -25 -32 -50 -32 -33 0 -43 9 -29 27 12 14 79 18 79 5z"/>
<path d="M2852 3872 c-34 -34 -43 -130 -15 -140 7 -2 15 2 17 10 2 7 11 39 21
71 22 67 11 93 -23 59z"/>
<path d="M2664 3545 c-4 -9 -2 -21 4 -27 15 -15 44 -1 40 19 -4 23 -36 29 -44
8z"/>
<path d="M2940 3544 c-18 -20 6 -50 26 -33 8 6 14 17 14 24 0 19 -27 26 -40 9z"/>
<path d="M2793 3536 c-13 -6 -23 -18 -23 -27 0 -13 10 -17 50 -17 56 0 66 16
25 42 -13 9 -26 15 -27 15 -2 -1 -13 -6 -25 -13z"/>
</g>
</svg>
