<?xml version="1.0" standalone="no"?>
<!DOCTYPE svg PUBLIC "-//W3C//DTD SVG 20010904//EN"
 "http://www.w3.org/TR/2001/REC-SVG-20010904/DTD/svg10.dtd">
<svg version="1.0" xmlns="http://www.w3.org/2000/svg"
 width="563.000000pt" height="408.000000pt" viewBox="0 0 563.000000 408.000000"
 preserveAspectRatio="xMidYMid meet">

<g transform="translate(0.000000,408.000000) scale(0.100000,-0.100000)"
fill="#000000" stroke="none">
<path d="M2814 3236 c-17 -8 -43 -27 -58 -42 -35 -37 -83 -134 -95 -193 -17
-83 -32 -135 -60 -216 -16 -44 -34 -107 -41 -140 -8 -43 -21 -69 -43 -92 -29
-31 -35 -33 -105 -33 -61 0 -268 34 -281 46 -2 1 -6 23 -8 49 -5 39 -3 45 13
45 27 0 113 43 114 57 0 6 23 24 50 39 36 20 50 33 50 49 0 12 14 34 31 49 29
26 31 32 27 80 -2 28 -11 65 -19 81 -12 26 -21 30 -58 33 -24 2 -54 10 -67 19
-16 10 -35 13 -54 9 -29 -5 -30 -5 -30 34 0 51 -31 75 -87 67 -112 -17 -128
-22 -138 -44 -7 -17 -18 -23 -40 -23 -40 0 -71 -23 -96 -71 -22 -44 -19 -67
11 -94 23 -21 26 -45 6 -45 -24 0 -46 -29 -46 -60 0 -23 7 -33 30 -45 20 -11
30 -23 30 -39 0 -26 37 -56 68 -56 10 0 27 -7 38 -15 10 -8 40 -15 66 -15 52
0 50 3 63 -88 4 -33 1 -50 -13 -70 -11 -15 -25 -51 -33 -80 -18 -72 -4 -97 80
-140 36 -18 67 -34 69 -37 2 -2 -20 -31 -50 -64 -29 -33 -87 -112 -128 -176
-100 -158 -138 -185 -286 -204 -43 -6 -100 -16 -125 -24 -60 -19 -135 -70
-154 -107 -34 -65 -4 -161 63 -202 31 -19 44 -20 143 -16 l109 6 22 -30 c55
-78 185 -77 356 3 l83 38 147 -19 c81 -11 163 -20 182 -20 l35 0 0 -77 c0
-141 56 -214 170 -221 65 -4 90 5 214 80 34 21 74 41 89 44 15 4 32 10 37 14
6 5 57 28 115 53 165 71 280 127 350 172 98 63 243 192 294 262 29 40 58 68
80 77 44 18 64 49 73 115 8 54 8 54 68 85 86 44 112 64 135 101 55 90 -5 203
-140 262 -118 52 -117 52 -129 96 -6 23 -22 107 -35 187 -48 283 -124 522
-175 550 -26 14 -107 13 -134 -2 -12 -6 -45 -29 -74 -50 l-52 -38 -211 0
c-218 0 -246 5 -279 44 -35 41 -120 63 -167 42z m898 -43 c19 -22 43 -74 58
-128 7 -22 20 -69 31 -105 23 -79 54 -220 69 -315 34 -218 30 -205 85 -235 28
-15 67 -32 87 -39 56 -18 118 -68 134 -108 31 -73 -7 -126 -136 -189 l-79 -39
-1 -54 c0 -89 -55 -125 -129 -86 -32 16 -41 46 -41 131 0 64 11 95 51 146 30
38 33 68 6 68 -17 0 -69 -72 -90 -128 -20 -49 -22 -104 -6 -170 11 -47 47 -92
75 -92 47 0 -11 -78 -139 -188 -158 -135 -237 -183 -442 -267 -49 -20 -94 -40
-100 -44 -5 -4 -45 -20 -88 -35 -42 -16 -105 -46 -139 -68 -98 -63 -159 -78
-213 -52 -65 31 -100 141 -70 219 25 67 14 75 -99 76 -50 0 -116 5 -146 10
-145 26 -173 24 -249 -14 -83 -42 -207 -72 -256 -63 -40 8 -92 56 -102 94 -8
33 21 118 52 152 12 14 51 70 85 125 179 285 206 322 317 437 72 75 138 121
258 184 l80 41 13 94 c7 52 26 132 41 179 35 107 56 178 75 257 18 72 47 136
81 178 21 26 32 30 73 30 38 0 56 -6 87 -31 75 -59 73 -58 310 -59 243 0 233
-2 323 70 50 40 108 48 134 18z m-1583 -62 c10 -6 12 -22 9 -54 -7 -58 3 -75
34 -60 42 21 53 21 86 1 20 -12 44 -18 61 -16 24 4 30 0 40 -27 19 -53 14 -84
-15 -97 -16 -7 -27 -23 -31 -41 -5 -23 -16 -34 -51 -49 -25 -11 -47 -29 -49
-39 -10 -35 -68 -56 -101 -36 -6 5 -33 5 -58 1 -38 -5 -51 -3 -74 15 -16 11
-43 21 -60 21 -27 0 -30 3 -30 29 0 22 -7 33 -26 43 -39 19 -35 32 13 42 59
13 62 34 13 85 -35 37 -38 44 -28 64 6 12 14 29 18 37 8 15 32 16 104 4 31 -5
38 -4 34 7 -21 57 -21 59 14 59 18 0 40 5 48 10 19 12 31 12 49 1z m123 -637
c40 -9 110 -20 156 -23 l84 -6 -69 -39 c-37 -21 -92 -56 -121 -78 -30 -22 -55
-38 -58 -36 -9 10 -94 179 -94 188 0 14 17 13 102 -6z m273 -14 c-3 -5 -11
-10 -16 -10 -6 0 -7 5 -4 10 3 6 11 10 16 10 6 0 7 -4 4 -10z m-374 -81 c22
-45 38 -83 36 -86 -9 -8 -85 36 -101 58 -8 12 -12 29 -9 38 11 36 26 71 29 71
2 0 22 -36 45 -81z m-291 -614 c0 -10 -48 -81 -63 -94 -19 -15 -57 -112 -57
-145 0 -31 -36 -46 -111 -46 -75 0 -113 19 -139 70 -25 49 -25 65 -1 99 34 47
108 79 221 96 57 9 106 18 109 20 6 7 41 6 41 0z"/>
<path d="M2979 2779 c-6 -69 60 -104 110 -58 26 25 16 43 -28 52 -16 3 -40 9
-55 13 -18 4 -26 2 -27 -7z"/>
<path d="M3477 2763 c-38 -6 -46 -31 -18 -55 31 -24 76 -23 102 3 43 43 5 66
-84 52z"/>
<path d="M3250 2750 c0 -18 -51 -60 -74 -60 -32 0 -56 -28 -35 -41 21 -13 31
-11 84 15 l48 25 33 -25 c23 -18 42 -24 65 -22 48 5 47 25 -2 39 -30 9 -48 23
-62 46 -17 30 -57 47 -57 23z"/>
<path d="M2850 2415 c-83 -17 -152 -44 -147 -59 6 -19 47 -19 96 1 36 14 73
18 176 18 113 0 139 -3 195 -24 36 -13 69 -28 75 -33 11 -10 55 -11 55 0 -1
30 -92 73 -205 96 -91 19 -156 19 -245 1z"/>
<path d="M2120 2966 c0 -22 -16 -36 -41 -36 -5 0 -7 11 -3 25 8 31 -14 34 -39
7 -49 -54 9 -91 88 -58 31 13 35 19 35 50 0 29 -4 36 -20 36 -14 0 -20 -7 -20
-24z"/>
<path d="M2195 2935 c-10 -25 -24 -50 -31 -56 -22 -18 -17 -41 7 -37 30 4 59
47 66 96 8 59 -20 57 -42 -3z"/>
<path d="M1962 2854 c-15 -12 -15 -15 -2 -23 8 -6 25 -8 37 -5 12 3 32 -1 45
-10 28 -20 62 -21 78 -1 23 27 10 33 -113 48 -15 2 -35 -2 -45 -9z"/>
</g>
</svg>
