<?xml version="1.0" standalone="no"?>
<!DOCTYPE svg PUBLIC "-//W3C//DTD SVG 20010904//EN"
 "http://www.w3.org/TR/2001/REC-SVG-20010904/DTD/svg10.dtd">
<svg version="1.0" xmlns="http://www.w3.org/2000/svg"
 width="562.000000pt" height="290.000000pt" viewBox="0 0 562.000000 290.000000"
 preserveAspectRatio="xMidYMid meet">

<g transform="translate(0.000000,290.000000) scale(0.100000,-0.100000)"
fill="#000000" stroke="none">
<path d="M240 2015 l0 -885 201 -2 200 -3 -145 -83 c-80 -46 -150 -90 -156
-97 -17 -20 -8 -50 15 -53 12 -2 180 51 374 118 l354 120 1424 0 1424 0 -11
20 c-15 29 -3 59 27 66 19 5 31 0 51 -19 25 -26 25 -27 7 -47 l-18 -20 696 0
697 0 0 885 0 885 -40 0 c-29 0 -40 -4 -40 -15 0 -8 -7 -15 -15 -15 -8 0 -15
7 -15 15 0 13 -212 15 -1845 15 -1015 0 -1845 -3 -1845 -6 0 -4 34 -98 76
-210 41 -112 72 -208 69 -214 -20 -33 -37 -2 -89 163 -31 94 -61 193 -68 220
l-12 47 -658 0 -658 0 0 -885z m620 840 c0 -8 -4 -15 -10 -15 -5 0 -10 7 -10
15 0 8 5 15 10 15 6 0 10 -7 10 -15z m844 -178 c73 -172 87 -213 67 -192 -9
10 -151 359 -151 372 0 15 11 -10 84 -180z m1046 103 c0 -5 -4 -10 -9 -10 -6
0 -13 5 -16 10 -3 6 1 10 9 10 9 0 16 -4 16 -10z m2225 -74 c0 -22 -14 -29
-34 -17 -19 12 -6 43 16 39 10 -2 18 -12 18 -22z m-1345 -26 c0 -5 -7 -10 -15
-10 -8 0 -15 5 -15 10 0 6 7 10 15 10 8 0 15 -4 15 -10z m1020 -13 c0 -8 -3
-17 -7 -20 -9 -9 -34 13 -27 24 8 14 34 11 34 -4z m-2175 -37 c0 -8 -8 -16
-17 -18 -13 -2 -18 3 -18 18 0 15 5 20 18 18 9 -2 17 -10 17 -18z m-1135 -20
c0 -5 -4 -10 -10 -10 -5 0 -10 5 -10 10 0 6 5 10 10 10 6 0 10 -4 10 -10z
m860 -15 c0 -8 -4 -15 -9 -15 -13 0 -22 16 -14 24 11 11 23 6 23 -9z m2168
-29 c6 -28 -13 -40 -32 -21 -13 14 -14 20 -5 31 15 18 33 13 37 -10z m-2262
-8 c78 -25 144 -80 144 -120 0 -28 -30 -121 -37 -115 -2 3 3 30 12 60 12 42
13 61 5 76 -9 19 -54 56 -90 76 -13 8 -13 7 -1 -8 7 -9 10 -17 6 -17 -4 0 -1
-7 6 -17 13 -15 12 -15 -11 -3 -23 12 -24 12 -10 -4 20 -26 22 -46 2 -39 -14
5 -13 2 3 -17 19 -23 18 -22 -15 2 -39 29 -145 68 -185 68 -14 0 -25 5 -25 10
0 16 38 50 57 50 9 0 14 3 10 6 -15 15 -70 -10 -88 -39 -10 -18 -19 -25 -19
-16 0 66 111 88 236 47z m-101 -100 c126 -31 172 -91 289 -370 l45 -108 -46 0
c-49 0 -55 8 -10 12 15 1 27 5 27 9 0 10 -85 210 -113 265 -26 51 -73 114 -86
114 -3 0 -26 -25 -49 -55 -60 -77 -97 -101 -162 -108 -39 -5 -48 -4 -32 3 33
14 27 19 -13 10 -42 -9 -88 -37 -81 -49 3 -4 -8 -18 -24 -29 -33 -25 -72 -27
-167 -11 -35 6 -67 8 -71 4 -17 -17 0 -121 43 -255 26 -80 48 -146 50 -148 2
-2 18 4 37 13 l33 16 -35 -30 c-19 -17 -38 -31 -41 -31 -3 0 -29 75 -58 168
-74 241 -71 326 18 437 65 80 180 144 286 158 38 5 108 -1 160 -15z m-409 -44
c19 -15 19 -16 -1 -9 -46 17 -62 16 -85 -5 -22 -19 -23 -20 -3 -11 26 13 43
14 62 2 12 -8 9 -16 -17 -46 -38 -43 -82 -125 -83 -157 -1 -19 -2 -20 -6 -4
-4 15 -7 16 -14 5 -7 -11 -9 -9 -9 6 0 17 -2 18 -11 5 -8 -12 -10 -10 -5 10 5
24 5 24 -11 5 -15 -20 -15 -19 -8 4 5 15 3 21 -3 17 -6 -3 -12 0 -15 6 -2 7
-9 -10 -16 -39 -15 -63 -8 -80 55 -124 25 -17 43 -33 40 -36 -8 -8 -95 56
-107 79 -30 56 25 184 113 262 54 50 89 58 124 30z m1462 -11 c2 -8 -6 -13
-22 -13 -17 0 -26 5 -26 16 0 19 41 16 48 -3z m-2193 -22 c3 -5 1 -13 -5 -16
-15 -9 -43 3 -35 15 8 13 32 13 40 1z m4025 -11 c0 -5 -4 -10 -10 -10 -5 0
-10 5 -10 10 0 6 5 10 10 10 6 0 10 -4 10 -10z m170 -50 c0 -5 -4 -10 -10 -10
-5 0 -10 5 -10 10 0 6 5 10 10 10 6 0 10 -4 10 -10z m-3240 -125 c-14 -8 -29
-14 -35 -14 -5 0 1 6 15 14 14 8 30 14 35 14 6 0 -1 -6 -15 -14z m1890 -16
c-30 -11 -60 -17 -67 -14 -7 2 -13 0 -13 -6 0 -6 -9 -8 -21 -4 -16 5 -19 4
-14 -5 6 -10 1 -11 -18 -6 -22 5 -25 3 -20 -10 5 -14 3 -15 -15 -5 -19 10 -22
9 -22 -6 0 -13 -3 -14 -12 -5 -17 17 -28 15 -21 -4 5 -14 2 -14 -22 2 l-28 18
8 -23 c7 -23 7 -23 -22 -5 -16 10 -23 12 -15 4 21 -24 13 -31 -14 -13 -27 17
-27 17 -19 -7 7 -24 7 -24 -12 -7 -22 19 -44 24 -25 5 21 -21 13 -31 -13 -14
-29 19 -44 21 -27 4 19 -19 14 -33 -6 -15 -26 23 -35 21 -21 -4 11 -21 10 -21
-12 -5 -32 22 -46 20 -24 -4 10 -11 13 -20 7 -20 -6 0 -14 4 -17 10 -3 5 -15
15 -26 21 -20 10 -20 10 -4 -15 20 -31 6 -35 -20 -6 -10 11 -23 20 -28 20 -6
0 0 -11 13 -25 13 -14 18 -25 12 -25 -6 0 -14 4 -17 10 -3 5 -15 15 -26 21
-20 10 -20 10 -4 -15 20 -31 6 -35 -20 -6 -10 11 -23 20 -28 20 -6 0 -3 -8 6
-18 26 -28 20 -36 -9 -13 -37 29 -52 26 -24 -4 13 -14 19 -25 13 -25 -6 0 -16
7 -23 16 -8 8 -23 20 -34 26 -20 10 -20 9 2 -14 33 -36 27 -43 -13 -12 -39 30
-47 23 -13 -13 12 -13 16 -23 10 -23 -7 0 -12 4 -12 8 0 4 -15 16 -32 26 l-33
19 23 -25 c32 -36 27 -43 -11 -14 -46 35 -57 33 -22 -4 35 -36 24 -40 -17 -5
-16 14 -34 25 -40 25 -6 0 1 -9 16 -21 14 -11 26 -25 26 -31 0 -7 -10 -2 -22
9 -13 11 -34 26 -48 33 -22 11 -20 8 9 -24 42 -44 32 -48 -16 -5 -19 16 -38
28 -41 25 -3 -3 7 -15 21 -27 15 -11 27 -25 27 -31 0 -7 -10 -2 -22 9 -13 11
-34 26 -48 33 -22 11 -20 8 9 -24 42 -44 32 -48 -16 -6 -33 29 -61 41 -48 20
5 -7 -3 -8 -22 -3 -15 4 -61 7 -100 6 -41 0 -71 3 -67 8 3 5 17 9 32 9 15 0
90 14 167 30 77 16 334 65 570 110 237 44 435 82 440 85 6 2 19 3 30 3 11 1
-5 -8 -35 -19z m-1770 -9 c0 -13 -10 -24 -27 -31 -16 -6 -48 -20 -72 -30 -41
-19 -45 -19 -62 -3 -10 9 -16 21 -13 25 12 20 101 58 137 59 31 0 37 -3 37
-20z m538 9 c-2 -6 -8 -10 -13 -10 -5 0 -11 4 -13 10 -2 6 4 11 13 11 9 0 15
-5 13 -11z m2502 -15 c0 -8 -7 -14 -15 -14 -15 0 -21 21 -9 33 10 9 24 -2 24
-19z m-3050 -65 c0 -18 -2 -19 -15 -9 -15 12 -12 30 6 30 5 0 9 -10 9 -21z
m1778 9 c25 -25 2 -78 -33 -78 -19 0 -45 28 -45 49 0 9 12 22 28 28 37 15 36
15 50 1z m-1818 -24 c0 -16 -16 -19 -25 -4 -8 13 4 32 16 25 5 -4 9 -13 9 -21z
m-42 -18 c3 -12 -1 -17 -10 -14 -7 3 -15 13 -16 22 -3 12 1 17 10 14 7 -3 15
-13 16 -22z m125 -13 c3 -5 -15 -8 -39 -9 -24 0 -52 -8 -62 -16 -27 -24 -46
-33 -37 -19 22 36 124 68 138 44z m-27 -44 c-32 -5 -59 -17 -77 -35 -16 -15
-29 -23 -29 -17 0 6 14 23 31 37 24 20 41 26 77 25 l47 -1 -49 -9z m-1401 -24
c0 -22 -31 -33 -47 -17 -17 17 -1 44 24 40 15 -2 23 -10 23 -23z m431 14 c10
-17 -13 -36 -27 -22 -12 12 -4 33 11 33 5 0 12 -5 16 -11z m1008 -25 c23 -9
20 -27 -3 -19 -15 4 -18 1 -14 -19 7 -37 -29 -54 -57 -26 -11 11 -20 16 -20
10 0 -5 -4 -10 -10 -10 -17 0 -11 22 12 47 21 22 59 30 92 17z m9 -136 c-17
-16 -27 -19 -50 -12 l-28 8 32 4 c17 2 37 10 44 18 6 8 14 12 17 9 3 -3 -4
-15 -15 -27z m-695 -75 c5 -17 -26 -29 -40 -15 -6 6 -7 15 -3 22 9 14 37 9 43
-7z m822 -67 c-35 -19 -202 -77 -207 -72 -2 2 9 9 24 14 173 67 237 87 183 58z
m429 10 c-6 -7 -294 -130 -410 -177 -109 -43 -509 -172 -516 -166 -2 2 81 33
184 67 198 66 409 146 608 228 111 47 145 59 134 48z m-2011 -42 l3 -29 -22
21 c-12 12 -18 27 -14 34 12 19 30 5 33 -26z m1832 22 c-95 -52 -594 -235
-606 -223 -3 2 66 30 153 60 87 31 226 83 308 116 148 58 194 73 145 47z
m1198 -9 c4 -20 -25 -34 -40 -19 -15 15 -1 44 19 40 10 -2 19 -11 21 -21z
m-1329 9 c-14 -14 -380 -149 -386 -142 -5 4 167 73 292 117 78 27 103 33 94
25z m-1439 -31 c19 -23 3 -57 -27 -53 -34 4 -51 31 -34 52 17 20 45 21 61 1z
m644 -122 c-31 -32 -67 -80 -81 -108 l-24 -50 3 42 c5 57 -13 38 -20 -22 -3
-29 -8 -42 -13 -34 -4 7 -5 27 -3 44 4 23 3 27 -5 15 -6 -8 -11 -32 -11 -52 0
-22 -5 -38 -11 -38 -8 0 -10 15 -6 45 6 56 -4 50 -20 -13 l-12 -47 2 43 c2 37
1 41 -10 26 -7 -10 -13 -33 -13 -53 0 -19 -3 -31 -7 -28 -3 4 -6 24 -5 44 1
28 -1 34 -8 23 -5 -8 -10 -30 -10 -47 0 -18 -5 -33 -11 -33 -8 0 -10 14 -6 41
7 52 -2 43 -19 -18 l-13 -48 0 40 c-1 30 -4 36 -11 25 -5 -8 -10 -28 -10 -45
0 -20 -3 -26 -9 -17 -4 7 -6 25 -4 40 4 21 2 24 -6 12 -6 -8 -11 -27 -11 -42
0 -15 -5 -30 -11 -34 -8 -5 -10 4 -7 29 5 46 -7 39 -18 -10 l-8 -38 -6 35 -6
35 -11 -45 c-10 -42 -11 -43 -12 -12 -1 41 -21 33 -21 -9 0 -16 -5 -29 -11
-29 -7 0 -10 12 -7 30 6 38 -4 29 -18 -18 l-12 -37 -2 35 -2 35 -13 -40 c-12
-36 -14 -37 -14 -12 -1 34 -21 26 -21 -9 0 -30 -20 -32 -21 -1 -1 16 -4 13
-11 -13 -11 -34 -11 -34 -18 -10 -7 24 -7 24 -18 -10 -8 -27 -10 -30 -11 -12
-1 28 -21 19 -21 -9 0 -27 -20 -24 -21 4 -1 16 -4 13 -11 -13 -11 -34 -11 -34
-18 -10 l-6 25 -11 -30 c-7 -19 -12 -23 -12 -12 -1 24 -21 11 -21 -14 0 -24
-20 -26 -21 -1 0 12 -3 10 -10 -8 -8 -20 -12 -22 -19 -10 -7 12 -11 10 -19
-10 -5 -14 -10 -19 -10 -12 -1 17 -21 15 -21 -3 0 -18 -20 -20 -21 -2 0 6 -5
1 -10 -13 -8 -20 -12 -22 -19 -10 -7 12 -10 12 -16 -3 -4 -10 -13 -16 -20 -13
-8 3 -14 -1 -14 -10 0 -10 -6 -14 -14 -11 -8 3 -16 3 -18 -1 -2 -4 -23 -15
-47 -25 -64 -24 -42 -8 94 71 304 176 491 285 500 292 6 4 98 56 205 116 107
59 215 120 239 136 25 15 46 28 48 28 2 0 -22 -26 -53 -57z m1544 -7 c5 -23
-16 -46 -42 -46 -46 0 -62 48 -24 74 19 13 25 14 43 2 11 -7 21 -21 23 -30z
m-1881 -12 c8 -22 -10 -49 -32 -49 -10 0 -22 7 -28 16 -15 24 -1 49 28 49 15
0 28 -7 32 -16z m-589 -66 c14 -14 -2 -48 -22 -48 -20 0 -37 25 -30 44 7 19
35 21 52 4z m3922 -42 c0 -3 -4 -8 -10 -11 -5 -3 -10 -1 -10 4 0 6 5 11 10 11
6 0 10 -2 10 -4z m-1109 -16 c21 -12 25 -40 7 -58 -18 -18 -56 -14 -68 7 -13
25 -13 27 6 45 18 19 28 20 55 6z m949 -79 c0 -28 -28 -47 -48 -34 -24 15 -27
44 -7 59 22 17 55 1 55 -25z m-682 -8 c3 -21 -22 -38 -39 -27 -13 8 -11 42 4
47 20 9 32 2 35 -20z m-1951 11 c-3 -3 -12 -4 -19 -1 -8 3 -5 6 6 6 11 1 17
-2 13 -5z m991 -6 c30 -30 0 -78 -37 -58 -32 17 -21 70 14 70 6 0 16 -5 23
-12z m-788 -44 c0 -8 -4 -12 -10 -9 -5 3 -10 10 -10 16 0 5 5 9 10 9 6 0 10
-7 10 -16z m-1000 -3 c0 -6 -4 -13 -10 -16 -5 -3 -10 1 -10 9 0 9 5 16 10 16
6 0 10 -4 10 -9z m-380 -85 c0 -3 -4 -8 -10 -11 -5 -3 -10 -1 -10 4 0 6 5 11
10 11 6 0 10 -2 10 -4z m770 -6 c0 -15 -26 -23 -41 -14 -9 5 -7 10 7 15 27 11
34 10 34 -1z m460 -20 c0 -5 -7 -10 -15 -10 -8 0 -15 5 -15 10 0 6 7 10 15 10
8 0 15 -4 15 -10z"/>
<path d="M1970 2423 c0 -10 13 -33 28 -51 27 -33 28 -33 45 -14 17 19 16 20
-18 51 -40 35 -55 39 -55 14z"/>
<path d="M1828 2402 c-15 -6 -14 -12 7 -62 20 -49 27 -55 55 -58 53 -6 56 11
14 72 -39 56 -45 60 -76 48z"/>
<path d="M1913 2392 c-9 -6 -6 -17 13 -45 20 -31 31 -37 59 -37 19 0 35 3 35
6 0 3 -14 24 -31 45 -30 38 -51 47 -76 31z"/>
<path d="M1762 2378 c-15 -8 -21 -17 -17 -27 4 -9 11 -35 18 -58 12 -45 25
-52 63 -30 l21 12 -25 58 c-26 61 -26 61 -60 45z"/>
<path d="M1691 2351 c-11 -7 -13 -23 -8 -71 4 -34 9 -66 13 -71 7 -12 64 21
64 37 0 26 -34 114 -44 114 -6 0 -17 -4 -25 -9z"/>
<path d="M1632 2284 c-19 -13 -22 -23 -20 -65 2 -27 6 -49 9 -49 4 0 17 9 30
19 19 15 23 27 21 57 -5 50 -13 57 -40 38z"/>
<path d="M1559 2263 c-16 -42 -8 -77 19 -81 20 -3 22 0 22 46 0 59 -24 79 -41
35z"/>
<path d="M1842 2163 c-40 -14 -62 -36 -49 -49 9 -10 128 38 124 50 -6 17 -27
16 -75 -1z"/>
<path d="M1165 971 c-82 -37 -148 -146 -99 -165 27 -10 73 -7 111 9 19 8 37
15 39 15 2 0 1 -7 -2 -15 -11 -28 21 -15 49 20 15 19 33 35 39 35 6 0 4 -8 -5
-18 -21 -23 -22 -52 -2 -52 8 0 26 5 40 12 19 9 28 9 37 0 15 -15 53 -15 79
-2 10 6 19 7 19 2 0 -12 230 -13 252 -1 9 5 19 5 22 1 9 -14 203 -12 222 3 16
11 15 15 -11 48 -24 29 -32 34 -47 26 -18 -10 -18 -11 6 -30 34 -27 33 -39 -4
-39 -22 0 -28 4 -24 15 5 13 2 13 -30 0 -19 -8 -46 -15 -58 -14 -18 0 -13 5
20 19 67 30 50 69 -22 49 -19 -5 -42 -19 -50 -30 -14 -20 -14 -20 -37 10 -19
26 -25 28 -42 19 -20 -10 -20 -11 6 -30 35 -26 34 -38 -4 -38 -27 0 -30 2 -19
15 16 19 7 19 -31 -1 -36 -18 -48 -11 -31 16 15 25 15 40 0 40 -7 0 -23 -16
-36 -35 -12 -19 -29 -35 -37 -35 -19 0 -19 10 1 38 29 42 3 44 -35 3 -53 -58
-96 -56 -51 2 27 34 7 46 -23 13 -23 -25 -75 -51 -84 -42 -3 3 4 11 16 18 37
23 25 36 -34 36 -31 0 -58 -5 -61 -9 -5 -8 -65 -38 -106 -52 -25 -9 -48 2 -48
22 0 24 53 84 94 106 41 22 57 14 31 -15 -18 -19 -17 -20 3 -20 28 0 55 39 40
57 -14 18 -45 16 -93 -6z m651 -106 c-26 -19 -42 -19 -26 0 7 8 20 15 29 15
13 -1 13 -3 -3 -15z"/>
<path d="M2623 968 c-11 -13 -37 -48 -58 -78 -20 -30 -38 -56 -40 -58 -2 -2
-13 2 -25 8 -26 14 -70 5 -70 -15 0 -7 8 -16 18 -19 29 -9 265 -4 285 6 11 5
17 5 17 -2 0 -13 56 -13 81 1 13 7 25 7 32 1 19 -15 159 -13 184 4 30 19 64
19 57 -1 -4 -8 -1 -15 4 -15 11 0 24 12 54 49 10 11 23 21 30 21 6 0 1 -11
-12 -25 -18 -20 -21 -28 -12 -37 10 -10 19 -10 45 0 20 8 33 9 35 2 5 -14 32
-12 65 4 25 14 26 13 18 -2 -5 -10 -19 -26 -30 -36 -12 -11 -21 -25 -21 -33 0
-25 36 -13 54 18 16 28 37 40 99 62 10 4 16 11 12 17 -4 6 -15 6 -32 -1 -34
-13 -38 -6 -18 25 23 35 5 34 -50 -4 -55 -38 -62 -38 -35 0 21 30 21 30 1 30
-11 0 -22 -8 -26 -19 -3 -10 -24 -25 -47 -34 l-42 -17 27 28 c15 16 27 31 27
34 0 3 -27 6 -60 6 -42 0 -60 -4 -60 -13 0 -12 -21 -25 -41 -25 -5 0 -9 9 -9
20 0 38 -73 28 -122 -16 -37 -33 -68 -44 -68 -24 0 6 17 21 37 33 27 15 33 23
21 25 -9 2 -26 -2 -37 -8 -14 -7 -21 -7 -21 0 0 5 -9 10 -20 10 -14 0 -20 -7
-20 -23 0 -22 -32 -47 -60 -47 -15 0 -12 21 6 41 9 10 13 23 9 29 -4 7 -21 -4
-44 -29 -53 -57 -96 -56 -51 2 16 21 17 26 5 31 -11 4 -45 -30 -59 -61 -1 0
-23 -4 -49 -8 l-48 -7 56 77 c30 42 55 81 55 86 0 17 -26 9 -47 -13z m427
-107 c0 -15 -30 -41 -46 -41 -14 0 -20 31 -7 43 10 10 53 8 53 -2z"/>
<path d="M4155 975 c-22 -8 -41 -15 -43 -15 -2 0 -2 -11 0 -25 2 -20 -4 -29
-32 -43 -43 -21 -51 -53 -18 -76 27 -19 167 -23 186 -4 8 8 15 8 24 1 19 -15
158 -13 190 3 35 18 58 18 58 -1 0 -17 41 -20 70 -5 11 6 21 6 24 1 3 -5 41
-9 83 -9 77 0 153 20 153 40 0 6 -8 7 -17 3 -53 -21 -75 -26 -89 -21 -15 6
-15 8 1 26 20 22 45 27 45 8 0 -9 3 -9 11 -1 7 7 9 19 5 28 -8 23 -41 11 -89
-31 -51 -47 -87 -46 -52 0 23 30 18 36 -26 36 l-41 0 16 25 c19 30 20 35 3 35
-7 0 -23 -13 -35 -30 -13 -16 -30 -30 -38 -30 -10 0 -14 -6 -11 -14 3 -8 -1
-17 -9 -20 -25 -10 -34 -7 -28 9 4 10 -3 18 -20 25 -34 12 -73 -2 -108 -41
-28 -30 -58 -39 -58 -16 0 7 14 21 32 32 35 20 23 34 -13 14 -17 -9 -24 -9
-27 0 -6 18 -32 13 -32 -7 0 -13 -15 -23 -49 -36 -58 -21 -120 -18 -135 6 -17
27 6 41 74 46 33 2 60 8 60 13 0 5 -10 9 -23 9 -23 0 -47 16 -47 32 0 11 79
30 100 23 10 -3 21 -12 24 -20 6 -17 36 -9 36 10 0 15 -52 35 -89 35 -14 -1
-44 -7 -66 -15z m305 -120 c0 -14 -29 -35 -49 -35 -15 0 -14 23 1 38 17 17 48
15 48 -3z m174 4 c-7 -12 -74 -42 -80 -36 -2 2 3 13 12 25 16 23 82 33 68 11z"/>
<path d="M3660 920 c-12 -17 -30 -30 -42 -30 -15 0 -18 -3 -10 -13 7 -8 7 -18
2 -27 -18 -29 -11 -50 16 -50 14 0 34 5 44 10 13 7 21 7 25 0 9 -15 59 -12
102 6 71 30 86 39 91 53 4 11 -1 10 -19 -2 -29 -21 -50 -22 -43 -3 8 22 -16
30 -83 28 -63 -3 -76 5 -48 28 19 16 19 30 1 30 -8 0 -24 -13 -36 -30z m44
-64 c-5 -14 -63 -40 -71 -32 -3 2 2 13 9 25 15 25 71 31 62 7z m86 -1 c0 -14
-29 -35 -49 -35 -15 0 -14 23 1 38 17 17 48 15 48 -3z"/>
<path d="M5243 937 c-23 -7 -45 -15 -49 -19 -4 -4 8 -3 27 2 45 13 138 13 177
-1 66 -23 108 -129 100 -255 -7 -100 -58 -203 -135 -274 -57 -52 -67 -57 -79
-39 -3 6 10 24 30 41 48 39 66 76 66 136 0 62 -29 107 -89 139 -40 21 -57 23
-183 23 l-138 0 0 -270 0 -270 205 0 c172 0 205 2 205 14 0 8 -4 17 -9 20 -5
3 -12 17 -15 32 -6 21 2 35 45 82 63 68 111 142 141 214 18 43 22 73 22 158 1
93 -2 111 -26 162 -38 81 -87 112 -182 115 -39 1 -90 -3 -113 -10z m-24 -379
c22 -38 5 -77 -44 -105 -22 -13 -43 -23 -47 -23 -5 0 -8 36 -8 81 l0 80 42 -3
c34 -2 45 -8 57 -30z m-54 -279 c7 -22 -7 -39 -32 -39 -16 0 -17 32 -1 48 17
17 26 15 33 -9z"/>
<path d="M1595 921 c-3 -5 -1 -12 4 -15 13 -8 42 4 35 15 -7 12 -31 12 -39 0z"/>
<path d="M2123 918 c2 -7 10 -13 17 -13 7 0 15 6 18 13 2 7 -5 12 -18 12 -13
0 -20 -5 -17 -12z"/>
<path d="M4673 918 c2 -7 10 -13 17 -13 7 0 15 6 18 13 2 7 -5 12 -18 12 -13
0 -20 -5 -17 -12z"/>
<path d="M5070 904 c-6 -14 -10 -29 -10 -34 0 -5 -13 -18 -30 -30 -43 -30 -37
-43 11 -24 30 13 46 14 63 6 13 -5 28 -7 33 -4 16 10 10 75 -7 80 -8 3 -19 11
-23 18 -12 21 -26 17 -37 -12z"/>
<path d="M2252 889 c-13 -5 -28 -6 -33 -3 -5 3 -28 -10 -49 -30 -54 -48 -91
-49 -55 -2 19 25 19 36 1 36 -18 0 -60 -66 -51 -80 4 -6 28 -10 53 -8 37 2 55
10 85 35 41 37 84 48 54 15 -10 -10 -17 -27 -17 -37 0 -15 6 -17 36 -12 40 7
84 32 84 47 0 6 -10 4 -22 -4 -13 -8 -34 -17 -47 -21 l-23 -7 23 32 c20 26 21
32 9 40 -18 11 -18 11 -48 -1z"/>
<path d="M312 679 c-63 -31 -82 -64 -82 -142 0 -54 4 -68 24 -90 31 -34 75
-55 127 -62 93 -13 89 -10 89 -70 0 -51 -2 -55 -27 -61 -39 -10 -57 7 -63 58
l-5 46 -72 -42 c-81 -46 -90 -65 -49 -109 37 -40 92 -59 172 -60 81 0 153 28
182 71 23 36 26 147 5 183 -23 38 -81 68 -153 77 -68 10 -80 20 -80 70 0 26 5
34 26 42 39 15 64 -3 64 -45 0 -19 2 -35 5 -35 21 0 145 78 145 91 0 21 -48
65 -92 83 -56 24 -163 21 -216 -5z"/>
<path d="M1455 681 c-23 -10 -53 -33 -68 -50 l-27 -33 0 -224 0 -224 75 0 74
0 3 67 3 68 43 23 42 23 0 -90 0 -91 80 0 80 0 0 219 c0 210 -1 219 -23 252
-49 74 -188 103 -282 60z m126 -91 c15 -9 19 -22 19 -65 0 -54 -1 -55 -40 -75
-21 -11 -42 -20 -45 -20 -3 0 -5 31 -5 69 0 61 3 72 22 85 27 19 24 19 49 6z"/>
<path d="M2024 675 c-79 -39 -84 -55 -84 -252 0 -147 2 -172 19 -199 46 -76
200 -103 297 -53 69 36 86 73 82 188 l-3 91 -75 -43 -75 -43 -3 -52 c-3 -45
-6 -53 -27 -58 -13 -3 -33 -1 -44 6 -20 10 -21 19 -21 158 0 81 4 152 8 158
12 18 42 24 63 14 16 -9 19 -22 19 -75 0 -36 2 -65 5 -65 3 0 39 19 81 42 l76
43 -5 38 c-15 109 -187 165 -313 102z"/>
<path d="M3895 676 c-79 -37 -85 -54 -85 -253 0 -196 6 -215 86 -254 103 -49
252 -19 296 61 17 31 18 53 16 207 -3 167 -4 172 -28 199 -62 67 -190 85 -285
40z m136 -86 c18 -10 19 -23 19 -170 l0 -160 -24 -6 c-13 -3 -34 -1 -45 6 -20
10 -21 19 -21 158 0 81 4 152 8 158 6 9 23 19 40 23 2 1 12 -4 23 -9z"/>
<path d="M4390 478 c0 -201 2 -226 19 -254 65 -107 308 -102 364 6 15 31 17
61 15 250 l-3 215 -75 0 -75 0 -3 -217 -2 -218 -24 -6 c-13 -3 -34 -1 -45 6
-20 10 -21 18 -21 225 l0 215 -75 0 -75 0 0 -222z"/>
<path d="M810 420 l0 -270 75 0 75 0 0 68 0 67 91 49 c142 76 181 128 166 221
-8 52 -36 86 -92 111 -44 21 -65 24 -182 24 l-133 0 0 -270z m226 162 c20 -13
36 -54 30 -77 -5 -19 -79 -75 -100 -75 -3 0 -6 36 -6 80 l0 80 33 0 c17 0 37
-4 43 -8z"/>
<path d="M2520 420 l0 -270 205 0 c113 0 205 3 205 8 0 4 -10 26 -22 49 l-23
42 -105 3 -105 3 -3 63 -3 62 66 0 65 0 0 50 0 50 -65 0 -65 0 0 55 0 55 108
0 108 0 22 45 c12 25 22 48 22 50 0 3 -92 5 -205 5 l-205 0 0 -270z"/>
<path d="M3277 640 c27 -48 30 -50 71 -50 l42 0 0 -220 0 -220 80 0 80 0 0
220 0 220 43 0 c41 0 44 2 65 45 12 25 22 48 22 50 0 3 -97 5 -216 5 l-215 0
28 -50z"/>
</g>
</svg>
