<?xml version="1.0" standalone="no"?>
<!DOCTYPE svg PUBLIC "-//W3C//DTD SVG 20010904//EN"
 "http://www.w3.org/TR/2001/REC-SVG-20010904/DTD/svg10.dtd">
<svg version="1.0" xmlns="http://www.w3.org/2000/svg"
 width="563.000000pt" height="797.000000pt" viewBox="0 0 563.000000 797.000000"
 preserveAspectRatio="xMidYMid meet">

<g transform="translate(0.000000,797.000000) scale(0.100000,-0.100000)"
fill="#000000" stroke="none">
<path d="M1603 7712 l-1363 -2 0 -735 c0 -404 2 -735 5 -735 3 0 59 23 125 50
172 73 259 94 335 81 33 -6 98 -13 145 -17 83 -7 213 -44 178 -52 -10 -2 -18
-7 -18 -12 0 -11 90 -30 142 -30 23 0 49 -7 59 -15 15 -15 17 -14 23 8 3 14
22 39 41 56 32 28 42 31 98 30 l62 0 -52 -18 c-29 -10 -59 -24 -68 -31 -25
-20 -14 -52 20 -62 39 -12 147 -3 182 15 31 15 105 33 174 42 58 7 116 44 207
130 39 37 76 64 82 60 6 -4 9 -1 8 7 -2 7 21 25 52 40 38 19 48 27 33 28 -34
0 -102 -29 -156 -67 -27 -19 -50 -33 -52 -31 -1 2 1 12 5 23 5 13 70 51 186
109 213 105 296 138 329 130 20 -5 23 -3 18 16 -5 18 -2 21 13 18 10 -2 19
-10 19 -18 0 -16 -32 -34 -92 -50 -24 -6 -43 -15 -43 -20 0 -14 64 -12 111 2
40 11 49 22 27 31 -7 3 9 6 36 6 34 1 82 15 165 50 64 27 126 52 139 55 14 5
22 15 22 30 0 42 38 60 70 31 15 -14 32 -9 171 51 277 119 481 228 536 286 25
26 53 98 53 134 0 13 6 24 13 24 6 1 28 26 47 56 46 73 115 133 213 186 44 23
101 57 126 75 l46 33 -280 0 c-154 0 -404 1 -555 3 -151 1 -888 1 -1637 -1z
m1767 -52 c0 -5 -7 -10 -16 -10 -8 0 -12 5 -9 10 3 6 10 10 16 10 5 0 9 -4 9
-10z m-574 -317 c-10 -10 -19 5 -10 18 6 11 8 11 12 0 2 -7 1 -15 -2 -18z
m632 -96 c2 -11 -3 -17 -16 -17 -24 0 -32 8 -25 26 7 20 37 13 41 -9z m-1100
-129 c-7 -20 -48 -23 -48 -4 0 11 9 16 26 16 16 0 24 -5 22 -12z m-320 -390
c2 -9 -5 -21 -16 -27 -26 -14 -56 7 -46 32 9 23 57 19 62 -5z"/>
<path d="M4602 7699 c-18 -12 -31 -24 -28 -26 6 -7 66 29 66 39 0 11 0 11 -38
-13z"/>
<path d="M5145 7712 l-220 -3 -40 -49 c-22 -27 -57 -59 -78 -72 -44 -26 -132
-88 -267 -188 -109 -80 -273 -165 -410 -212 -146 -50 -366 -162 -373 -190 -5
-17 -9 -20 -18 -11 -8 8 -48 -7 -152 -57 -194 -94 -523 -234 -952 -407 -225
-91 -365 -153 -374 -165 -9 -14 -21 -18 -39 -15 -16 3 -76 -15 -166 -50 -200
-78 -479 -178 -604 -216 -95 -28 -107 -35 -107 -55 0 -12 -4 -22 -10 -22 -5 1
-10 10 -9 20 0 11 -2 20 -6 20 -3 0 -59 -13 -123 -30 -120 -31 -174 -49 -357
-118 -68 -26 -135 -44 -190 -50 -71 -9 -100 -18 -180 -60 -52 -27 -125 -57
-162 -68 -63 -17 -68 -21 -68 -46 l0 -28 2570 0 2570 0 0 1034 c0 569 -3 1036
-7 1038 -5 2 -107 2 -228 0z m-865 -522 c0 -5 -4 -10 -10 -10 -5 0 -10 5 -10
10 0 6 5 10 10 10 6 0 10 -4 10 -10z m-160 -40 c0 -5 -4 -10 -10 -10 -5 0 -10
5 -10 10 0 6 5 10 10 10 6 0 10 -4 10 -10z m-120 -100 c0 -5 -5 -10 -11 -10
-5 0 -7 5 -4 10 3 6 8 10 11 10 2 0 4 -4 4 -10z m-30 -34 c0 -8 -4 -17 -9 -20
-10 -7 -23 19 -14 28 11 11 23 6 23 -8z m-30 -97 c0 -5 -7 -9 -15 -9 -15 0
-20 12 -9 23 8 8 24 -1 24 -14z m1037 -5 c8 -21 -13 -42 -28 -27 -13 13 -5 43
11 43 6 0 13 -7 17 -16z m-1217 -103 c0 -6 -4 -13 -10 -16 -5 -3 -10 1 -10 9
0 9 5 16 10 16 6 0 10 -4 10 -9z m-125 -61 c8 -13 -4 -50 -16 -50 -13 0 -22
27 -15 45 6 17 22 20 31 5z m1103 -2 c16 -16 15 -55 0 -60 -24 -8 -57 4 -64
24 -11 37 36 64 64 36z m-1407 -21 c-1 -12 -15 -9 -19 4 -3 6 1 10 8 8 6 -3
11 -8 11 -12z m1613 -53 c7 -19 -11 -57 -26 -52 -19 7 -32 34 -25 52 8 21 43
21 51 0z m-1314 -134 c0 -5 -2 -10 -4 -10 -3 0 -8 5 -11 10 -3 6 -1 10 4 10 6
0 11 -4 11 -10z m-881 -46 c-12 -15 -39 -8 -39 11 0 18 22 25 38 12 9 -7 9
-13 1 -23z m556 7 c0 -30 -14 -36 -40 -18 -25 19 -13 50 17 45 17 -2 23 -10
23 -27z m1325 -12 c0 -11 -11 -11 -29 0 -7 5 -10 14 -6 20 5 9 10 9 21 0 8 -6
14 -15 14 -20z m133 -4 c1 -5 -6 -11 -15 -13 -11 -2 -18 3 -18 13 0 17 30 18
33 0z m224 -61 c-3 -3 -12 -4 -19 -1 -8 3 -5 6 6 6 11 1 17 -2 13 -5z m-2269
-67 c4 -20 -25 -34 -40 -19 -15 15 -1 44 19 40 10 -2 19 -11 21 -21z m-164
-93 c20 -19 20 -29 0 -48 -19 -20 -54 -5 -54 24 0 15 21 37 37 40 1 0 9 -7 17
-16z m1316 -29 c0 -8 -4 -15 -10 -15 -5 0 -10 7 -10 15 0 8 5 15 10 15 6 0 10
-7 10 -15z m-525 -35 c0 -18 -6 -26 -23 -28 -13 -2 -25 3 -28 12 -10 26 4 48
28 44 17 -2 23 -10 23 -28z m-567 -7 c5 -18 -28 -29 -38 -12 -5 7 -6 17 -3 22
7 12 35 5 41 -10z m-798 -17 c0 -29 -28 -42 -48 -22 -20 20 -8 46 23 46 20 0
25 -5 25 -24z m2264 -55 c14 -15 15 -24 6 -40 -22 -43 -98 -16 -82 29 12 34
50 40 76 11z m-1130 -17 c22 -22 20 -33 -8 -46 -43 -19 -83 15 -56 47 16 19
44 19 64 -1z m-1389 -94 c3 -11 3 -25 0 -30 -10 -16 -35 8 -35 31 0 25 27 24
35 -1z m1585 -6 c0 -8 -4 -12 -10 -9 -5 3 -10 13 -10 21 0 8 5 12 10 9 6 -3
10 -13 10 -21z m-612 -70 c4 -29 -23 -51 -43 -34 -16 13 -20 42 -8 54 14 14
48 1 51 -20z m-778 -14 c0 -5 -5 -10 -11 -10 -5 0 -7 5 -4 10 3 6 8 10 11 10
2 0 4 -4 4 -10z m1235 -30 c-3 -5 -10 -10 -16 -10 -5 0 -9 5 -9 10 0 6 7 10
16 10 8 0 12 -4 9 -10z m-345 -40 c0 -24 -26 -38 -42 -22 -16 16 -2 42 22 42
13 0 20 -7 20 -20z m-1736 -16 c10 -26 7 -34 -13 -34 -23 0 -35 15 -27 35 7
20 32 19 40 -1z m1010 -6 c8 -14 7 -21 -6 -34 -22 -22 -58 -10 -58 21 0 37 43
46 64 13z m121 -18 c-3 -5 -10 -10 -16 -10 -5 0 -9 5 -9 10 0 6 7 10 16 10 8
0 12 -4 9 -10z m582 -52 c-3 -8 -6 -5 -6 6 -1 11 2 17 5 13 3 -3 4 -12 1 -19z
m138 12 c3 -5 -1 -10 -10 -10 -9 0 -13 5 -10 10 3 6 8 10 10 10 2 0 7 -4 10
-10z m-260 -10 c3 -5 -1 -10 -10 -10 -9 0 -13 5 -10 10 3 6 8 10 10 10 2 0 7
-4 10 -10z m-850 -31 c10 -15 -1 -23 -20 -15 -9 3 -13 10 -10 16 8 13 22 13
30 -1z m1715 -9 c13 -23 5 -59 -13 -61 -51 -5 -75 32 -41 65 21 22 41 20 54
-4z m-2950 -20 c0 -13 -7 -20 -20 -20 -19 0 -27 20 -13 33 13 14 33 6 33 -13z
m1765 -1 c10 -15 -1 -23 -20 -15 -9 3 -13 10 -10 16 8 13 22 13 30 -1z m-255
-9 c0 -5 -2 -10 -4 -10 -3 0 -8 5 -11 10 -3 6 -1 10 4 10 6 0 11 -4 11 -10z"/>
<path d="M4387 7682 c-30 -32 -18 -43 17 -17 14 10 17 18 10 25 -7 7 -16 5
-27 -8z"/>
<path d="M4205 7549 c-11 -17 1 -21 15 -4 8 9 8 15 2 15 -6 0 -14 -5 -17 -11z"/>
<path d="M4005 7528 c-11 -6 -52 -39 -92 -73 -53 -47 -85 -66 -122 -76 -61
-15 -66 -29 -11 -29 61 0 103 22 183 97 40 37 82 73 92 80 19 11 19 12 -5 12
-14 0 -34 -5 -45 -11z"/>
<path d="M3193 6878 c-21 -10 -32 -28 -18 -28 10 0 65 30 65 35 0 8 -23 4 -47
-7z"/>
<path d="M3038 6799 c-29 -17 -20 -28 12 -16 30 11 41 27 18 27 -7 0 -21 -5
-30 -11z"/>
<path d="M2792 6736 c-109 -39 -141 -61 -75 -53 45 5 183 65 183 78 0 13 -5
12 -108 -25z"/>
<path d="M2240 6473 c-56 -20 -82 -34 -77 -39 8 -8 107 27 107 38 0 9 -8 9
-30 1z"/>
<path d="M1991 6381 c-25 -16 7 -22 41 -7 l33 14 -30 1 c-16 0 -36 -3 -44 -8z"/>
<path d="M530 6199 c-47 -10 -103 -21 -125 -25 -31 -4 -36 -8 -23 -15 21 -12
130 5 206 31 100 35 78 39 -58 9z"/>
<path d="M847 6163 c-9 -2 -15 -8 -13 -12 7 -10 66 -1 66 10 0 9 -22 10 -53 2z"/>
<path d="M1075 6133 c-78 -24 -83 -27 -50 -30 38 -4 117 18 123 35 5 15 -10
14 -73 -5z"/>
<path d="M570 6060 c-12 -8 -10 -10 10 -9 14 0 34 4 45 9 17 7 16 9 -10 9 -16
0 -37 -4 -45 -9z"/>
<path d="M783 6053 c-24 -5 -32 -23 -10 -23 24 0 57 12 57 21 0 9 -8 10 -47 2z"/>
<path d="M240 6041 c0 -4 11 -6 25 -3 14 2 25 6 25 8 0 2 -11 4 -25 4 -14 0
-25 -4 -25 -9z"/>
<path d="M240 4435 l0 -1035 1734 0 1733 0 34 -23 c74 -51 209 -148 209 -151
0 -2 -21 -3 -47 -3 -27 0 -861 0 -1855 -1 l-1808 -2 0 -1035 0 -1035 203 0
202 0 -110 -64 c-188 -110 -200 -118 -200 -146 0 -18 6 -26 20 -28 11 -2 180
51 374 118 l354 120 1429 0 c1299 0 1428 1 1414 16 -21 20 -20 37 2 57 26 23
45 21 72 -8 23 -24 23 -25 5 -45 l-18 -20 696 0 697 0 0 1035 0 1035 -62 1
c-35 0 -196 0 -358 -1 -229 -1 -299 2 -311 12 -16 13 -99 148 -99 161 0 4 187
7 415 7 l415 0 0 630 c0 551 -2 631 -15 636 -8 4 -15 10 -15 15 0 5 7 9 15 9
13 0 15 50 15 390 l0 390 -1451 0 c-964 0 -1448 -3 -1444 -10 3 -5 2 -10 -4
-10 -5 0 -12 4 -16 10 -3 5 -26 9 -52 8 l-46 -1 24 -18 c30 -24 46 -24 28 -1
-13 15 -12 16 3 3 10 -7 15 -17 12 -22 -2 -5 25 -30 60 -55 36 -26 64 -49 62
-51 -2 -2 -51 30 -109 72 -93 67 -110 76 -143 73 -37 -3 -37 -3 74 -71 61 -37
114 -73 118 -79 4 -5 -20 7 -52 28 -33 21 -93 57 -134 81 l-75 43 -127 0 -128
0 0 -41 c0 -75 92 -244 217 -402 30 -37 51 -72 48 -77 -4 -6 -2 -9 3 -8 5 2
33 -24 62 -57 29 -33 82 -94 118 -135 92 -105 506 -518 632 -630 58 -51 121
-107 140 -124 46 -42 173 -145 278 -225 45 -35 82 -68 82 -73 0 -5 4 -7 9 -3
5 3 12 1 16 -5 3 -5 30 -26 60 -46 31 -20 52 -41 48 -47 -3 -6 -1 -7 5 -3 6 4
40 -12 74 -34 34 -23 84 -53 110 -66 30 -15 46 -29 42 -36 -4 -6 -3 -8 3 -5 6
4 39 -5 73 -19 89 -36 148 -45 187 -29 17 7 33 11 36 9 2 -2 3 24 2 59 -1 43
-8 77 -25 112 -35 71 -112 197 -163 263 -45 59 -68 95 -50 77 28 -27 169 -226
212 -298 84 -143 113 -256 74 -288 -76 -64 -383 89 -761 378 -157 120 -173
134 -165 146 3 6 1 7 -5 3 -10 -6 -75 42 -162 120 -14 12 -74 66 -135 119
-165 146 -492 471 -609 605 -27 30 -75 84 -107 120 -99 111 -209 254 -204 267
2 7 1 12 -4 10 -26 -7 -211 295 -211 346 0 14 -9 17 -45 17 -25 0 -45 -3 -45
-7 0 -5 9 -23 20 -41 11 -18 17 -39 14 -45 -4 -7 -4 -9 1 -5 12 12 99 -122 87
-134 -9 -9 -76 78 -146 190 -14 23 -33 42 -41 42 -16 0 40 -89 127 -201 24
-31 56 -73 73 -95 35 -47 234 -279 299 -349 77 -83 52 -41 -36 61 -46 52 -82
100 -80 105 1 5 -2 8 -8 7 -14 -4 -170 194 -163 205 3 6 1 7 -5 3 -14 -9 -27
13 -15 25 7 7 36 -24 84 -88 41 -53 84 -109 96 -123 131 -154 181 -211 267
-304 59 -64 96 -111 88 -113 -6 -3 -9 -9 -6 -15 4 -6 10 -5 15 3 6 11 25 -3
73 -53 41 -43 60 -70 54 -76 -6 -6 -6 -12 1 -16 6 -4 11 -2 11 5 0 7 11 2 25
-11 13 -12 22 -27 18 -33 -3 -6 -2 -7 3 -4 12 7 61 -29 51 -39 -4 -4 -15 0
-24 8 -19 16 -47 13 -37 -4 4 -7 9 -6 14 2 5 9 9 9 14 1 4 -6 2 -11 -5 -11 -6
0 26 -36 72 -79 72 -69 84 -77 97 -64 13 12 18 11 38 -8 13 -12 21 -25 19 -30
-3 -4 0 -11 6 -15 8 -4 7 -9 -2 -15 -11 -7 -7 -14 16 -33 16 -13 34 -22 39
-19 5 4 6 1 2 -5 -4 -7 -2 -10 7 -6 8 3 20 -2 27 -11 10 -12 10 -15 0 -15 -9
0 -7 -7 5 -20 20 -22 44 -28 26 -7 -6 8 -9 16 -6 19 3 3 -11 19 -30 37 -19 17
-35 26 -35 19 0 -7 -10 -3 -22 10 -17 16 -19 25 -11 33 9 9 31 -6 91 -60 79
-71 85 -81 67 -111 -5 -9 1 -7 14 4 22 20 22 20 59 -17 134 -131 630 -512 767
-588 17 -10 29 -22 27 -29 -1 -6 2 -9 7 -5 6 3 50 -17 98 -44 112 -64 210
-100 274 -103 44 -2 54 1 71 22 40 49 2 169 -106 335 -31 47 -52 85 -48 85 4
0 0 5 -9 10 -9 5 -29 28 -45 52 -16 24 -65 88 -109 143 -45 55 -85 107 -89
115 -26 50 267 -321 342 -432 82 -123 124 -203 147 -283 16 -53 16 -61 2 -90
-19 -41 -50 -47 -131 -28 -77 17 -309 130 -300 145 4 7 2 8 -4 4 -6 -3 -66 31
-134 77 -188 127 -229 158 -221 169 3 7 1 8 -6 4 -7 -4 -43 18 -89 54 -42 33
-96 75 -119 93 -23 17 -62 49 -85 70 -23 20 -47 37 -53 37 -5 0 8 -16 30 -35
22 -19 34 -34 26 -35 -11 0 -9 -4 5 -15 10 -8 15 -15 10 -15 -5 0 -47 33 -94
73 -444 375 -954 877 -1285 1262 -19 22 -58 67 -87 100 -74 86 -230 291 -251
333 l-12 22 -729 0 -728 0 0 -1035z m2227 990 c0 -8 -4 -12 -9 -9 -5 3 -6 10
-3 15 9 13 12 11 12 -6z m587 -27 c4 -18 18 -50 32 -71 14 -21 23 -45 20 -53
-3 -8 -2 -12 4 -9 5 3 20 -10 33 -30 29 -43 186 -214 242 -264 22 -20 68 -63
102 -95 105 -98 80 -57 -37 63 -61 62 -108 117 -105 122 3 5 0 7 -7 4 -26 -9
-227 268 -243 338 -6 23 -4 27 13 27 14 0 21 -9 25 -29 7 -32 54 -114 99 -172
15 -20 24 -40 20 -44 -4 -5 -2 -5 4 -2 6 4 22 -5 35 -19 20 -21 21 -27 9 -34
-11 -7 -10 -9 7 -7 21 1 21 2 5 31 -9 17 -25 39 -34 50 -10 10 -15 24 -11 29
3 6 1 7 -5 3 -20 -12 -116 173 -99 190 19 20 286 -49 294 -75 17 -54 56 -114
108 -166 63 -64 155 -144 183 -159 16 -9 -45 64 -79 94 -24 21 -149 190 -149
201 0 14 8 11 58 -18 56 -33 172 -126 224 -180 28 -29 39 -50 43 -83 3 -24 19
-65 35 -91 32 -49 38 -79 17 -79 -21 0 -58 31 -51 42 4 7 2 8 -5 4 -6 -4 -30
6 -53 23 -22 17 -45 28 -50 25 -18 -12 6 -47 85 -124 121 -117 86 -119 -63 -4
-146 112 -305 267 -294 286 4 7 4 10 -1 6 -4 -4 -14 -3 -22 3 -7 6 -13 8 -13
5 0 -7 65 -103 99 -146 11 -13 17 -29 14 -35 -4 -5 -3 -7 1 -4 3 3 43 -32 89
-79 70 -73 155 -144 223 -189 16 -11 16 -12 2 -7 -25 8 -34 -22 -14 -45 9 -10
16 -23 16 -29 0 -26 -42 -9 -129 50 -50 33 -94 58 -98 54 -4 -3 0 -12 9 -19
109 -87 157 -131 151 -140 -3 -5 -1 -7 4 -4 14 9 45 -27 38 -44 -3 -8 11 -26
35 -43 68 -51 36 -40 -57 19 -191 121 -480 355 -466 378 3 6 1 7 -6 3 -14 -9
-66 38 -58 51 3 5 -3 9 -14 9 -10 0 -19 -3 -19 -5 0 -3 24 -29 53 -59 50 -51
51 -54 33 -68 -11 -8 -15 -14 -10 -14 6 0 14 4 19 9 6 6 56 -35 131 -107 67
-64 136 -129 155 -144 19 -14 60 -46 92 -71 57 -44 57 -44 35 -60 -23 -15 -23
-15 -3 -31 18 -14 99 -69 151 -103 24 -16 -48 13 -101 39 -67 34 -145 89 -139
99 3 5 -1 6 -9 3 -9 -3 -22 4 -31 18 -9 12 -16 18 -16 13 0 -5 -12 3 -27 17
-16 13 -42 35 -60 47 -22 15 -31 28 -28 42 2 11 0 17 -6 14 -5 -4 -6 -11 -3
-17 35 -56 -230 186 -363 332 -137 150 -236 283 -290 387 -53 103 -54 119 -8
139 43 17 55 18 55 1 0 -15 60 -110 66 -104 3 2 -3 20 -11 40 -32 78 -22 93
71 96 39 1 42 -1 48 -31z m-749 12 c3 -5 -1 -10 -9 -10 -9 0 -16 5 -16 10 0 6
4 10 9 10 6 0 13 -4 16 -10z m236 -47 c13 -16 12 -17 -3 -4 -10 7 -18 15 -18
17 0 8 8 3 21 -13z m219 -24 c0 -37 42 -146 83 -214 47 -77 225 -300 261 -326
5 -4 5 -12 1 -19 -5 -9 -4 -11 4 -6 6 4 18 0 27 -8 8 -9 12 -21 8 -27 -4 -7
-3 -9 3 -6 14 9 106 -81 97 -95 -4 -7 -3 -8 4 -4 7 4 46 -23 94 -66 46 -40
104 -91 130 -112 26 -21 46 -42 43 -46 -3 -4 1 -7 8 -6 15 1 187 -116 182
-124 -2 -3 23 -24 55 -45 32 -22 57 -41 55 -43 -8 -9 -174 92 -288 175 -44 32
-162 125 -269 212 -58 47 -35 13 32 -48 41 -37 67 -68 63 -74 -3 -7 -3 -9 2
-5 8 8 35 -11 95 -65 19 -18 52 -45 73 -60 20 -16 35 -32 32 -37 -3 -5 0 -12
6 -16 8 -5 9 -3 4 6 -10 17 0 12 62 -30 29 -19 53 -40 53 -46 0 -5 20 -25 45
-44 24 -18 41 -38 38 -43 -3 -6 -1 -7 5 -3 11 6 117 -52 109 -61 -6 -6 -105
39 -155 71 -25 16 -40 31 -36 38 5 7 3 8 -5 4 -13 -8 -44 11 -169 102 -44 31
-70 57 -66 64 4 7 3 8 -5 4 -6 -4 -25 3 -43 15 -63 45 -183 152 -180 161 1 5
-1 7 -6 4 -12 -7 -64 48 -55 59 5 4 2 5 -5 1 -15 -9 -158 121 -156 141 1 7 -3
10 -9 6 -5 -3 -33 19 -62 50 -28 31 -55 54 -58 51 -3 -3 5 -18 18 -32 13 -14
21 -30 18 -35 -4 -6 -1 -7 7 -2 10 6 12 4 6 -11 -4 -10 -4 -15 0 -11 10 10 45
-23 37 -36 -3 -5 -2 -7 4 -4 6 4 20 -5 33 -18 20 -21 21 -27 9 -42 -13 -16
-12 -17 4 -4 16 13 22 8 17 -14 -1 -5 2 -6 6 -2 11 10 185 -164 177 -177 -3
-6 -3 -8 2 -4 9 8 141 -110 138 -123 -2 -5 1 -8 6 -6 13 3 141 -103 138 -115
-1 -6 5 -13 13 -15 13 -4 13 -3 0 6 -8 6 -10 11 -4 11 5 0 22 -12 37 -28 32
-33 27 -67 -11 -80 -25 -8 -24 -9 41 -58 36 -27 74 -55 84 -62 25 -18 -85 42
-150 82 -82 49 -197 136 -197 148 0 6 -3 9 -6 5 -4 -3 -54 35 -112 86 -149
130 -157 138 -154 151 2 6 0 8 -4 3 -10 -10 -85 63 -77 76 3 6 1 7 -5 4 -14
-9 -234 223 -227 241 2 7 1 11 -4 8 -13 -8 -123 132 -115 146 4 6 3 8 -4 4
-11 -7 -55 47 -47 58 3 3 0 2 -6 -2 -22 -19 99 -193 262 -378 52 -58 93 -111
91 -116 -1 -5 1 -7 6 -4 5 3 22 -9 38 -25 16 -17 78 -77 139 -133 60 -55 109
-105 107 -109 -1 -5 1 -6 5 -4 5 3 22 -6 38 -20 17 -13 84 -65 150 -115 66
-50 122 -95 123 -99 2 -5 8 -9 14 -9 5 0 24 -11 41 -24 18 -13 56 -36 85 -50
76 -38 64 -40 -16 -3 -76 36 -276 157 -319 194 -15 14 -22 21 -14 17 9 -5 12
-3 7 5 -4 6 -12 9 -17 6 -12 -8 -80 45 -73 56 3 5 -1 7 -8 4 -7 -3 -38 15 -68
40 -30 26 -64 51 -75 57 -19 11 -19 10 -2 -9 9 -11 14 -24 10 -29 -5 -5 -4 -6
1 -1 12 9 77 -53 69 -66 -3 -6 -1 -7 5 -3 13 8 54 -29 44 -40 -4 -4 -2 -4 4
-1 11 7 29 -7 36 -28 1 -5 8 -10 15 -11 7 -1 32 -19 57 -40 45 -37 46 -39 24
-50 -19 -10 -28 -7 -70 28 -26 23 -45 45 -41 51 3 6 1 7 -4 4 -13 -8 -185 141
-177 154 3 5 2 8 -3 7 -14 -5 -55 30 -49 41 4 6 1 9 -7 6 -7 -3 -29 11 -49 32
-19 21 -76 77 -127 126 -50 48 -90 93 -88 100 1 6 -3 11 -10 10 -9 -2 -63 52
-278 282 -21 22 -62 70 -92 107 -51 63 -54 69 -40 88 15 21 16 20 41 -30 43
-85 186 -274 186 -245 0 4 -22 38 -49 74 -61 82 -121 205 -121 247 0 26 12 43
67 94 66 62 67 63 76 39 21 -51 57 -126 82 -167 14 -24 22 -48 19 -54 -4 -6
-3 -8 3 -5 6 4 31 -21 57 -54 40 -52 45 -63 35 -77 -11 -14 -11 -15 1 -4 20
17 33 15 25 -5 -5 -14 -4 -15 6 -6 12 12 -10 50 -61 105 -26 29 -107 179 -125
233 -9 27 -14 58 -11 70 3 12 32 36 68 58 l63 37 7 -40 c8 -46 87 -200 120
-233 20 -21 20 -20 -2 18 -59 100 -83 160 -84 214 -1 49 2 56 24 68 39 20 50
16 50 -18z m-2102 -66 c-5 -26 -38 -29 -38 -4 0 15 6 21 21 21 14 0 19 -5 17
-17z m4642 -87 c0 -11 -19 -15 -25 -6 -3 5 1 10 9 10 9 0 16 -2 16 -4z m-4042
-18 c19 -19 14 -46 -10 -54 -28 -9 -52 20 -37 47 11 22 30 24 47 7z m577 -108
c9 -14 -13 -50 -31 -50 -17 0 -28 24 -20 45 6 17 42 20 51 5z m3151 -61 c7
-12 -15 -31 -31 -26 -5 2 -11 11 -13 20 -4 19 32 24 44 6z m328 -65 c4 -11 1
-14 -11 -12 -9 2 -18 9 -21 16 -6 18 25 15 32 -4z m-794 -109 c0 -8 -4 -15
-10 -15 -5 0 -10 7 -10 15 0 8 5 15 10 15 6 0 10 -7 10 -15z m-3360 -49 c0 -8
-5 -18 -11 -22 -14 -8 -33 11 -25 25 10 16 36 13 36 -3z m1020 -42 c11 -25 41
-78 67 -117 26 -40 52 -79 58 -88 45 -73 297 -349 318 -349 6 0 3 8 -6 18 -10
10 -14 22 -10 26 5 4 1 6 -7 4 -9 -2 -14 4 -14 14 1 10 -2 16 -6 13 -9 -6
-183 218 -246 316 -47 73 -87 149 -82 154 7 8 97 -108 92 -117 -4 -6 -3 -8 3
-5 11 7 76 -56 68 -66 -3 -4 -2 -5 2 -2 10 8 163 -147 157 -157 -3 -5 -2 -7 3
-6 13 4 323 -294 317 -304 -3 -4 1 -5 9 -2 8 3 21 -3 28 -13 12 -16 124 -118
214 -195 17 -15 41 -36 55 -48 33 -28 -128 81 -202 137 -41 32 -56 48 -52 61
5 14 4 14 -4 3 -11 -16 -8 -18 -85 44 -42 33 -45 39 -31 50 14 9 14 14 4 20
-8 5 -11 4 -6 -3 9 -14 -15 -21 -36 -10 -32 16 -19 -3 32 -49 28 -25 47 -49
44 -54 -3 -5 -2 -8 3 -7 5 2 31 -17 59 -41 l49 -43 -45 7 c-25 4 -58 14 -73
22 -45 23 -45 6 1 -40 39 -40 55 -66 32 -52 -16 10 -11 -1 7 -16 14 -12 16
-12 8 1 -5 8 29 -17 76 -56 119 -99 156 -127 224 -168 33 -20 56 -36 50 -36
-16 0 -205 117 -279 172 -37 28 -63 54 -60 60 4 7 2 8 -5 4 -22 -14 -436 347
-427 371 4 8 1 11 -5 7 -6 -3 -35 18 -65 47 -29 29 -56 50 -59 47 -3 -3 13
-28 36 -56 22 -29 38 -56 34 -62 -4 -6 -1 -9 7 -8 7 2 12 -3 10 -10 -1 -6 1
-11 5 -10 5 2 28 -20 53 -47 25 -28 48 -51 53 -53 4 -2 7 -8 7 -13 0 -5 -27 9
-60 31 -183 124 -306 299 -360 510 -21 81 -21 85 -4 147 9 35 19 63 21 63 2 0
13 -21 23 -46z m2990 21 c14 -17 5 -51 -15 -59 -35 -13 -63 21 -45 55 13 23
43 25 60 4z m-160 -33 c0 -14 -11 -21 -26 -15 -8 3 -11 9 -8 14 7 11 34 12 34
1z m-4154 -273 c10 -17 -23 -46 -37 -32 -7 7 -9 19 -6 27 7 18 33 21 43 5z
m834 -73 c0 -8 -4 -18 -10 -21 -5 -3 -10 3 -10 14 0 12 5 21 10 21 6 0 10 -6
10 -14z m1116 -81 c46 -41 62 -60 53 -66 -16 -9 -52 8 -44 22 4 5 1 8 -7 7 -7
-2 -12 3 -10 10 1 8 -1 11 -6 8 -5 -3 -28 14 -51 38 -66 67 -16 53 65 -19z
m1584 42 c0 -8 -3 -17 -7 -20 -9 -9 -34 13 -27 24 8 14 34 11 34 -4z m-2088
-232 c53 -68 56 -72 35 -56 -37 29 -187 258 -187 285 0 6 27 -35 61 -89 33
-55 74 -118 91 -140z m-928 83 c22 -35 -27 -74 -59 -48 -20 17 -19 47 3 59 23
14 42 10 56 -11z m1566 -18 c0 -5 -2 -10 -4 -10 -3 0 -8 5 -11 10 -3 6 -1 10
4 10 6 0 11 -4 11 -10z m-597 -229 c76 -88 249 -251 330 -309 58 -42 63 -54 5
-14 -158 109 -374 324 -441 437 l-18 30 26 -30 c15 -16 59 -68 98 -114z m-363
59 c0 -5 -4 -10 -10 -10 -5 0 -10 5 -10 10 0 6 5 10 10 10 6 0 10 -4 10 -10z
m2067 -37 c-4 -3 -1 -13 6 -22 11 -14 10 -14 -5 -2 -16 12 -16 31 -1 31 4 0 3
-3 0 -7z m-3129 -45 c-3 -7 -11 -13 -18 -13 -7 0 -15 6 -17 13 -3 7 4 12 17
12 13 0 20 -5 18 -12z m3950 -16 c2 -7 -2 -10 -12 -6 -9 3 -16 11 -16 16 0 13
23 5 28 -10z m420 -34 c4 -34 -17 -49 -54 -39 -23 6 -30 14 -32 39 -3 26 1 34
20 41 30 12 62 -8 66 -41z m-1123 -58 c10 -11 16 -20 13 -20 -3 0 -13 9 -23
20 -10 11 -16 20 -13 20 3 0 13 -9 23 -20z m373 1 c7 -4 14 -23 15 -42 2 -29
-2 -35 -21 -37 -29 -4 -52 14 -52 42 0 37 29 56 58 37z m-298 -93 c23 -29 47
-53 52 -53 6 0 12 -8 14 -17 3 -26 55 -89 67 -81 6 3 7 1 3 -5 -8 -13 33 -74
45 -66 4 2 11 -1 15 -7 5 -8 3 -9 -6 -4 -8 5 -11 3 -8 -6 3 -8 10 -13 16 -12
5 1 16 -5 24 -15 12 -15 11 -16 -4 -3 -27 21 -22 5 20 -57 53 -78 95 -157 120
-225 92 -245 -126 -212 -576 87 -90 59 -165 106 -168 103 -2 -2 14 -16 36 -31
22 -14 40 -29 40 -32 0 -8 -160 107 -312 226 -46 36 -107 83 -135 105 -29 22
-50 45 -48 51 2 6 -2 17 -8 24 -24 26 18 -4 113 -80 536 -432 966 -652 1019
-523 11 29 11 124 -1 117 -6 -4 -34 67 -29 75 2 2 -1 7 -6 10 -5 3 -26 35 -47
71 -47 80 -145 219 -226 323 -34 42 -59 77 -56 77 2 0 23 -24 46 -52z m-1320
-137 c107 -71 120 -81 70 -56 -58 29 -192 121 -240 165 l-45 42 60 -45 c33
-24 103 -72 155 -106z m-535 59 c3 -5 2 -10 -4 -10 -5 0 -13 5 -16 10 -3 6 -2
10 4 10 5 0 13 -4 16 -10z m2758 -35 c7 -16 -8 -29 -23 -20 -15 9 -12 35 4 35
8 0 16 -7 19 -15z m165 -18 c2 -11 -3 -17 -17 -17 -23 0 -35 15 -26 31 10 15
39 6 43 -14z m-3548 -27 c0 -11 -7 -20 -15 -20 -8 0 -15 9 -15 20 0 11 7 20
15 20 8 0 15 -9 15 -20z m347 2 c6 -4 13 -21 15 -37 3 -33 -22 -46 -47 -25
-18 15 -20 56 -2 63 18 8 21 8 34 -1z m1430 -67 c7 -19 -24 -55 -47 -55 -17 0
-40 18 -40 32 0 7 55 35 73 37 4 1 10 -6 14 -14z m-2242 -15 c3 -5 -1 -10 -9
-10 -9 0 -16 5 -16 10 0 6 4 10 9 10 6 0 13 -4 16 -10z m2940 -376 c175 -98
305 -139 364 -114 56 23 55 103 -3 227 -20 43 -30 70 -22 59 8 -10 33 -61 56
-113 49 -110 57 -176 25 -200 -51 -38 -217 12 -409 123 -96 55 -306 191 -306
198 0 3 51 -28 113 -68 61 -40 144 -91 182 -112z m1010 56 c0 -29 -32 -41 -41
-16 -9 24 4 48 23 44 12 -2 18 -12 18 -28z m-1357 -2 c-2 -13 -10 -23 -18 -23
-8 0 -16 10 -18 23 -3 17 2 22 18 22 16 0 21 -5 18 -22z m-1488 -34 c0 -8 -4
-12 -10 -9 -5 3 -10 10 -10 16 0 5 5 9 10 9 6 0 10 -7 10 -16z m-775 -337 c58
-158 103 -292 100 -297 -3 -6 -12 -10 -20 -10 -14 0 -35 57 -134 382 -55 177
-69 229 -57 217 2 -2 52 -133 111 -292z m3445 273 c0 -5 -5 -10 -11 -10 -5 0
-7 5 -4 10 3 6 8 10 11 10 2 0 4 -4 4 -10z m-2362 -43 c4 -20 -25 -34 -39 -20
-14 14 1 45 20 41 9 -2 17 -11 19 -21z m187 -37 c0 -18 -6 -26 -21 -28 -26 -4
-40 24 -23 45 18 21 44 11 44 -17z m165 15 c0 -8 -7 -15 -15 -15 -8 0 -15 7
-15 15 0 8 7 15 15 15 8 0 15 -7 15 -15z m-1150 -65 c0 -5 -2 -10 -4 -10 -3 0
-8 5 -11 10 -3 6 -1 10 4 10 6 0 11 -4 11 -10z m3390 -26 c0 -9 -5 -14 -12
-12 -18 6 -21 28 -4 28 9 0 16 -7 16 -16z m-4438 -29 c0 -5 -5 -11 -11 -13 -6
-2 -11 4 -11 13 0 9 5 15 11 13 6 -2 11 -8 11 -13z m778 -30 c0 -5 -5 -3 -10
5 -5 8 -10 20 -10 25 0 6 5 3 10 -5 5 -8 10 -19 10 -25z m74 -170 c63 -150 77
-190 57 -170 -9 9 -131 308 -131 320 0 19 16 -14 74 -150z m1036 125 c0 -5 -4
-10 -9 -10 -6 0 -13 5 -16 10 -3 6 1 10 9 10 9 0 16 -4 16 -10z m2225 -74 c0
-22 -14 -29 -34 -17 -19 12 -6 43 16 39 10 -2 18 -12 18 -22z m-1345 -26 c0
-5 -7 -10 -15 -10 -8 0 -15 5 -15 10 0 6 7 10 15 10 8 0 15 -4 15 -10z m1016
-25 c-5 -14 -9 -15 -21 -5 -12 10 -13 16 -4 27 15 18 34 1 25 -22z m-2171 -25
c0 -8 -8 -16 -17 -18 -13 -2 -18 3 -18 18 0 15 5 20 18 18 9 -2 17 -10 17 -18z
m-1135 -20 c0 -5 -4 -10 -10 -10 -5 0 -10 5 -10 10 0 6 5 10 10 10 6 0 10 -4
10 -10z m860 -15 c0 -8 -7 -15 -15 -15 -8 0 -15 7 -15 15 0 8 7 15 15 15 8 0
15 -7 15 -15z m2168 -33 c3 -16 -2 -22 -16 -22 -24 0 -35 23 -19 39 16 16 31
8 35 -17z m-2230 -17 c68 -30 112 -73 112 -109 0 -26 -30 -119 -37 -113 -2 3
3 30 12 60 12 42 13 61 5 76 -9 19 -54 56 -90 76 -13 8 -13 7 -1 -8 7 -9 10
-17 6 -17 -4 0 -1 -7 6 -17 13 -15 12 -15 -11 -3 -23 12 -24 12 -10 -4 20 -26
22 -46 2 -39 -14 5 -13 2 3 -17 20 -23 19 -23 -15 2 -44 31 -102 54 -163 63
-26 4 -47 11 -47 16 0 15 39 49 57 49 9 0 14 3 10 6 -15 15 -70 -10 -88 -39
-20 -33 -27 -21 -8 14 16 30 47 39 124 36 50 -3 88 -12 133 -32z m-164 -80
c154 -33 197 -84 320 -377 l45 -108 -47 1 c-46 1 -46 1 -14 10 17 5 32 11 32
13 0 2 -20 52 -45 111 -58 137 -100 217 -131 246 l-25 23 -26 -34 c-15 -19
-48 -56 -75 -82 -37 -37 -55 -48 -80 -48 -18 -1 -58 -9 -88 -20 -68 -23 -79
-19 -13 6 61 22 76 35 29 24 -42 -9 -89 -37 -82 -49 3 -4 -9 -18 -26 -31 -27
-20 -38 -22 -97 -16 -36 3 -82 9 -102 12 -33 6 -37 4 -43 -19 -9 -36 8 -113
55 -257 23 -69 43 -126 44 -128 2 -2 18 4 37 13 l33 16 -35 -30 c-19 -17 -37
-31 -41 -31 -3 0 -29 75 -57 168 -81 260 -72 349 50 471 59 59 128 96 219 115
82 18 81 18 163 1z m-378 -51 c19 -15 19 -16 -1 -9 -46 17 -62 16 -85 -5 -22
-19 -23 -20 -3 -11 26 13 43 14 62 2 11 -7 7 -18 -22 -51 -40 -47 -76 -118
-78 -152 -1 -18 -2 -19 -6 -5 -2 9 -9 15 -14 12 -5 -4 -9 0 -9 7 0 10 -3 9
-11 -2 -8 -12 -10 -10 -5 10 5 24 5 24 -11 5 -15 -20 -15 -19 -8 4 5 15 3 21
-3 17 -6 -3 -12 0 -15 6 -2 7 -9 -10 -16 -39 -15 -63 -8 -80 55 -124 25 -17
43 -33 40 -36 -8 -8 -95 56 -107 79 -30 56 22 179 109 259 58 53 92 62 128 33z
m1462 -11 c2 -8 -6 -13 -22 -13 -17 0 -26 5 -26 16 0 19 41 16 48 -3z m-2193
-22 c3 -5 1 -13 -5 -16 -15 -9 -43 3 -35 15 8 13 32 13 40 1z m4025 -11 c0 -5
-4 -10 -10 -10 -5 0 -10 5 -10 10 0 6 5 10 10 10 6 0 10 -4 10 -10z m170 -50
c0 -5 -4 -10 -10 -10 -5 0 -10 5 -10 10 0 6 5 10 10 10 6 0 10 -4 10 -10z
m-1350 -141 c-30 -11 -60 -17 -67 -14 -7 2 -13 0 -13 -6 0 -6 -9 -8 -21 -4
-14 5 -19 3 -15 -3 3 -6 2 -13 -3 -16 -5 -4 -12 -2 -16 4 -10 16 -25 11 -18
-6 5 -14 3 -15 -15 -5 -19 10 -22 9 -22 -6 0 -13 -3 -14 -12 -5 -18 18 -28 15
-21 -5 7 -17 5 -17 -21 0 -28 19 -28 19 -21 -3 7 -21 7 -22 -22 -4 -16 10 -23
12 -15 4 21 -24 13 -31 -14 -13 -27 17 -27 17 -19 -7 7 -24 7 -24 -12 -7 -22
19 -44 24 -25 5 20 -20 13 -30 -10 -14 -26 19 -47 21 -30 4 19 -19 14 -33 -6
-15 -21 19 -42 23 -24 5 24 -24 11 -29 -18 -8 -33 23 -40 17 -13 -12 9 -10 11
-18 5 -18 -6 0 -14 4 -17 10 -3 5 -15 15 -26 21 -20 10 -20 10 -4 -15 21 -31
12 -34 -17 -6 -27 25 -47 26 -25 2 22 -25 22 -39 0 -20 -35 30 -46 31 -28 4
20 -31 6 -35 -20 -6 -10 11 -23 20 -28 20 -6 0 -3 -8 6 -18 26 -28 20 -36 -9
-13 -37 29 -52 26 -24 -4 13 -14 19 -25 13 -25 -6 0 -16 7 -23 16 -8 8 -23 20
-34 26 -20 10 -20 9 2 -14 33 -36 27 -43 -11 -14 -46 35 -57 33 -22 -4 16 -16
23 -30 17 -30 -7 0 -12 4 -12 8 0 4 -15 16 -32 26 l-33 19 23 -25 c32 -36 27
-43 -11 -14 -46 35 -57 33 -22 -4 35 -36 24 -40 -17 -5 -16 14 -34 25 -40 25
-6 0 1 -9 16 -21 14 -11 26 -25 26 -31 0 -7 -10 -2 -22 9 -13 11 -34 26 -48
33 -22 11 -20 8 9 -24 42 -44 32 -48 -16 -5 -19 16 -38 28 -41 25 -3 -3 7 -15
21 -27 15 -11 27 -25 27 -31 0 -7 -10 -2 -22 9 -13 11 -34 26 -48 33 -22 11
-20 8 9 -24 42 -44 32 -48 -16 -6 -33 29 -61 41 -48 20 5 -7 -3 -8 -22 -3 -15
4 -61 7 -100 6 -40 0 -73 3 -73 8 0 5 15 9 33 9 17 0 95 13 172 30 77 16 298
59 490 95 193 36 391 74 440 84 117 24 144 24 75 0z m-1770 -9 c0 -13 -10 -24
-27 -31 -16 -6 -48 -20 -72 -30 -41 -19 -45 -19 -62 -3 -10 9 -16 21 -13 25
12 20 101 58 137 59 31 0 37 -3 37 -20z m538 9 c-2 -6 -8 -10 -13 -10 -5 0
-11 4 -13 10 -2 6 4 11 13 11 9 0 15 -5 13 -11z m2502 -15 c0 -8 -7 -14 -15
-14 -15 0 -21 21 -9 33 10 9 24 -2 24 -19z m-3050 -65 c0 -18 -2 -19 -15 -9
-15 12 -12 30 6 30 5 0 9 -10 9 -21z m1780 2 c5 -11 10 -24 10 -30 0 -14 -29
-41 -45 -41 -19 0 -45 28 -45 49 0 9 12 22 28 28 38 15 40 15 52 -6z m-1820
-17 c0 -16 -16 -19 -25 -4 -8 13 4 32 16 25 5 -4 9 -13 9 -21z m-42 -18 c3
-12 -1 -17 -10 -14 -7 3 -15 13 -16 22 -3 12 1 17 10 14 7 -3 15 -13 16 -22z
m127 -16 c4 -6 -5 -8 -22 -4 -30 6 -63 -5 -103 -33 -14 -11 -21 -12 -16 -5 24
39 124 69 141 42z m-29 -41 c-32 -5 -59 -17 -77 -35 -16 -15 -29 -23 -29 -17
0 6 14 23 31 37 24 20 41 26 77 25 l47 -1 -49 -9z m-1401 -24 c0 -22 -31 -33
-47 -17 -17 17 -1 44 24 40 15 -2 23 -10 23 -23z m431 14 c10 -17 -13 -36 -27
-22 -12 12 -4 33 11 33 5 0 12 -5 16 -11z m1008 -25 c23 -9 20 -27 -3 -19 -15
4 -18 1 -14 -19 7 -36 -29 -54 -56 -27 -19 19 -21 19 -30 3 -10 -16 -10 -15
-11 2 0 46 64 79 114 60z m9 -136 c-17 -16 -27 -19 -50 -12 l-28 8 32 4 c17 2
37 10 44 18 6 8 14 12 17 9 3 -3 -4 -15 -15 -27z m-695 -75 c5 -17 -26 -29
-40 -15 -6 6 -7 15 -3 22 9 14 37 9 43 -7z m1287 -42 c-10 -9 -323 -143 -467
-200 -97 -38 -489 -163 -495 -158 -2 3 99 39 224 81 125 42 343 124 483 181
278 112 268 109 255 96z m-465 -25 c-35 -19 -202 -77 -207 -72 -2 2 9 9 24 14
173 67 237 87 183 58z m-1582 -32 l3 -29 -22 21 c-12 12 -18 27 -14 34 12 19
30 5 33 -26z m1850 31 c-27 -27 -612 -244 -624 -232 -3 2 66 30 153 60 87 31
226 83 308 116 144 56 174 67 163 56z m1180 -18 c4 -20 -25 -34 -40 -19 -15
15 -1 44 19 40 10 -2 19 -11 21 -21z m-1329 9 c-14 -14 -380 -149 -386 -142
-6 6 352 143 381 145 5 1 7 -1 5 -3z m-1439 -31 c19 -23 3 -57 -27 -53 -34 4
-51 31 -34 52 17 20 45 21 61 1z m643 -127 c-34 -35 -72 -83 -83 -108 l-21
-45 5 44 c3 30 1 40 -6 33 -6 -6 -13 -31 -16 -57 -3 -29 -8 -42 -13 -34 -4 7
-5 27 -3 44 4 23 3 27 -5 15 -6 -8 -11 -32 -11 -52 0 -22 -5 -38 -11 -38 -8 0
-10 15 -6 46 6 56 -7 46 -22 -16 l-10 -45 2 43 c2 37 1 41 -10 26 -7 -10 -13
-33 -13 -53 0 -19 -3 -31 -7 -28 -3 4 -6 24 -5 44 1 28 -1 34 -8 23 -5 -8 -10
-30 -10 -47 0 -18 -5 -33 -11 -33 -8 0 -10 14 -6 41 7 52 -1 44 -18 -18 l-13
-48 -1 39 c-1 47 -11 41 -21 -11 l-8 -38 -1 40 c-1 30 -4 36 -11 25 -5 -8 -10
-27 -10 -42 0 -15 -5 -30 -11 -34 -8 -5 -10 4 -7 29 5 46 -7 39 -18 -10 l-8
-38 -6 35 -6 35 -11 -45 c-10 -42 -11 -43 -12 -12 -1 41 -21 33 -21 -9 0 -16
-5 -29 -11 -29 -7 0 -10 12 -7 30 6 38 -4 29 -18 -18 l-12 -37 -2 35 -2 35
-13 -40 c-12 -36 -14 -37 -14 -12 -1 38 -21 24 -21 -14 0 -37 -20 -39 -21 -1
-1 20 -3 22 -6 7 -10 -44 -16 -51 -23 -25 -7 24 -7 24 -18 -10 -8 -27 -10 -30
-11 -12 -1 28 -21 19 -21 -9 0 -24 -20 -26 -20 -1 -1 11 -6 6 -15 -13 -13 -30
-13 -30 -15 -5 -2 25 -2 25 -15 -5 -10 -20 -14 -24 -15 -12 0 24 -20 11 -20
-14 0 -24 -20 -26 -21 -1 0 12 -3 10 -10 -8 -8 -20 -12 -22 -19 -10 -7 12 -11
10 -19 -10 -5 -14 -10 -19 -10 -12 -1 17 -21 15 -21 -3 0 -18 -20 -20 -21 -2
0 6 -5 1 -10 -13 -8 -20 -12 -22 -19 -10 -7 12 -10 12 -16 -3 -4 -10 -13 -16
-20 -13 -8 3 -14 -1 -14 -10 0 -10 -6 -14 -14 -11 -8 3 -16 3 -18 -1 -3 -8
-90 -44 -94 -39 -1 1 57 36 129 78 128 73 336 194 522 304 50 29 157 90 239
135 81 45 169 95 194 111 25 16 48 29 51 29 3 0 -22 -28 -56 -62z m1545 -2 c5
-23 -16 -46 -42 -46 -46 0 -62 48 -24 74 19 13 25 14 43 2 11 -7 21 -21 23
-30z m-1881 -12 c8 -22 -10 -49 -32 -49 -10 0 -22 7 -28 16 -15 24 -1 49 28
49 15 0 28 -7 32 -16z m-589 -66 c14 -14 -2 -48 -22 -48 -20 0 -37 25 -30 44
7 19 35 21 52 4z m3922 -42 c0 -3 -4 -8 -10 -11 -5 -3 -10 -1 -10 4 0 6 5 11
10 11 6 0 10 -2 10 -4z m-1096 -28 c16 -26 -4 -53 -39 -53 -19 0 -30 7 -36 22
-16 45 49 72 75 31z m936 -67 c0 -28 -28 -47 -48 -34 -24 15 -27 44 -7 59 22
17 55 1 55 -25z m-682 -6 c4 -20 -15 -36 -35 -28 -17 6 -17 40 0 46 19 8 32 2
35 -18z m-1951 9 c-3 -3 -12 -4 -19 -1 -8 3 -5 6 6 6 11 1 17 -2 13 -5z m984
-4 c22 -13 25 -43 5 -59 -33 -28 -74 27 -44 57 15 15 15 15 39 2z m-781 -46
c0 -8 -4 -12 -10 -9 -5 3 -10 10 -10 16 0 5 5 9 10 9 6 0 10 -7 10 -16z
m-1000 -3 c0 -6 -4 -13 -10 -16 -5 -3 -10 1 -10 9 0 9 5 16 10 16 6 0 10 -4
10 -9z m-380 -85 c0 -3 -4 -8 -10 -11 -5 -3 -10 -1 -10 4 0 6 5 11 10 11 6 0
10 -2 10 -4z m770 -6 c0 -15 -26 -23 -41 -14 -9 5 -7 10 7 15 27 11 34 10 34
-1z m460 -20 c0 -5 -7 -10 -15 -10 -8 0 -15 5 -15 10 0 6 7 10 15 10 8 0 15
-4 15 -10z"/>
<path d="M3060 5259 c0 -22 79 -127 138 -184 28 -27 49 -52 47 -55 -2 -4 2 -7
10 -7 8 0 15 2 15 5 0 5 -86 107 -132 157 -21 22 -36 46 -33 53 3 7 1 10 -4 7
-5 -3 -17 5 -25 17 -11 16 -16 18 -16 7z"/>
<path d="M3100 4971 c0 -6 4 -13 10 -16 6 -3 7 1 4 9 -7 18 -14 21 -14 7z"/>
<path d="M3130 4926 c0 -2 8 -10 18 -17 15 -13 16 -12 3 4 -13 16 -21 21 -21
13z"/>
<path d="M2591 4730 c17 -27 35 -52 40 -55 5 -4 9 -11 9 -16 0 -6 -5 -7 -12
-3 -7 4 -8 3 -4 -5 4 -6 11 -9 16 -6 11 7 72 -64 64 -76 -3 -5 -2 -8 3 -7 16
5 55 -30 48 -43 -5 -8 -4 -10 3 -5 6 4 20 -2 31 -13 11 -11 22 -17 25 -14 8 9
-230 293 -246 293 -4 0 6 -22 23 -50z"/>
<path d="M2996 4548 c5 -7 21 -23 36 -36 15 -13 25 -29 21 -35 -3 -7 -2 -9 2
-5 5 5 42 -25 84 -66 78 -76 182 -165 239 -205 18 -12 29 -27 26 -33 -4 -6 -2
-8 4 -4 6 3 28 -3 49 -15 l38 -21 -45 41 c-25 22 -44 45 -42 51 1 7 -1 9 -6 6
-5 -3 -28 11 -51 30 -36 31 -40 38 -29 53 12 14 11 15 -5 2 -18 -14 -33 -3
-117 79 -3 3 -31 27 -62 54 -32 26 -55 53 -51 59 3 6 1 7 -5 3 -6 -4 -26 7
-43 24 -32 30 -57 41 -43 18z"/>
<path d="M3155 4211 c-3 -5 -2 -12 3 -15 5 -3 9 1 9 9 0 17 -3 19 -12 6z"/>
<path d="M3077 4179 c7 -7 15 -10 18 -7 3 3 -2 9 -12 12 -14 6 -15 5 -6 -5z"/>
<path d="M2336 4267 c3 -10 9 -15 12 -12 3 3 0 11 -7 18 -10 9 -11 8 -5 -6z"/>
<path d="M2787 3909 c7 -7 15 -10 18 -7 3 3 -2 9 -12 12 -14 6 -15 5 -6 -5z"/>
<path d="M3465 3655 c53 -46 356 -280 373 -288 24 -12 -45 49 -97 86 -25 17
-95 70 -155 119 -104 83 -188 141 -121 83z"/>
<path d="M1970 2443 c0 -10 13 -33 28 -51 27 -33 28 -33 45 -14 17 19 16 20
-18 51 -40 35 -55 39 -55 14z"/>
<path d="M1828 2422 c-15 -6 -14 -12 7 -62 20 -49 27 -55 55 -58 52 -5 55 10
14 72 -37 56 -44 61 -76 48z"/>
<path d="M1913 2412 c-9 -6 -6 -17 13 -45 20 -31 31 -37 59 -37 19 0 35 3 35
6 0 3 -14 24 -31 45 -30 38 -51 47 -76 31z"/>
<path d="M1762 2398 c-15 -8 -21 -17 -17 -27 4 -9 11 -35 18 -58 12 -45 25
-52 63 -30 l21 12 -25 58 c-26 61 -26 61 -60 45z"/>
<path d="M1691 2371 c-11 -7 -13 -23 -8 -71 4 -34 9 -66 13 -71 6 -11 64 20
64 35 0 5 -8 33 -17 63 -17 53 -26 61 -52 44z"/>
<path d="M1632 2307 c-20 -9 -23 -17 -21 -64 1 -29 6 -53 10 -53 4 0 17 9 30
19 19 15 23 27 21 57 -4 48 -11 55 -40 41z"/>
<path d="M1559 2283 c-16 -42 -8 -77 19 -81 20 -3 22 0 22 46 0 59 -24 79 -41
35z"/>
<path d="M1842 2183 c-40 -14 -62 -36 -49 -49 9 -10 128 38 124 50 -6 17 -27
16 -75 -1z"/>
<path d="M1710 5462 c0 -7 226 -311 239 -322 3 -3 67 -75 140 -160 74 -85 162
-183 195 -218 33 -35 64 -69 69 -77 4 -8 13 -15 19 -15 6 0 3 9 -7 20 -10 11
-13 20 -8 20 11 0 27 -29 25 -42 -3 -14 92 -109 104 -104 7 3 11 0 8 -7 -2 -7
33 -50 79 -95 54 -54 83 -77 82 -65 -1 24 -14 45 -24 38 -5 -2 -19 4 -31 15
-13 11 -18 20 -12 20 7 0 12 5 12 11 0 8 -5 7 -16 -2 -13 -11 -15 -11 -12 2 4
18 -69 102 -81 94 -9 -5 -28 13 -31 30 -5 23 -13 35 -22 35 -5 0 -6 -5 -2 -12
4 -7 3 -8 -5 -4 -6 4 -8 12 -5 18 3 5 -13 29 -36 53 -23 24 -42 47 -41 51 1 5
-4 9 -9 9 -6 0 -15 6 -19 14 -5 7 -13 11 -18 8 -24 -15 -428 459 -538 630 -37
57 -55 75 -55 55z m631 -717 c3 2 6 -5 6 -17 2 -20 1 -20 -23 2 -28 27 -33 52
-6 27 10 -10 21 -15 23 -12z m73 -91 c5 -14 4 -15 -9 -4 -17 14 -19 20 -6 20
5 0 12 -7 15 -16z m41 -44 c3 -5 1 -10 -4 -10 -6 0 -11 5 -11 10 0 6 2 10 4
10 3 0 8 -4 11 -10z m111 -118 c-5 -4 -33 23 -56 53 -8 11 2 5 23 -14 20 -19
35 -36 33 -39z m79 -72 c3 -5 1 -10 -4 -10 -6 0 -11 5 -11 10 0 6 2 10 4 10 3
0 8 -4 11 -10z"/>
<path d="M2873 4175 c16 -15 31 -25 33 -22 3 3 -10 15 -28 27 l-33 23 28 -28z"/>
<path d="M3053 4023 c-1 -16 2 -21 7 -13 5 7 13 9 21 5 8 -5 5 1 -5 13 -11 12
-20 22 -20 22 -1 0 -2 -12 -3 -27z"/>
<path d="M3111 3971 c-9 -6 11 -28 66 -74 43 -37 109 -93 148 -126 38 -33 71
-58 74 -56 2 2 -11 16 -28 31 -17 14 -29 30 -26 34 8 13 -122 123 -136 114 -8
-4 -9 -3 -5 5 4 6 -6 23 -25 39 -44 38 -53 42 -68 33z m84 -70 c-3 -3 -22 12
-43 33 l-37 39 42 -33 c24 -18 41 -36 38 -39z m101 -80 c27 -24 40 -39 29 -33
-11 6 -42 32 -70 58 -60 56 -29 38 41 -25z"/>
<path d="M1165 991 c-82 -37 -148 -146 -99 -165 27 -10 73 -7 111 9 19 8 37
15 39 15 2 0 1 -7 -2 -15 -11 -28 21 -15 49 20 15 19 32 35 38 35 6 0 1 -12
-11 -27 -28 -36 -12 -52 36 -34 26 9 39 10 47 2 14 -14 52 -14 78 -1 10 6 19
7 19 2 0 -11 230 -12 252 -1 9 5 19 5 22 1 9 -15 203 -11 223 4 17 13 17 15
-7 36 -24 22 -30 31 -30 43 0 3 -10 1 -22 -6 l-21 -11 26 -17 c36 -21 34 -41
-3 -41 -22 0 -28 4 -24 15 5 13 2 13 -30 0 -19 -8 -46 -15 -58 -14 -18 0 -13
5 20 19 42 19 55 43 28 53 -20 8 -75 -9 -98 -30 -19 -17 -21 -17 -41 9 -18 21
-26 25 -40 17 -17 -10 -16 -12 8 -30 33 -27 32 -39 -6 -39 -27 0 -30 2 -19 15
16 19 7 19 -31 -1 -36 -18 -48 -11 -31 16 15 25 15 40 0 40 -7 0 -23 -16 -36
-35 -12 -19 -29 -35 -37 -35 -19 0 -19 10 1 38 29 42 3 44 -35 3 -53 -58 -96
-56 -51 2 27 34 7 46 -23 13 -23 -25 -75 -51 -84 -42 -3 3 4 11 16 18 12 7 21
18 21 25 0 19 -100 13 -130 -7 -37 -25 -117 -53 -129 -45 -31 18 18 95 83 130
41 22 57 14 31 -15 -18 -19 -17 -20 3 -20 28 0 55 39 40 57 -14 18 -45 16 -93
-6z m651 -106 c-11 -8 -25 -15 -30 -15 -6 0 -2 7 8 15 11 8 25 15 30 15 6 0 2
-7 -8 -15z"/>
<path d="M2623 988 c-11 -13 -37 -49 -58 -80 -21 -32 -40 -58 -42 -58 -2 0
-13 5 -25 11 -25 13 -68 4 -68 -16 0 -7 8 -16 18 -19 29 -9 265 -4 285 6 11 5
17 5 17 -2 0 -13 56 -13 81 1 13 7 25 7 32 1 19 -15 159 -13 184 4 30 19 64
19 57 -1 -4 -8 -1 -15 4 -15 11 0 24 12 54 49 10 11 23 21 30 21 6 0 1 -11
-12 -25 -18 -20 -21 -28 -12 -37 10 -10 19 -10 45 0 20 8 33 9 35 2 5 -14 32
-12 65 4 35 19 34 15 -4 -29 -18 -20 -29 -41 -25 -50 8 -21 29 -10 50 26 16
28 37 40 99 62 10 4 16 11 12 17 -4 6 -15 6 -32 -1 -34 -13 -38 -6 -18 25 23
35 5 34 -50 -4 -55 -38 -62 -38 -35 0 21 30 21 30 1 30 -11 0 -22 -8 -26 -19
-3 -10 -24 -25 -47 -34 l-42 -17 27 28 c15 16 27 31 27 34 0 3 -27 6 -60 6
-42 0 -60 -4 -60 -13 0 -12 -21 -25 -41 -25 -5 0 -9 9 -9 20 0 38 -73 28 -122
-16 -37 -33 -68 -44 -68 -24 0 6 17 21 37 33 27 15 33 23 21 25 -9 2 -26 -2
-37 -8 -14 -7 -21 -7 -21 0 0 5 -9 10 -20 10 -14 0 -20 -7 -20 -24 0 -17 -9
-27 -30 -36 -39 -16 -47 -8 -26 25 29 44 6 48 -33 6 -53 -57 -96 -56 -51 2 16
21 17 26 5 31 -11 4 -45 -30 -59 -61 -1 0 -23 -4 -49 -8 l-48 -7 56 77 c30 42
55 81 55 86 0 17 -26 9 -47 -13z m427 -107 c0 -15 -30 -41 -46 -41 -14 0 -20
31 -7 43 10 10 53 8 53 -2z"/>
<path d="M4155 995 c-22 -8 -41 -15 -43 -15 -2 0 -2 -11 0 -25 2 -20 -4 -29
-32 -43 -43 -21 -51 -53 -18 -76 27 -19 167 -23 186 -4 8 8 15 8 24 1 19 -15
158 -13 190 3 35 18 58 18 58 -1 0 -17 46 -21 70 -5 8 5 19 5 25 0 6 -5 49 -8
96 -7 63 2 93 7 113 20 38 25 28 30 -22 11 -22 -9 -48 -14 -58 -10 -15 6 -15
8 2 27 12 13 25 18 40 15 27 -7 39 7 20 23 -18 15 -43 5 -89 -36 -51 -46 -87
-45 -52 1 23 30 18 36 -25 36 -42 0 -50 9 -25 30 19 16 19 30 1 30 -8 0 -24
-13 -36 -30 -12 -16 -28 -30 -37 -30 -9 0 -13 -6 -10 -14 3 -8 -1 -17 -9 -20
-22 -8 -24 -8 -24 9 0 9 -11 20 -25 25 -33 12 -72 -3 -107 -41 -28 -30 -58
-39 -58 -16 0 7 14 21 32 32 35 20 23 34 -13 14 -17 -9 -24 -9 -27 0 -6 18
-32 13 -32 -7 0 -13 -15 -23 -49 -36 -58 -21 -120 -18 -135 6 -17 27 6 41 74
46 33 2 60 8 60 13 0 5 -9 9 -19 9 -59 0 -68 34 -13 49 51 15 59 14 79 -8 13
-14 23 -17 33 -10 13 8 11 13 -9 29 -28 24 -79 25 -136 5z m305 -120 c0 -14
-29 -35 -49 -35 -15 0 -14 23 1 38 17 17 48 15 48 -3z m174 4 c-7 -12 -74 -42
-80 -36 -2 2 3 13 12 25 16 23 82 33 68 11z"/>
<path d="M3660 940 c-12 -17 -30 -30 -43 -30 -15 0 -18 -3 -10 -11 8 -8 8 -19
0 -39 -15 -39 -5 -46 44 -33 22 6 42 6 45 2 8 -14 60 -10 101 7 72 30 86 39
91 54 4 12 1 11 -15 -2 -24 -22 -55 -24 -47 -4 8 22 -16 30 -83 28 -63 -3 -76
5 -48 28 19 16 19 30 1 30 -8 0 -24 -13 -36 -30z m39 -66 c-14 -17 -59 -38
-66 -30 -13 12 25 46 51 46 25 0 27 -2 15 -16z m91 1 c0 -14 -29 -35 -49 -35
-15 0 -14 23 1 38 17 17 48 15 48 -3z"/>
<path d="M5245 959 c-22 -5 -44 -14 -49 -19 -6 -6 4 -6 25 0 55 16 150 12 189
-8 52 -26 84 -97 89 -194 4 -94 -16 -165 -69 -247 -46 -71 -126 -139 -143
-122 -8 8 -2 19 26 42 49 40 67 77 67 137 0 62 -29 107 -89 139 -40 21 -57 23
-183 23 l-138 0 0 -270 0 -270 205 0 c172 0 205 2 205 14 0 8 -4 17 -9 20 -5
3 -12 17 -15 32 -6 21 2 35 44 81 68 75 107 133 138 206 22 53 26 78 26 167 0
93 -3 112 -26 162 -37 81 -87 112 -182 115 -39 1 -89 -2 -111 -8z m-26 -381
c22 -38 5 -77 -44 -105 -22 -13 -43 -23 -47 -23 -5 0 -8 36 -8 81 l0 80 42 -3
c34 -2 45 -8 57 -30z m-54 -279 c7 -22 -7 -39 -32 -39 -16 0 -17 32 -1 48 17
17 26 15 33 -9z"/>
<path d="M1595 941 c-3 -5 -1 -12 4 -15 12 -8 41 3 41 15 0 12 -37 12 -45 0z"/>
<path d="M2125 941 c-3 -5 -1 -12 5 -16 12 -7 30 2 30 16 0 12 -27 12 -35 0z"/>
<path d="M4673 938 c2 -7 10 -13 17 -13 7 0 15 6 18 13 2 7 -5 12 -18 12 -13
0 -20 -5 -17 -12z"/>
<path d="M5070 924 c-6 -14 -10 -29 -10 -34 0 -5 -13 -18 -30 -30 -43 -30 -37
-43 11 -24 30 13 46 14 63 6 31 -14 44 -3 42 35 -1 21 -10 38 -28 52 -33 27
-36 26 -48 -5z"/>
<path d="M2252 909 c-13 -5 -28 -6 -33 -3 -5 3 -28 -10 -49 -30 -54 -48 -91
-49 -55 -2 19 25 19 36 1 36 -18 0 -60 -66 -51 -80 3 -5 29 -9 57 -8 42 2 56
8 83 35 18 18 41 33 50 33 14 0 14 -3 -4 -26 -23 -29 -20 -44 9 -44 33 0 100
31 100 46 0 12 -3 12 -22 0 -13 -8 -34 -17 -47 -21 l-23 -7 23 32 c20 26 21
32 9 40 -18 11 -18 11 -48 -1z"/>
<path d="M312 699 c-63 -31 -82 -64 -82 -142 0 -54 4 -68 24 -90 31 -34 75
-55 127 -62 93 -13 89 -10 89 -70 0 -51 -2 -55 -27 -61 -39 -10 -57 7 -63 58
l-5 45 -72 -40 c-84 -47 -91 -67 -44 -115 86 -86 303 -69 354 28 21 40 19 141
-4 177 -20 33 -82 63 -141 70 -77 8 -88 17 -88 64 0 32 5 41 24 50 37 17 66
-3 66 -46 0 -19 2 -35 5 -35 21 0 145 78 145 91 0 21 -48 65 -92 83 -56 24
-163 21 -216 -5z"/>
<path d="M1455 701 c-23 -10 -53 -33 -68 -50 l-27 -33 0 -224 0 -224 75 0 74
0 3 67 3 68 43 23 42 23 0 -90 0 -91 80 0 80 0 0 219 c0 210 -1 219 -23 252
-49 74 -188 103 -282 60z m143 -154 l3 -56 -40 -21 c-22 -11 -43 -20 -46 -20
-3 0 -5 31 -5 69 0 60 3 72 21 85 14 9 29 12 43 7 17 -7 22 -18 24 -64z"/>
<path d="M2024 695 c-79 -39 -84 -55 -84 -252 0 -147 2 -172 19 -199 46 -76
200 -103 297 -53 69 36 86 73 82 188 l-3 91 -75 -43 -75 -43 -3 -52 c-3 -45
-6 -53 -27 -58 -13 -3 -33 -1 -44 6 -20 10 -21 19 -21 166 l0 154 26 10 c47
18 64 -1 64 -75 0 -36 2 -65 5 -65 3 0 39 19 81 42 l76 43 -5 38 c-15 109
-187 165 -313 102z"/>
<path d="M3895 696 c-79 -37 -85 -54 -85 -253 0 -147 2 -172 19 -199 63 -104
297 -103 361 1 20 32 21 46 18 209 -3 170 -4 175 -28 202 -62 67 -190 85 -285
40z m136 -86 c18 -10 19 -23 19 -170 l0 -160 -24 -6 c-13 -3 -34 -1 -45 6 -20
10 -21 19 -21 158 0 81 4 152 8 158 6 9 23 19 40 23 2 1 12 -4 23 -9z"/>
<path d="M4390 498 c0 -201 2 -226 19 -254 63 -104 297 -103 361 1 19 31 20
46 18 252 l-3 218 -75 0 -75 0 -3 -217 -2 -218 -24 -6 c-13 -3 -34 -1 -45 6
-20 10 -21 18 -21 225 l0 215 -75 0 -75 0 0 -222z"/>
<path d="M810 440 l0 -270 75 0 75 0 0 68 0 67 73 39 c152 82 187 120 187 203
0 59 -30 104 -90 136 -49 26 -60 27 -186 27 l-134 0 0 -270z m230 160 c21 -11
34 -53 25 -81 -6 -16 -80 -69 -98 -69 -4 0 -7 36 -7 80 l0 80 31 0 c17 0 39
-4 49 -10z"/>
<path d="M2520 440 l0 -270 205 0 c144 0 205 3 205 11 0 6 -10 29 -22 50 l-22
39 -93 1 c-51 1 -99 2 -105 3 -9 1 -14 23 -16 64 l-3 62 66 0 65 0 0 50 0 50
-65 0 -65 0 0 55 0 55 108 0 108 0 22 45 c12 25 22 48 22 50 0 3 -92 5 -205 5
l-205 0 0 -270z"/>
<path d="M3278 660 c26 -47 29 -50 70 -50 l42 0 0 -220 0 -220 80 0 80 0 0
220 0 220 43 0 c41 0 44 2 65 45 12 25 22 48 22 50 0 3 -97 5 -215 5 l-215 0
28 -50z"/>
</g>
</svg>
