<?xml version="1.0" standalone="no"?>
<!DOCTYPE svg PUBLIC "-//W3C//DTD SVG 20010904//EN"
 "http://www.w3.org/TR/2001/REC-SVG-20010904/DTD/svg10.dtd">
<svg version="1.0" xmlns="http://www.w3.org/2000/svg"
 width="562.000000pt" height="561.000000pt" viewBox="0 0 562.000000 561.000000"
 preserveAspectRatio="xMidYMid meet">

<g transform="translate(0.000000,561.000000) scale(0.100000,-0.100000)"
fill="#000000" stroke="none">
<path d="M240 4425 l0 -1035 1736 0 1735 0 120 -86 c65 -48 119 -87 119 -88 0
-4 3 -4 -1917 -5 l-1793 -1 0 -1035 0 -1035 201 -2 201 -3 -145 -83 c-80 -45
-150 -89 -157 -97 -17 -20 -8 -49 15 -53 11 -1 179 51 374 118 l354 120 1423
0 1424 0 -12 25 c-9 21 -8 28 7 45 24 27 47 25 75 -5 23 -24 23 -25 5 -45
l-18 -20 696 0 697 0 -2 1036 -3 1037 -351 -2 c-192 -1 -357 1 -366 4 -14 6
-108 152 -108 169 0 3 187 6 415 6 l415 0 0 630 c0 551 -2 631 -15 636 -8 4
-15 10 -15 15 0 5 7 9 15 9 13 0 15 50 15 390 l0 390 -1451 0 c-964 0 -1448
-3 -1444 -10 3 -5 2 -10 -4 -10 -5 0 -12 4 -16 10 -3 5 -26 9 -52 8 l-46 -1
24 -18 c30 -24 46 -24 28 -1 -13 15 -12 16 3 3 10 -7 15 -17 13 -22 -8 -12
116 -100 129 -92 8 4 8 2 0 -6 -9 -9 -36 6 -117 64 -93 67 -110 76 -143 73
-37 -3 -37 -3 74 -71 61 -37 114 -73 118 -79 4 -5 -20 7 -52 28 -33 21 -93 57
-134 81 l-75 43 -128 0 -128 0 3 -64 c2 -35 6 -62 9 -60 4 2 14 -15 23 -37 9
-23 39 -75 67 -117 27 -41 46 -79 42 -83 -11 -11 -66 58 -58 71 4 6 1 9 -5 8
-15 -4 -124 182 -142 240 -12 41 -13 42 -55 42 -24 0 -43 -3 -43 -6 0 -4 14
-31 31 -60 17 -30 27 -59 23 -65 -4 -7 -3 -9 4 -5 14 8 75 -80 66 -96 -4 -6
-3 -8 3 -5 6 4 45 -39 88 -96 87 -113 231 -284 309 -364 28 -29 47 -53 44 -53
-3 0 19 -24 50 -54 31 -30 54 -58 50 -61 -4 -4 -14 -1 -22 8 -8 8 -13 17 -10
20 3 3 -2 4 -13 3 -10 -2 -24 1 -30 7 -19 14 -16 -8 2 -23 12 -10 15 -10 15 0
0 10 3 10 15 0 12 -10 13 -15 4 -20 -8 -6 -8 -9 0 -14 6 -4 11 -3 11 1 0 5 11
9 24 8 48 0 170 -155 124 -155 -6 0 -5 -7 3 -17 7 -10 -17 11 -54 47 -37 35
-67 67 -67 69 0 3 5 0 11 -6 6 -6 19 -9 28 -6 12 4 13 3 3 -4 -10 -8 -10 -12
3 -23 11 -9 15 -9 15 -1 0 7 5 9 11 5 8 -5 8 -9 -1 -14 -8 -5 -8 -10 -2 -14
24 -15 18 24 -9 50 -16 15 -29 24 -29 19 0 -5 -5 -4 -11 2 -6 6 -17 9 -23 7
-7 -3 -49 34 -94 80 -77 80 -104 116 -64 85 14 -11 13 -10 -2 9 -20 23 -32 30
-21 12 3 -5 2 -10 -2 -10 -9 0 -37 39 -39 55 -1 6 -2 15 -3 20 -1 6 -5 4 -9
-3 -6 -9 -26 7 -70 57 -61 68 -79 97 -44 70 15 -13 16 -12 4 3 -8 9 -19 15
-25 13 -7 -3 -21 8 -31 23 l-19 27 26 -24 c15 -14 27 -20 27 -14 0 13 -45 55
-52 48 -5 -6 -110 109 -169 185 -19 24 -42 53 -51 63 -9 11 -36 47 -58 81 -32
46 -34 52 -11 26 17 -19 31 -31 31 -27 0 13 -92 139 -97 133 -3 -3 5 -20 18
-38 22 -32 22 -32 1 -14 -12 10 -24 27 -27 37 -6 18 -32 19 -736 19 l-729 0 0
-1035z m2227 990 c0 -8 -4 -12 -9 -9 -5 3 -6 10 -3 15 9 13 12 11 12 -6z m587
-27 c4 -18 18 -50 32 -71 14 -21 23 -45 20 -53 -3 -7 0 -16 6 -20 7 -5 8 -2 3
7 -15 27 11 -4 130 -149 5 -7 40 -42 77 -79 42 -42 64 -72 61 -82 -4 -12 -3
-13 4 -3 8 10 29 -4 87 -59 42 -39 80 -69 84 -65 3 4 -8 19 -26 33 -28 21 -31
28 -20 42 10 13 10 14 -2 4 -11 -10 -22 -4 -61 34 -26 26 -45 52 -42 57 4 6 3
8 -1 4 -11 -10 -65 52 -59 67 2 7 0 16 -6 20 -7 3 -8 0 -5 -9 9 -23 -5 -20
-27 7 -99 113 -219 296 -219 333 0 8 8 14 19 14 12 0 20 -9 24 -28 6 -31 69
-144 99 -178 10 -11 16 -22 14 -25 -3 -2 4 -15 15 -29 15 -20 18 -21 12 -5 -6
20 -6 20 16 1 12 -11 20 -25 17 -31 -2 -7 1 -12 8 -12 6 0 12 8 12 18 0 10 -4
15 -8 13 -4 -3 -8 -1 -8 4 0 5 -11 22 -24 37 -14 16 -22 33 -19 38 3 6 1 7 -5
3 -20 -12 -116 173 -99 190 19 20 286 -49 294 -75 18 -57 59 -116 130 -188 45
-46 85 -83 88 -83 3 0 16 -9 28 -21 12 -11 31 -25 42 -31 22 -12 -47 68 -77
90 -10 7 -18 17 -18 22 0 5 -14 24 -31 42 -40 44 -103 137 -96 144 15 15 197
-117 279 -203 29 -30 39 -49 42 -81 2 -25 17 -63 35 -91 33 -50 40 -81 18 -81
-21 0 -58 31 -51 42 4 7 2 8 -5 4 -7 -5 -26 3 -46 18 -59 45 -91 23 -41 -27
14 -14 22 -28 18 -33 -4 -4 -2 -4 4 -1 12 7 131 -109 122 -119 -8 -7 -45 12
-72 37 -11 11 -23 19 -27 19 -14 0 -153 117 -248 208 -65 62 -91 94 -86 103 5
8 5 11 0 7 -4 -4 -14 -3 -22 3 -41 35 22 -61 114 -172 76 -92 189 -199 261
-247 28 -19 52 -36 52 -37 0 -2 -9 -1 -20 2 -15 4 -20 0 -20 -15 0 -11 7 -25
15 -32 21 -17 19 -40 -4 -40 -11 0 -60 28 -110 62 -50 33 -94 58 -98 54 -4 -3
3 -13 15 -22 13 -9 19 -21 16 -27 -4 -7 -4 -9 1 -5 7 7 39 -15 117 -81 9 -8
14 -19 11 -25 -3 -6 -2 -8 2 -3 16 14 45 -24 38 -52 -3 -14 -3 -23 1 -19 4 3
15 0 24 -8 10 -7 26 -21 37 -29 36 -29 -42 13 -114 61 -148 97 -268 191 -263
206 1 5 -2 7 -6 4 -14 -8 -174 133 -166 146 4 7 2 8 -4 4 -6 -4 -28 9 -48 29
-52 51 -57 34 -5 -19 24 -24 40 -49 37 -55 -5 -7 -1 -8 10 -4 14 5 16 3 11
-11 -4 -9 -3 -15 2 -12 12 8 33 -19 23 -28 -4 -4 -2 -6 4 -4 6 2 58 -42 116
-97 58 -55 120 -112 139 -127 19 -14 59 -46 90 -70 56 -43 56 -43 35 -60 -21
-16 -21 -16 -1 -32 17 -14 67 -48 151 -103 33 -22 -59 17 -122 52 -77 42 -164
104 -164 117 0 5 -4 7 -9 4 -5 -3 -15 1 -22 10 -7 9 -32 29 -56 45 -24 17 -41
34 -38 38 2 5 -3 15 -13 22 -16 13 -16 13 -2 -5 33 -42 -14 -7 -126 94 -225
203 -438 455 -521 617 -53 103 -54 119 -8 139 43 17 55 18 55 1 0 -15 60 -110
66 -104 3 2 -3 20 -11 40 -32 78 -22 93 71 96 39 1 42 -1 48 -31z m-749 12 c3
-5 -1 -10 -9 -10 -9 0 -16 5 -16 10 0 6 4 10 9 10 6 0 13 -4 16 -10z m199 -16
c3 -8 2 -12 -4 -9 -6 3 -10 10 -10 16 0 14 7 11 14 -7z m256 -55 c0 -43 45
-152 97 -232 24 -38 40 -73 37 -79 -4 -6 -3 -8 3 -5 12 8 136 -140 128 -153
-4 -6 -2 -9 4 -8 14 4 132 -122 125 -134 -3 -4 0 -7 8 -6 7 2 12 -4 10 -12 -2
-8 0 -12 4 -7 9 8 46 -22 39 -33 -3 -4 3 -7 12 -6 9 0 18 -5 21 -13 3 -9 0
-11 -8 -6 -9 5 -11 4 -6 -4 4 -6 11 -9 16 -6 5 3 53 -33 107 -80 54 -48 134
-114 178 -147 44 -34 80 -64 80 -69 0 -4 4 -11 9 -16 5 -5 6 -3 2 5 -4 6 -5
12 -2 12 11 0 82 -55 83 -64 1 -4 28 -26 60 -47 32 -21 55 -39 51 -39 -31 0
-295 170 -291 188 2 6 -3 9 -10 7 -11 -5 -66 35 -214 157 -34 28 -60 54 -58
57 2 4 -6 7 -17 7 -16 0 -10 -9 26 -42 25 -22 42 -45 38 -49 -4 -5 -2 -5 4 -2
13 8 67 -46 57 -57 -5 -4 -3 -6 3 -4 7 2 38 -19 70 -47 64 -55 222 -174 242
-182 6 -3 12 -11 12 -18 0 -8 20 -28 45 -46 24 -17 42 -36 39 -40 -3 -5 1 -6
8 -4 8 3 24 -4 36 -15 12 -11 22 -18 22 -15 0 3 11 -2 25 -11 41 -27 22 -27
-37 -1 -79 35 -140 76 -132 89 5 7 3 8 -5 4 -13 -8 -44 11 -169 102 -44 31
-70 57 -66 64 4 7 3 8 -5 4 -15 -9 -73 32 -65 46 4 6 2 8 -3 5 -13 -8 -105 62
-97 74 3 5 1 8 -4 7 -16 -5 -123 92 -116 104 4 7 2 8 -5 4 -14 -9 -157 122
-155 141 1 7 -3 10 -9 6 -5 -3 -33 19 -62 50 -28 31 -55 54 -58 51 -3 -3 5
-18 18 -32 13 -14 21 -30 18 -35 -4 -6 -1 -7 7 -2 10 6 12 4 7 -8 -4 -10 -1
-14 6 -12 7 2 32 -21 57 -51 25 -30 86 -96 137 -146 51 -51 89 -97 86 -102 -3
-6 -2 -8 2 -3 12 10 66 -43 58 -57 -3 -6 -3 -8 2 -4 10 10 87 -51 79 -63 -3
-5 -1 -8 4 -7 14 4 143 -102 137 -112 -3 -5 0 -12 6 -16 8 -4 9 -3 5 4 -14 23
11 12 39 -18 27 -28 27 -30 11 -55 -10 -16 -23 -24 -32 -21 -46 18 22 -45 133
-122 10 -7 -5 -1 -34 13 -28 13 -54 29 -57 34 -4 5 -31 22 -60 37 -30 15 -70
42 -90 60 -20 18 -36 30 -36 27 0 -3 -7 0 -15 7 -8 7 -12 16 -9 21 3 5 -1 7
-8 4 -7 -3 -53 29 -101 71 -68 58 -86 79 -75 86 9 7 8 8 -6 4 -13 -4 -34 9
-75 46 -31 28 -55 55 -53 60 1 5 -2 7 -7 4 -14 -9 -312 303 -309 323 2 9 -2
15 -9 14 -15 -3 -55 52 -45 61 4 4 2 6 -4 4 -16 -5 -67 59 -58 73 4 7 3 9 -4
5 -11 -7 -55 47 -47 58 3 3 0 2 -5 -2 -7 -6 -2 -24 14 -52 14 -24 22 -48 19
-53 -4 -6 -1 -7 7 -2 10 6 12 4 7 -8 -4 -10 -2 -16 6 -14 7 1 11 -8 9 -23 -1
-17 1 -21 7 -12 6 10 18 0 47 -39 21 -30 60 -78 86 -108 26 -29 45 -58 41 -64
-3 -5 -1 -7 4 -4 12 7 116 -106 108 -117 -3 -3 -2 -4 1 -1 10 7 210 -187 206
-200 -2 -5 0 -7 3 -3 4 4 46 -26 94 -66 47 -40 133 -108 191 -151 58 -43 107
-81 110 -84 9 -11 86 -58 138 -85 29 -14 52 -29 52 -32 0 -3 -3 -3 -7 -1 -5 2
-42 21 -83 40 -100 49 -216 123 -212 137 1 6 -2 9 -8 5 -14 -8 -131 75 -123
88 3 6 1 7 -6 3 -7 -4 -49 22 -104 65 -50 40 -101 80 -112 88 -11 9 -8 2 8
-15 15 -17 24 -34 20 -39 -5 -4 -3 -5 3 -2 6 4 19 -2 28 -12 24 -26 1 -38 -27
-15 l-22 18 22 -24 c17 -19 25 -21 36 -12 12 10 21 5 51 -28 20 -22 36 -37 36
-34 0 4 7 1 15 -6 8 -7 13 -16 10 -20 -3 -4 3 -14 12 -21 12 -10 14 -10 9 -1
-13 22 5 12 54 -30 48 -41 49 -43 28 -54 -19 -10 -27 -7 -64 24 -24 19 -40 40
-37 45 3 6 1 7 -4 4 -13 -8 -36 17 -26 27 4 4 1 5 -7 2 -9 -3 -44 22 -90 65
-41 39 -68 67 -60 63 9 -4 12 -3 7 2 -5 5 -10 7 -12 4 -7 -10 -54 43 -48 53 4
6 1 7 -6 2 -15 -9 -143 114 -134 129 3 5 2 6 -4 3 -13 -8 -75 52 -66 66 3 6 1
7 -6 3 -14 -9 -62 38 -58 57 1 7 -3 11 -9 10 -10 -2 -68 56 -193 191 -25 28
-37 43 -26 35 11 -7 23 -18 27 -24 4 -5 8 -6 8 -1 0 5 -22 39 -49 75 -61 82
-121 205 -121 247 0 26 12 43 67 94 66 62 67 63 76 39 21 -51 57 -126 82 -167
14 -24 22 -48 19 -54 -4 -6 -2 -8 4 -4 6 3 21 -8 33 -26 13 -18 38 -51 56 -72
18 -21 30 -44 26 -50 -4 -7 -1 -7 7 1 10 9 4 23 -31 70 -90 119 -150 231 -164
306 -8 41 7 59 85 101 l50 27 0 -30 c0 -17 22 -73 49 -125 27 -52 47 -97 45
-100 -2 -3 -1 -4 2 -1 4 2 15 -6 26 -18 17 -18 16 -15 -3 18 -61 106 -82 161
-83 214 -1 49 2 56 24 68 39 20 50 16 50 -18z m-2102 -66 c-5 -26 -38 -29 -38
-4 0 15 6 21 21 21 14 0 19 -5 17 -17z m4642 -87 c0 -11 -19 -15 -25 -6 -3 5
1 10 9 10 9 0 16 -2 16 -4z m-4037 -27 c14 -22 2 -49 -22 -49 -26 0 -42 29
-29 53 11 21 36 19 51 -4z m916 -106 c18 -24 29 -43 25 -43 -3 0 5 -10 20 -21
16 -12 25 -27 22 -36 -3 -8 -2 -12 3 -8 5 3 27 -18 50 -46 22 -28 75 -89 118
-136 43 -47 77 -92 77 -99 -1 -8 2 -12 6 -9 4 2 63 -53 132 -123 225 -228 368
-362 594 -557 38 -33 81 -72 96 -86 15 -15 29 -25 30 -23 2 2 22 -13 44 -34
23 -20 44 -38 48 -39 17 -6 116 -87 116 -95 0 -5 4 -7 9 -3 5 3 12 1 16 -5 9
-15 239 -167 296 -196 30 -15 47 -29 43 -36 -4 -6 -3 -8 3 -5 5 3 38 -5 72
-19 206 -83 280 -20 193 166 -30 64 -98 172 -157 250 -43 58 -66 93 -48 75 6
-5 45 -57 87 -114 98 -132 189 -286 190 -322 1 -15 4 -25 7 -23 9 5 19 -34 19
-77 0 -22 -7 -42 -17 -50 -40 -34 -185 5 -330 89 -35 20 -74 43 -86 49 -12 7
-21 17 -20 23 2 5 -3 7 -10 4 -7 -2 -22 5 -34 16 -12 11 -25 20 -28 20 -23 0
-379 266 -458 343 -16 15 -31 27 -34 27 -6 0 -47 34 -142 119 -41 36 -102 90
-135 120 -124 109 -472 458 -560 561 -26 30 -64 73 -84 95 -95 103 -143 165
-136 176 4 7 3 9 -4 5 -14 -9 -96 99 -87 114 8 13 7 13 54 -47z m-344 7 c9
-14 -13 -50 -31 -50 -17 0 -28 24 -20 45 6 17 42 20 51 5z m490 -72 c15 -29
49 -82 76 -119 27 -37 49 -70 49 -73 0 -10 -64 58 -127 136 -49 60 -53 69 -41
87 7 12 14 21 15 21 1 0 14 -24 28 -52z m2661 11 c7 -12 -15 -31 -31 -26 -5 2
-11 11 -13 20 -4 19 32 24 44 6z m328 -65 c4 -11 1 -14 -11 -12 -9 2 -18 9
-21 16 -6 18 25 15 32 -4z m-794 -109 c0 -8 -4 -15 -10 -15 -5 0 -10 7 -10 15
0 8 5 15 10 15 6 0 10 -7 10 -15z m-3360 -49 c0 -8 -5 -18 -11 -22 -14 -8 -33
11 -25 25 10 16 36 13 36 -3z m1023 -48 c13 -29 45 -84 71 -122 25 -38 46 -72
46 -76 0 -4 7 -13 15 -20 8 -7 12 -16 9 -21 -3 -5 -1 -8 4 -7 5 2 27 -19 50
-47 81 -100 229 -255 243 -255 15 0 10 17 -7 24 -8 3 -12 11 -8 17 4 8 3 9 -4
5 -13 -8 -35 28 -24 39 4 5 2 5 -4 2 -14 -8 -127 140 -118 155 4 6 3 8 -3 5
-11 -7 -68 62 -126 155 -41 66 -80 139 -75 143 6 5 90 -95 92 -110 1 -8 6 -18
11 -22 4 -4 5 -1 0 7 -4 8 8 0 28 -19 20 -19 33 -39 30 -45 -3 -6 -2 -7 2 -3
12 10 136 -113 128 -127 -3 -6 -3 -8 2 -4 11 11 36 -12 28 -25 -3 -5 -2 -7 4
-4 13 8 56 -37 46 -47 -5 -4 -3 -6 3 -4 15 4 275 -243 267 -255 -3 -6 -1 -7 6
-3 7 5 32 -12 64 -43 29 -28 63 -58 75 -67 12 -8 19 -21 16 -27 -4 -7 -4 -9 1
-5 7 7 50 -26 138 -106 27 -24 24 -23 -18 7 -27 19 -75 51 -105 72 -104 72
-129 95 -124 113 5 14 4 14 -4 3 -11 -16 -8 -18 -85 44 -35 28 -44 40 -35 46
7 5 9 9 3 10 -5 0 -20 2 -32 3 -13 2 -23 1 -23 -2 0 -2 23 -24 50 -49 28 -25
47 -49 44 -54 -3 -5 -2 -8 3 -7 5 2 31 -17 59 -41 l49 -44 -40 7 c-61 10 -99
27 -83 37 7 5 9 9 3 9 -5 0 -17 -5 -25 -10 -12 -8 -7 -17 28 -52 39 -41 56
-68 32 -53 -16 10 -11 -1 7 -16 14 -12 16 -12 8 0 -4 8 32 -20 82 -62 91 -77
248 -187 266 -187 6 0 8 -3 4 -6 -7 -7 -66 26 -187 104 -113 74 -161 113 -153
125 3 6 1 7 -6 3 -13 -8 -104 62 -96 74 3 4 -1 7 -9 6 -22 -2 -272 221 -270
241 1 7 -2 10 -8 7 -13 -8 -39 16 -31 30 3 6 3 8 -2 4 -11 -11 -36 12 -28 26
3 6 2 8 -2 3 -5 -4 -30 14 -57 40 -51 51 -75 55 -33 5 24 -29 33 -48 17 -38
-4 2 -9 -5 -9 -17 -2 -20 -1 -20 8 -4 8 14 14 16 25 6 17 -14 19 -33 2 -23 -8
4 -10 3 -5 -2 5 -5 14 -9 20 -9 7 -1 11 -7 9 -14 -1 -7 2 -10 7 -7 9 6 47 -43
43 -57 -1 -4 2 -6 7 -5 5 2 20 -9 34 -24 33 -35 29 -35 -33 3 -28 17 -47 35
-43 41 3 6 1 8 -4 5 -17 -11 -135 105 -187 182 -61 91 -99 177 -126 281 -21
81 -21 85 -4 147 9 35 18 63 20 63 1 0 13 -24 27 -52z m2985 30 c16 -16 15
-33 -3 -51 -17 -18 -51 -12 -59 10 -15 37 34 69 62 41z m-158 -36 c0 -14 -11
-21 -26 -15 -8 3 -11 9 -8 14 7 11 34 12 34 1z m-4154 -273 c10 -17 -23 -46
-37 -32 -7 7 -9 19 -6 27 7 18 33 21 43 5z m1802 -10 c12 -11 20 -25 16 -30
-3 -5 0 -8 7 -7 8 2 14 -7 15 -19 1 -13 -4 -23 -9 -23 -6 0 25 -33 68 -74 44
-41 81 -70 83 -66 2 5 11 6 20 3 15 -4 15 -3 2 6 -8 6 -11 11 -7 11 5 0 70
-55 145 -122 198 -175 190 -167 172 -178 -10 -6 -20 -4 -31 6 -24 21 -35 17
-14 -6 12 -13 25 -18 38 -14 16 5 19 3 14 -10 -4 -11 -3 -15 4 -11 6 4 8 13 5
21 -8 20 3 17 41 -12 20 -15 32 -32 29 -40 -3 -8 0 -11 8 -8 8 3 29 -8 47 -24
45 -38 289 -232 324 -257 54 -38 70 -53 63 -60 -4 -4 -40 19 -81 51 -41 33
-96 75 -122 94 -26 19 -57 45 -70 58 -28 27 -45 29 -20 2 13 -14 14 -20 5 -20
-9 0 -7 -5 6 -16 10 -8 14 -14 7 -12 -9 2 -208 167 -257 213 -6 6 -56 50 -111
99 -173 154 -422 394 -423 408 0 7 -3 23 -6 36 -6 27 4 28 32 1z m-968 -63 c0
-8 -4 -18 -10 -21 -5 -3 -10 3 -10 14 0 12 5 21 10 21 6 0 10 -6 10 -14z
m1030 -17 c-13 -9 -13 -10 1 -6 18 6 96 -58 91 -75 -1 -5 2 -7 7 -4 5 3 14 -1
21 -10 10 -11 10 -18 1 -27 -8 -8 -26 4 -75 52 -37 37 -63 70 -61 80 2 9 4 18
4 21 1 2 7 -2 13 -8 10 -10 10 -15 -2 -23z m1670 -22 c0 -8 -3 -17 -7 -20 -9
-9 -34 13 -27 24 8 14 34 11 34 -4z m-2089 -230 c54 -70 57 -74 36 -58 -23 18
-115 149 -156 222 -53 94 -34 79 28 -24 33 -54 74 -117 92 -140z m-937 90 c36
-26 -4 -84 -41 -61 -25 16 -28 45 -7 61 10 7 21 13 24 13 3 0 14 -6 24 -13z
m1002 -281 c45 -50 127 -131 183 -180 101 -90 125 -114 74 -78 -124 89 -332
302 -386 397 -14 24 -11 22 15 -9 18 -22 70 -80 114 -130z m-386 84 c0 -5 -4
-10 -10 -10 -5 0 -10 5 -10 10 0 6 5 10 10 10 6 0 10 -4 10 -10z m2170 -211
c63 -79 114 -147 112 -151 -1 -4 2 -8 8 -8 16 0 150 -208 190 -295 45 -96 55
-147 35 -185 -19 -37 -54 -42 -141 -20 -81 21 -296 128 -287 143 3 6 1 7 -5 3
-10 -6 -254 150 -277 178 -5 7 -18 15 -28 19 -11 4 -15 12 -11 18 4 8 3 9 -5
5 -13 -9 -43 12 -36 24 3 5 63 -31 134 -78 71 -48 127 -91 124 -96 -4 -5 -1
-6 5 -2 6 4 51 -16 99 -43 173 -98 312 -130 347 -79 21 30 20 67 -4 135 -11
31 -17 61 -13 67 3 6 3 8 -2 4 -4 -4 -32 34 -62 85 -31 51 -62 99 -69 108 -8
9 -11 19 -7 22 3 4 2 7 -4 7 -5 0 -32 30 -59 67 -27 37 -78 103 -114 148 -36
44 -69 87 -74 95 -11 22 15 -9 144 -171z m-3230 131 c0 -5 -5 -12 -11 -16 -14
-8 -33 11 -25 25 7 11 36 4 36 -9z m3171 -17 c13 -16 12 -17 -3 -4 -10 7 -18
15 -18 17 0 8 8 3 21 -13z m777 -1 c2 -7 -2 -10 -12 -6 -9 3 -16 11 -16 16 0
13 23 5 28 -10z m420 -34 c4 -34 -17 -49 -54 -39 -23 6 -30 14 -32 39 -3 26 1
34 20 41 30 12 62 -8 66 -41z m-1123 -58 c10 -11 16 -20 13 -20 -3 0 -13 9
-23 20 -10 11 -16 20 -13 20 3 0 13 -9 23 -20z m378 -10 c8 -11 14 -31 13 -43
-1 -30 -53 -31 -72 -2 -12 18 -11 24 2 43 19 27 39 28 57 2z m-338 -33 c1 -7
6 -11 11 -10 6 1 11 -5 11 -13 0 -12 -3 -12 -17 1 -9 8 -17 22 -17 30 0 17 12
9 12 -8z m-1285 -187 c108 -71 128 -86 55 -45 -90 51 -179 113 -230 160 l-50
46 65 -49 c36 -27 108 -77 160 -112z m1372 85 c4 0 7 -2 6 -5 -4 -13 24 -50
34 -44 6 4 8 3 5 -3 -4 -6 27 -57 68 -114 88 -124 141 -212 179 -297 35 -79
42 -124 26 -162 -25 -60 -112 -48 -294 41 -112 54 -121 60 -286 168 -128 84
-136 89 -125 71 13 -21 390 -260 410 -260 2 0 32 -13 67 -29 90 -42 176 -58
217 -41 54 22 55 102 3 215 -17 36 -27 63 -23 60 20 -12 93 -198 94 -241 3
-63 -18 -78 -99 -70 -131 11 -402 157 -714 385 -57 42 -114 83 -126 91 -61 42
-153 123 -151 132 1 6 -4 13 -12 16 -10 3 -11 0 -5 -9 8 -15 -11 -2 -50 34
-11 9 -35 27 -53 40 -18 12 -31 27 -29 33 3 6 -1 17 -7 24 -24 26 18 -4 113
-80 543 -435 961 -651 1018 -525 16 36 15 61 -8 125 -11 30 -21 59 -23 65 -1
5 -6 14 -10 20 -4 5 -33 52 -65 103 -31 51 -94 143 -140 205 -46 61 -71 99
-56 82 15 -16 31 -30 36 -30z m-1907 -25 c3 -5 2 -10 -4 -10 -5 0 -13 5 -16
10 -3 6 -2 10 4 10 5 0 13 -4 16 -10z m335 -46 c0 -3 -13 4 -30 16 -16 12 -30
24 -30 26 0 3 14 -4 30 -16 17 -12 30 -24 30 -26z m2423 11 c7 -16 -8 -29 -23
-20 -15 9 -12 35 4 35 8 0 16 -7 19 -15z m165 -18 c2 -11 -3 -17 -17 -17 -25
0 -38 19 -20 31 19 12 33 6 37 -14z m-3548 -27 c0 -11 -7 -20 -15 -20 -8 0
-15 9 -15 20 0 11 7 20 15 20 8 0 15 -9 15 -20z m347 2 c6 -4 13 -21 15 -37 3
-33 -22 -46 -47 -25 -18 15 -20 56 -2 63 18 8 21 8 34 -1z m1430 -67 c7 -19
-24 -55 -47 -55 -17 0 -40 18 -40 32 0 7 55 35 73 37 4 1 10 -6 14 -14z
m-2242 -15 c3 -5 -1 -10 -9 -10 -9 0 -16 5 -16 10 0 6 4 10 9 10 6 0 13 -4 16
-10z m3950 -320 c0 -29 -32 -41 -41 -16 -9 24 4 48 23 44 12 -2 18 -12 18 -28z
m-1357 -2 c-2 -13 -10 -23 -18 -23 -8 0 -16 10 -18 23 -3 17 2 22 18 22 16 0
21 -5 18 -22z m-1488 -34 c0 -8 -4 -12 -10 -9 -5 3 -10 10 -10 16 0 5 5 9 10
9 6 0 10 -7 10 -16z m-775 -337 c58 -158 103 -292 100 -297 -3 -6 -12 -10 -20
-10 -14 0 -35 59 -134 382 -56 180 -68 229 -57 217 2 -2 52 -133 111 -292z
m3445 273 c0 -5 -5 -10 -11 -10 -5 0 -7 5 -4 10 3 6 8 10 11 10 2 0 4 -4 4
-10z m-2362 -43 c4 -20 -25 -34 -39 -20 -14 14 1 45 20 41 9 -2 17 -11 19 -21z
m187 -37 c0 -18 -6 -26 -21 -28 -26 -4 -40 24 -23 45 18 21 44 11 44 -17z
m165 15 c0 -8 -7 -15 -15 -15 -8 0 -15 7 -15 15 0 8 7 15 15 15 8 0 15 -7 15
-15z m-1150 -65 c0 -5 -2 -10 -4 -10 -3 0 -8 5 -11 10 -3 6 -1 10 4 10 6 0 11
-4 11 -10z m3390 -25 c0 -8 -7 -15 -15 -15 -8 0 -15 7 -15 15 0 8 7 15 15 15
8 0 15 -7 15 -15z m-4438 -30 c0 -5 -5 -11 -11 -13 -6 -2 -11 4 -11 13 0 9 5
15 11 13 6 -2 11 -8 11 -13z m778 -30 c0 -5 -5 -3 -10 5 -5 8 -10 20 -10 25 0
6 5 3 10 -5 5 -8 10 -19 10 -25z m80 -184 c58 -138 71 -176 51 -156 -10 11
-131 310 -131 323 1 14 20 -26 80 -167z m1030 139 c0 -5 -4 -10 -9 -10 -6 0
-13 5 -16 10 -3 6 1 10 9 10 9 0 16 -4 16 -10z m2225 -74 c0 -22 -14 -29 -34
-17 -19 12 -6 43 16 39 10 -2 18 -12 18 -22z m-1345 -26 c0 -5 -7 -10 -15 -10
-8 0 -15 5 -15 10 0 6 7 10 15 10 8 0 15 -4 15 -10z m1020 -13 c0 -8 -3 -17
-7 -20 -9 -9 -34 13 -27 24 8 14 34 11 34 -4z m-2175 -37 c0 -8 -8 -16 -17
-18 -13 -2 -18 3 -18 18 0 15 5 20 18 18 9 -2 17 -10 17 -18z m-1135 -20 c0
-5 -4 -10 -10 -10 -5 0 -10 5 -10 10 0 6 5 10 10 10 6 0 10 -4 10 -10z m860
-16 c0 -17 -22 -14 -28 4 -2 7 3 12 12 12 9 0 16 -7 16 -16z m2168 -28 c6 -28
-13 -40 -32 -21 -13 14 -14 20 -5 31 15 18 33 13 37 -10z m-2262 -8 c78 -25
144 -80 144 -120 0 -28 -30 -121 -37 -115 -2 3 3 30 12 60 12 42 13 61 5 76
-9 19 -54 56 -90 76 -13 8 -13 7 -1 -8 7 -9 10 -17 6 -17 -4 0 -1 -7 6 -17 13
-15 12 -15 -11 -3 -23 12 -24 12 -10 -4 20 -26 22 -46 2 -39 -14 5 -13 2 3
-17 20 -23 19 -23 -15 2 -44 31 -102 54 -163 63 -26 4 -47 11 -47 16 0 15 39
49 57 49 9 0 14 3 10 6 -15 15 -70 -10 -88 -39 -20 -33 -27 -21 -8 14 23 44
121 51 225 17z m-101 -99 c126 -33 173 -94 289 -371 l45 -108 -47 1 c-46 1
-46 1 -14 10 17 5 32 11 32 13 0 8 -90 216 -113 262 -26 51 -73 114 -86 114
-3 0 -26 -25 -49 -55 -60 -77 -97 -101 -162 -108 -36 -4 -48 -3 -35 3 18 8 18
9 -5 9 -29 1 -94 -35 -86 -48 3 -4 -8 -18 -24 -29 -33 -25 -72 -27 -167 -11
-35 6 -67 8 -71 4 -18 -18 0 -122 44 -256 25 -79 48 -145 49 -147 2 -2 18 4
37 13 l33 16 -35 -30 c-19 -17 -37 -31 -40 -31 -3 0 -29 75 -58 168 -75 241
-73 318 16 434 99 131 281 191 447 147z m-409 -45 c19 -15 19 -16 -1 -9 -46
17 -62 16 -85 -5 -22 -19 -23 -20 -3 -11 26 13 43 14 62 2 12 -8 9 -16 -17
-46 -38 -43 -82 -125 -83 -157 -1 -19 -2 -20 -6 -4 -4 15 -7 16 -14 5 -7 -11
-9 -9 -9 6 0 17 -2 18 -11 5 -8 -12 -10 -10 -5 10 5 24 5 24 -11 5 -15 -20
-15 -19 -8 4 5 15 3 21 -3 17 -6 -3 -12 0 -15 6 -2 7 -9 -10 -16 -39 -15 -63
-8 -80 55 -124 25 -17 43 -33 40 -36 -8 -8 -95 56 -107 79 -30 56 22 179 109
259 58 53 92 62 128 33z m1462 -11 c2 -8 -6 -13 -22 -13 -17 0 -26 5 -26 16 0
19 41 16 48 -3z m-2193 -22 c3 -5 1 -13 -5 -16 -15 -9 -43 3 -35 15 8 13 32
13 40 1z m4025 -11 c0 -5 -4 -10 -10 -10 -5 0 -10 5 -10 10 0 6 5 10 10 10 6
0 10 -4 10 -10z m170 -50 c0 -5 -4 -10 -10 -10 -5 0 -10 5 -10 10 0 6 5 10 10
10 6 0 10 -4 10 -10z m-2515 -10 c3 -5 1 -10 -4 -10 -6 0 -11 5 -11 10 0 6 2
10 4 10 3 0 8 -4 11 -10z m-725 -115 c-14 -8 -29 -14 -35 -14 -5 0 1 6 15 14
14 8 30 14 35 14 6 0 -1 -6 -15 -14z m1890 -16 c-30 -11 -60 -17 -67 -14 -7 2
-13 0 -13 -6 0 -6 -9 -8 -21 -4 -16 5 -19 4 -14 -5 6 -10 1 -11 -18 -6 -22 5
-25 3 -20 -10 5 -14 3 -15 -15 -5 -19 10 -22 9 -22 -6 0 -13 -3 -14 -12 -5
-17 17 -28 15 -21 -4 5 -14 2 -14 -22 2 l-28 18 8 -23 c7 -23 7 -23 -22 -5
-16 10 -23 12 -15 4 21 -24 13 -31 -14 -13 -27 17 -27 17 -19 -7 7 -24 7 -24
-12 -7 -22 19 -44 24 -25 5 20 -20 13 -30 -10 -14 -26 19 -47 21 -30 4 19 -19
14 -33 -6 -15 -21 19 -42 23 -24 5 20 -20 13 -30 -10 -14 -31 22 -45 20 -23
-4 10 -11 13 -20 7 -20 -6 0 -14 4 -17 10 -3 5 -15 15 -26 21 -20 10 -20 10
-4 -15 20 -31 6 -35 -20 -6 -10 11 -23 20 -28 20 -6 0 -3 -8 6 -18 22 -25 22
-39 0 -20 -35 30 -46 31 -28 4 20 -31 6 -35 -20 -6 -10 11 -23 20 -28 20 -6 0
-3 -8 6 -18 26 -28 20 -36 -9 -13 -37 29 -52 26 -24 -4 13 -14 19 -25 13 -25
-6 0 -16 7 -23 16 -8 8 -23 20 -34 26 -20 10 -20 9 2 -14 33 -36 27 -43 -11
-14 -46 35 -57 33 -22 -4 16 -16 23 -30 17 -30 -7 0 -12 4 -12 8 0 4 -15 16
-32 26 l-33 19 23 -25 c32 -36 27 -43 -11 -14 -46 35 -57 33 -22 -4 35 -36 24
-40 -17 -5 -16 14 -34 25 -40 25 -6 0 1 -9 16 -21 14 -11 26 -25 26 -31 0 -7
-10 -2 -22 9 -13 11 -34 26 -48 33 -22 11 -20 8 9 -24 42 -44 32 -48 -16 -5
-19 16 -38 28 -41 25 -3 -3 7 -15 21 -27 15 -11 27 -25 27 -31 0 -7 -10 -2
-22 9 -13 11 -34 26 -48 33 -22 11 -20 8 9 -24 42 -44 32 -48 -16 -6 -33 29
-61 41 -48 20 5 -7 -3 -8 -22 -3 -15 4 -61 7 -100 6 -41 0 -71 3 -67 8 3 5 17
9 32 9 15 0 90 14 167 30 77 16 334 65 570 110 237 44 435 82 440 85 6 2 19 3
30 3 11 1 -5 -8 -35 -19z m-1770 -9 c0 -13 -10 -24 -27 -31 -16 -6 -48 -20
-72 -30 -41 -19 -45 -19 -62 -3 -10 9 -16 21 -13 25 12 20 101 58 137 59 31 0
37 -3 37 -20z m538 9 c-2 -6 -8 -10 -13 -10 -5 0 -11 4 -13 10 -2 6 4 11 13
11 9 0 15 -5 13 -11z m2502 -15 c0 -8 -7 -14 -15 -14 -15 0 -21 21 -9 33 10 9
24 -2 24 -19z m-3050 -65 c0 -18 -2 -19 -15 -9 -15 12 -12 30 6 30 5 0 9 -10
9 -21z m1778 9 c25 -25 2 -78 -33 -78 -19 0 -45 28 -45 49 0 9 12 22 28 28 37
15 36 15 50 1z m-1818 -24 c0 -16 -16 -19 -25 -4 -8 13 4 32 16 25 5 -4 9 -13
9 -21z m-42 -18 c3 -12 -1 -17 -10 -14 -7 3 -15 13 -16 22 -3 12 1 17 10 14 7
-3 15 -13 16 -22z m125 -13 c3 -5 -14 -8 -38 -9 -27 -1 -55 -9 -76 -24 l-34
-24 20 23 c11 13 29 27 40 32 26 10 82 11 88 2z m-27 -44 c-32 -5 -59 -17 -77
-35 -16 -15 -29 -23 -29 -17 0 6 14 23 31 37 24 20 41 26 77 25 l47 -1 -49 -9z
m-1401 -24 c0 -22 -31 -33 -47 -17 -17 17 -1 44 24 40 15 -2 23 -10 23 -23z
m431 14 c10 -17 -13 -36 -27 -22 -12 12 -4 33 11 33 5 0 12 -5 16 -11z m1008
-25 c23 -9 20 -27 -3 -19 -15 4 -18 1 -14 -19 7 -37 -29 -54 -57 -26 -11 11
-20 16 -20 10 0 -5 -4 -10 -10 -10 -17 0 -11 22 12 47 21 22 59 30 92 17z m9
-136 c-17 -16 -27 -19 -50 -12 l-28 8 32 4 c17 2 37 10 44 18 6 8 14 12 17 9
3 -3 -4 -15 -15 -27z m-695 -75 c5 -17 -26 -29 -40 -15 -6 6 -7 15 -3 22 9 14
37 9 43 -7z m1287 -43 c-3 -5 -12 -10 -18 -10 -7 0 -6 4 3 10 19 12 23 12 15
0z m-465 -24 c-35 -19 -202 -77 -207 -72 -2 2 9 9 24 14 173 67 237 87 183 58z
m429 10 c-6 -7 -294 -130 -410 -177 -111 -44 -509 -172 -516 -166 -2 3 99 39
224 81 125 42 332 119 458 171 213 86 255 102 244 91z m-2011 -42 l3 -29 -22
21 c-12 12 -18 27 -14 34 12 19 30 5 33 -26z m1832 22 c-94 -51 -594 -235
-606 -223 -3 2 66 30 153 60 87 31 226 83 308 116 148 58 194 73 145 47z
m1198 -9 c4 -20 -25 -34 -40 -19 -15 15 -1 44 19 40 10 -2 19 -11 21 -21z
m-1329 9 c-14 -14 -380 -149 -386 -142 -6 6 352 143 381 145 5 1 7 -1 5 -3z
m-1439 -31 c19 -23 3 -57 -27 -53 -34 4 -51 31 -34 52 17 20 45 21 61 1z m649
-120 c-30 -30 -67 -79 -83 -107 l-28 -53 5 44 c4 30 2 40 -5 33 -6 -6 -13 -31
-16 -57 -3 -29 -8 -42 -13 -34 -4 7 -5 27 -3 44 4 23 3 27 -5 15 -6 -8 -11
-32 -11 -52 0 -22 -5 -38 -11 -38 -8 0 -10 15 -6 46 6 56 -7 46 -22 -16 l-10
-45 2 43 c2 37 1 41 -10 26 -7 -10 -13 -33 -13 -53 0 -19 -3 -31 -7 -28 -3 4
-6 24 -5 44 1 28 -1 34 -8 23 -5 -8 -10 -30 -10 -47 0 -18 -5 -33 -11 -33 -8
0 -10 14 -6 41 7 52 -1 44 -18 -18 l-13 -48 -1 39 c-1 47 -11 41 -21 -11 l-8
-38 -1 40 c-1 30 -4 36 -11 25 -5 -8 -10 -27 -10 -42 0 -15 -5 -30 -11 -34 -8
-5 -10 4 -7 29 5 46 -7 39 -18 -10 l-8 -38 -6 35 -6 35 -11 -45 c-10 -42 -11
-43 -12 -12 -1 41 -21 33 -21 -9 0 -16 -5 -29 -11 -29 -7 0 -10 12 -7 30 6 38
-4 29 -18 -18 l-12 -37 -2 35 -2 35 -13 -40 c-12 -36 -14 -37 -14 -12 -1 38
-21 24 -21 -14 0 -34 -19 -30 -21 4 -1 20 -2 20 -6 2 -10 -44 -16 -51 -23 -25
-7 24 -7 24 -18 -10 -8 -27 -10 -30 -11 -12 -1 28 -21 19 -21 -9 0 -27 -20
-24 -21 4 -1 16 -4 13 -11 -13 -11 -34 -11 -34 -18 -10 l-6 25 -11 -30 c-7
-19 -12 -23 -12 -12 -1 24 -21 11 -21 -14 0 -24 -20 -26 -21 -1 0 12 -3 10
-10 -8 -8 -20 -12 -22 -19 -10 -7 12 -11 10 -19 -10 -5 -14 -10 -19 -10 -12
-1 17 -21 15 -21 -3 0 -18 -20 -20 -21 -2 0 6 -5 1 -10 -13 -8 -20 -12 -22
-19 -10 -7 12 -10 12 -16 -3 -4 -10 -13 -16 -20 -13 -8 3 -14 -1 -14 -10 0
-10 -6 -14 -14 -11 -8 3 -16 3 -18 -1 -2 -4 -23 -15 -47 -25 -64 -24 -42 -8
94 71 304 176 491 285 500 292 6 4 98 56 205 116 107 59 215 120 239 136 25
15 47 28 49 28 2 0 -20 -25 -49 -55z m1539 -9 c5 -23 -16 -46 -42 -46 -46 0
-62 48 -24 74 19 13 25 14 43 2 11 -7 21 -21 23 -30z m-1881 -12 c8 -22 -10
-49 -32 -49 -10 0 -22 7 -28 16 -15 24 -1 49 28 49 15 0 28 -7 32 -16z m-589
-66 c14 -14 -2 -48 -22 -48 -20 0 -37 25 -30 44 7 19 35 21 52 4z m3922 -42
c0 -3 -4 -8 -10 -11 -5 -3 -10 -1 -10 4 0 6 5 11 10 11 6 0 10 -2 10 -4z
m-1096 -28 c16 -26 -4 -53 -39 -53 -19 0 -30 7 -36 22 -16 45 49 72 75 31z
m936 -67 c0 -28 -28 -47 -48 -34 -24 15 -27 44 -7 59 22 17 55 1 55 -25z
m-682 -8 c3 -21 -22 -38 -39 -27 -13 8 -11 42 4 47 20 9 32 2 35 -20z m-1951
11 c-3 -3 -12 -4 -19 -1 -8 3 -5 6 6 6 11 1 17 -2 13 -5z m991 -6 c30 -30 0
-78 -37 -58 -32 17 -21 70 14 70 6 0 16 -5 23 -12z m-788 -44 c0 -8 -4 -12
-10 -9 -5 3 -10 10 -10 16 0 5 5 9 10 9 6 0 10 -7 10 -16z m-1000 -3 c0 -6 -4
-13 -10 -16 -5 -3 -10 1 -10 9 0 9 5 16 10 16 6 0 10 -4 10 -9z m-380 -85 c0
-3 -4 -8 -10 -11 -5 -3 -10 -1 -10 4 0 6 5 11 10 11 6 0 10 -2 10 -4z m770 -6
c0 -15 -26 -23 -41 -14 -9 5 -7 10 7 15 27 11 34 10 34 -1z m460 -20 c0 -5 -7
-10 -15 -10 -8 0 -15 5 -15 10 0 6 7 10 15 10 8 0 15 -4 15 -10z"/>
<path d="M3246 5257 c3 -10 9 -15 12 -12 3 3 0 11 -7 18 -10 9 -11 8 -5 -6z"/>
<path d="M3060 5243 c0 -4 4 -15 10 -23 6 -9 5 -20 -3 -30 -10 -13 -10 -13 4
-2 14 10 20 7 41 -25 29 -43 149 -165 156 -158 4 4 -107 141 -156 191 -7 7
-11 19 -10 26 2 6 -1 12 -7 13 -5 0 -16 4 -22 8 -7 5 -13 5 -13 0z"/>
<path d="M3603 5095 c0 -8 4 -12 9 -9 5 3 6 10 3 15 -9 13 -12 11 -12 -6z"/>
<path d="M3776 5102 c-3 -5 1 -9 9 -9 8 0 12 4 9 9 -3 4 -7 8 -9 8 -2 0 -6 -4
-9 -8z"/>
<path d="M3136 5092 c-3 -5 1 -9 9 -9 8 0 12 4 9 9 -3 4 -7 8 -9 8 -2 0 -6 -4
-9 -8z"/>
<path d="M3205 5021 c-3 -5 -2 -12 3 -15 5 -3 9 1 9 9 0 17 -3 19 -12 6z"/>
<path d="M3145 4900 c10 -11 20 -20 23 -20 3 0 -3 9 -13 20 -10 11 -20 20 -23
20 -3 0 3 -9 13 -20z"/>
<path d="M3256 4832 c-3 -5 1 -9 9 -9 8 0 12 4 9 9 -3 4 -7 8 -9 8 -2 0 -6 -4
-9 -8z"/>
<path d="M3470 4641 c0 -6 4 -13 10 -16 6 -3 7 1 4 9 -7 18 -14 21 -14 7z"/>
<path d="M2460 4860 c-6 -11 -8 -20 -6 -20 3 0 10 9 16 20 6 11 8 20 6 20 -3
0 -10 -9 -16 -20z"/>
<path d="M2570 4767 c0 -17 30 -65 83 -131 31 -39 53 -74 51 -78 -3 -5 -2 -7
3 -6 11 3 53 -25 53 -35 0 -4 -5 -5 -12 -1 -7 4 -8 3 -4 -4 4 -6 13 -9 20 -6
8 3 20 -4 28 -15 8 -12 18 -18 21 -15 3 4 -10 26 -29 50 -21 25 -33 48 -28 55
4 7 3 9 -4 5 -13 -8 -103 94 -95 107 3 6 1 7 -5 3 -5 -3 -26 13 -46 36 -20 24
-36 39 -36 35z"/>
<path d="M2566 4693 c-6 -14 -5 -15 5 -6 7 7 10 15 7 18 -3 3 -9 -2 -12 -12z"/>
<path d="M3265 4590 c-3 -6 1 -7 9 -4 18 7 21 14 7 14 -6 0 -13 -4 -16 -10z"/>
<path d="M3023 4512 c21 -21 34 -42 30 -47 -5 -4 -3 -5 4 -2 6 4 20 -3 30 -15
28 -35 172 -166 230 -211 29 -21 50 -44 46 -50 -3 -6 -1 -7 6 -3 15 10 43 -13
34 -27 -3 -6 -1 -7 6 -3 6 4 25 -2 41 -14 45 -32 36 -8 -10 29 -23 18 -37 37
-34 43 4 6 3 8 -3 5 -12 -8 -83 50 -80 66 1 7 -4 11 -12 9 -19 -4 -43 19 -37
35 3 8 1 11 -4 8 -8 -5 -104 69 -150 115 -24 24 -120 100 -126 100 -4 0 9 -17
29 -38z"/>
<path d="M3180 4546 c0 -2 8 -10 18 -17 15 -13 16 -12 3 4 -13 16 -21 21 -21
13z"/>
<path d="M2950 4496 c7 -7 13 -7 20 0 6 6 3 10 -10 10 -13 0 -16 -4 -10 -10z"/>
<path d="M3480 4410 c0 -5 5 -10 11 -10 5 0 7 5 4 10 -3 6 -8 10 -11 10 -2 0
-4 -4 -4 -10z"/>
<path d="M3420 4206 c0 -2 8 -10 18 -17 15 -13 16 -12 3 4 -13 16 -21 21 -21
13z"/>
<path d="M2616 4272 c-3 -5 1 -9 9 -9 8 0 12 4 9 9 -3 4 -7 8 -9 8 -2 0 -6 -4
-9 -8z"/>
<path d="M2340 4251 c0 -6 4 -13 10 -16 6 -3 7 1 4 9 -7 18 -14 21 -14 7z"/>
<path d="M2638 4418 c8 -9 11 -21 8 -26 -3 -5 3 -17 14 -27 18 -16 20 -16 20
-2 0 10 -6 16 -12 15 -7 -2 -12 4 -10 13 1 9 -6 23 -15 30 -16 13 -17 12 -5
-3z"/>
<path d="M2875 4164 c122 -119 175 -163 190 -158 10 4 14 2 10 -8 -3 -8 1 -21
10 -28 14 -12 18 -11 25 0 6 10 0 22 -23 41 -22 19 -34 23 -39 15 -7 -10 -12
-2 -10 15 1 4 -14 21 -33 38 -19 17 -35 26 -35 20 0 -7 -8 -5 -19 5 -11 10
-17 23 -15 30 3 7 -3 19 -13 27 -16 13 -17 12 -4 -3 21 -27 3 -21 -43 14 l-41
31 40 -39z m146 -110 c13 -16 12 -16 -7 -6 -11 6 -27 19 -35 28 -13 16 -12 16
7 6 11 -6 27 -19 35 -28z m83 -75 c-6 -11 -24 -2 -24 11 0 5 7 7 15 4 8 -4 12
-10 9 -15z"/>
<path d="M3134 3951 c21 -23 26 -26 26 -11 0 5 -10 15 -22 21 -23 12 -23 12
-4 -10z"/>
<path d="M3193 3892 c-9 -6 -7 -13 10 -27 12 -10 54 -46 92 -79 110 -95 107
-93 100 -73 -4 9 -15 19 -26 22 -10 4 -19 11 -19 17 0 6 6 6 15 -2 9 -7 19 -9
23 -5 4 4 1 10 -6 13 -8 2 -36 24 -63 48 -27 24 -55 41 -63 38 -8 -3 -17 -1
-21 5 -3 6 -1 11 6 11 7 0 5 8 -6 20 -20 22 -24 23 -42 12z m32 -13 c11 -17
-1 -21 -15 -4 -8 9 -8 15 -2 15 6 0 14 -5 17 -11z m125 -117 c0 -7 -56 36 -75
59 -11 12 1 5 28 -16 26 -22 47 -41 47 -43z"/>
<path d="M2786 4277 c3 -10 9 -15 12 -12 3 3 0 11 -7 18 -10 9 -11 8 -5 -6z"/>
<path d="M3440 3667 c0 -2 27 -25 60 -51 33 -26 60 -44 60 -39 -1 12 -120 101
-120 90z"/>
<path d="M3596 3541 c27 -27 288 -221 297 -221 13 0 17 -3 -88 74 -49 37 -115
87 -146 111 -31 25 -60 45 -65 45 -4 0 -4 -4 2 -9z"/>
<path d="M1970 2433 c0 -10 13 -33 28 -51 27 -33 28 -33 45 -14 17 19 16 20
-18 51 -40 35 -55 39 -55 14z"/>
<path d="M1828 2412 c-15 -6 -14 -12 7 -62 20 -49 27 -55 55 -58 52 -5 55 10
14 72 -37 56 -44 61 -76 48z"/>
<path d="M1913 2402 c-9 -6 -6 -17 13 -45 20 -31 31 -37 59 -37 19 0 35 3 35
6 0 3 -14 24 -31 45 -30 38 -51 47 -76 31z"/>
<path d="M1762 2388 c-15 -8 -21 -17 -17 -27 4 -9 11 -35 18 -58 12 -45 25
-52 63 -30 l21 12 -25 58 c-26 61 -26 61 -60 45z"/>
<path d="M1691 2361 c-11 -7 -13 -23 -8 -71 4 -34 9 -66 13 -71 7 -12 64 21
64 37 0 26 -34 114 -44 114 -6 0 -17 -4 -25 -9z"/>
<path d="M1632 2294 c-19 -13 -22 -23 -20 -65 2 -27 6 -49 9 -49 4 0 17 9 30
19 19 15 23 27 21 57 -5 50 -13 57 -40 38z"/>
<path d="M1559 2273 c-16 -42 -8 -77 19 -81 20 -3 22 0 22 46 0 59 -24 79 -41
35z"/>
<path d="M1842 2173 c-40 -14 -62 -36 -49 -49 9 -10 128 38 124 50 -6 17 -27
16 -75 -1z"/>
<path d="M1802 5370 c100 -142 108 -153 135 -182 15 -15 23 -31 19 -35 -4 -4
-12 0 -17 9 -6 10 -27 38 -47 62 -20 25 -45 56 -55 71 -11 14 -21 24 -24 21
-3 -3 19 -36 48 -73 30 -37 57 -72 61 -78 15 -19 85 -100 117 -135 40 -42 13
-3 -43 64 -21 26 -37 49 -34 52 3 2 18 -12 34 -33 16 -21 59 -72 95 -114 37
-42 67 -83 66 -91 -2 -14 76 -108 89 -108 4 0 1 7 -6 15 -8 10 -9 15 -2 15 13
0 37 -40 34 -56 -1 -6 5 -17 13 -24 18 -15 20 0 3 20 -7 8 4 -1 25 -20 20 -19
36 -39 33 -45 -5 -14 12 -45 26 -45 6 0 3 9 -7 20 -10 11 -13 20 -8 20 12 0
27 -29 24 -47 -1 -7 3 -13 9 -13 6 0 8 5 5 10 -3 6 -2 10 3 10 6 0 13 -7 16
-16 3 -8 10 -13 15 -10 5 3 -12 27 -37 52 -26 25 -47 50 -47 55 0 5 -4 10 -10
12 -9 2 -34 29 -150 161 -27 31 -49 62 -47 67 1 6 -1 8 -6 5 -13 -8 -74 72
-66 86 4 6 3 8 -4 4 -14 -8 -104 102 -95 117 3 7 3 9 -2 5 -14 -13 -150 175
-139 193 4 7 3 9 -3 6 -6 -4 -20 9 -32 28 -11 19 -27 35 -36 35 -11 0 3 -28
47 -90z m425 -536 c-2 -3 -19 14 -37 38 l-33 43 38 -38 c20 -21 35 -40 32 -43z"/>
<path d="M1850 5361 c0 -6 4 -13 10 -16 6 -3 7 1 4 9 -7 18 -14 21 -14 7z"/>
<path d="M2466 4558 c3 -5 12 -7 19 -4 7 2 18 -1 24 -7 9 -9 11 -8 6 4 -3 9
-17 17 -30 17 -14 0 -22 -5 -19 -10z"/>
<path d="M2581 4467 c-9 -11 -8 -17 4 -27 10 -9 15 -9 15 -1 0 6 -6 11 -12 11
-9 0 -8 3 2 10 8 5 12 12 9 15 -4 3 -11 -1 -18 -8z"/>
<path d="M1165 981 c-40 -18 -114 -90 -116 -114 -2 -23 3 -42 14 -49 20 -13
75 -9 114 7 19 8 37 15 39 15 2 0 1 -7 -2 -15 -11 -28 21 -15 49 20 15 19 32
35 38 35 6 0 1 -12 -11 -27 -28 -36 -12 -52 36 -34 26 9 39 10 47 2 14 -14 52
-14 78 -1 10 6 19 7 19 2 0 -11 230 -12 252 -1 9 5 19 5 22 1 9 -14 203 -12
222 3 16 11 15 15 -11 48 -24 29 -32 34 -47 26 -18 -10 -18 -11 6 -30 34 -27
33 -39 -4 -39 -22 0 -28 4 -24 15 5 13 2 13 -30 0 -19 -8 -46 -15 -58 -14 -18
0 -13 5 20 19 67 30 50 69 -22 49 -19 -5 -42 -19 -50 -30 -14 -20 -14 -20 -37
10 -19 26 -25 28 -42 19 -20 -10 -20 -11 6 -30 35 -26 34 -38 -4 -38 -27 0
-30 2 -19 15 16 19 7 19 -31 -1 -36 -18 -48 -11 -31 16 15 25 15 40 0 40 -7 0
-23 -16 -36 -35 -12 -19 -29 -35 -37 -35 -19 0 -19 10 1 38 29 42 3 44 -35 3
-53 -58 -96 -56 -51 2 27 34 7 46 -23 13 -23 -25 -75 -51 -84 -42 -3 3 4 11
16 18 37 23 25 37 -31 36 -34 -1 -63 -8 -80 -20 -35 -24 -109 -50 -125 -44
-36 14 15 95 81 131 41 22 57 14 31 -15 -18 -19 -17 -20 3 -20 28 0 55 39 40
57 -14 18 -45 16 -93 -6z m651 -106 c-11 -8 -25 -15 -30 -15 -6 0 -2 7 8 15
11 8 25 15 30 15 6 0 2 -7 -8 -15z"/>
<path d="M2623 978 c-11 -13 -37 -49 -58 -80 -21 -32 -40 -58 -42 -58 -2 0
-13 5 -25 11 -25 13 -68 4 -68 -16 0 -7 8 -16 18 -19 29 -9 265 -4 285 6 11 5
17 5 17 -2 0 -13 56 -13 81 1 13 7 25 7 32 1 19 -15 159 -13 184 4 30 19 64
19 57 -1 -4 -8 -1 -15 4 -15 11 0 24 12 54 49 10 11 23 21 30 21 6 0 1 -11
-12 -25 -18 -20 -21 -28 -12 -37 10 -10 19 -10 45 0 20 8 33 9 35 2 5 -14 32
-12 65 4 25 14 26 13 18 -2 -5 -10 -19 -26 -30 -36 -12 -11 -21 -25 -21 -33 0
-25 36 -13 54 18 16 28 37 40 99 62 10 4 16 11 12 17 -4 6 -15 6 -32 -1 -34
-13 -38 -6 -18 25 23 35 5 34 -50 -4 -55 -38 -62 -38 -35 0 21 30 21 30 1 30
-11 0 -22 -8 -26 -19 -3 -10 -24 -25 -47 -34 l-42 -17 27 28 c15 16 27 31 27
34 0 3 -27 6 -60 6 -42 0 -60 -4 -60 -13 0 -12 -21 -25 -41 -25 -5 0 -9 9 -9
20 0 38 -73 28 -122 -16 -37 -33 -68 -44 -68 -24 0 6 17 21 37 33 27 15 33 23
21 25 -9 2 -26 -2 -37 -8 -14 -7 -21 -7 -21 0 0 5 -9 10 -20 10 -14 0 -20 -7
-20 -23 0 -22 -32 -47 -60 -47 -15 0 -12 21 6 41 9 10 13 23 9 29 -4 7 -21 -4
-44 -29 -53 -57 -96 -56 -51 2 17 21 18 26 5 31 -10 3 -23 -6 -37 -28 -14 -22
-34 -37 -52 -40 -68 -14 -68 -10 -11 70 30 42 55 80 55 85 0 17 -26 9 -47 -13z
m427 -107 c0 -15 -30 -41 -46 -41 -14 0 -20 31 -7 43 10 10 53 8 53 -2z"/>
<path d="M4155 985 c-22 -8 -41 -15 -43 -15 -2 0 -2 -11 0 -25 2 -20 -4 -29
-32 -43 -43 -21 -51 -53 -18 -76 27 -19 167 -23 186 -4 8 8 15 8 24 1 19 -15
158 -13 190 3 35 18 58 18 58 -1 0 -17 41 -20 70 -5 11 6 21 6 24 1 3 -5 41
-9 83 -9 77 0 153 20 153 40 0 6 -8 7 -17 3 -53 -21 -75 -26 -89 -21 -28 11
13 49 44 41 19 -5 23 -2 20 12 -6 28 -45 18 -89 -22 -53 -47 -89 -48 -54 -1
23 30 18 36 -26 36 l-41 0 16 25 c20 30 20 35 2 35 -8 0 -24 -13 -36 -30 -12
-16 -28 -30 -37 -30 -9 0 -13 -6 -10 -14 3 -8 -1 -17 -9 -20 -25 -10 -34 -7
-28 9 4 10 -3 18 -20 25 -34 12 -73 -2 -108 -41 -28 -30 -58 -39 -58 -16 0 7
14 21 32 32 35 20 23 34 -13 14 -17 -9 -24 -9 -27 0 -6 19 -30 12 -34 -11 -6
-42 -158 -64 -182 -26 -17 27 6 41 74 46 33 2 60 8 60 13 0 5 -9 9 -19 9 -59
0 -68 34 -13 49 51 15 59 14 79 -8 13 -14 23 -17 33 -10 13 8 11 13 -9 29 -28
24 -79 25 -136 5z m305 -120 c0 -14 -29 -35 -49 -35 -15 0 -14 23 1 38 17 17
48 15 48 -3z m174 4 c-7 -12 -74 -42 -80 -36 -2 2 3 13 12 25 16 23 82 33 68
11z"/>
<path d="M3660 930 c-12 -17 -30 -30 -42 -30 -15 0 -18 -3 -10 -13 7 -8 7 -18
2 -27 -18 -29 -11 -50 16 -50 14 0 34 5 44 10 13 7 21 7 25 0 9 -15 59 -12
102 6 71 30 86 39 91 53 4 11 -1 10 -19 -2 -29 -21 -50 -22 -43 -3 8 22 -16
30 -83 28 -63 -3 -76 5 -48 28 19 16 19 30 1 30 -8 0 -24 -13 -36 -30z m44
-64 c-5 -14 -63 -40 -71 -32 -3 2 2 13 9 25 15 25 71 31 62 7z m86 -1 c0 -14
-29 -35 -49 -35 -15 0 -14 23 1 38 17 17 48 15 48 -3z"/>
<path d="M5245 949 c-22 -5 -44 -14 -49 -19 -6 -6 4 -6 25 0 18 6 61 10 94 10
82 0 123 -22 155 -85 22 -43 25 -62 25 -150 0 -92 -2 -105 -32 -165 -51 -105
-150 -207 -176 -181 -8 8 -2 19 26 42 49 40 67 77 67 137 0 62 -29 107 -89
139 -40 21 -57 23 -183 23 l-138 0 0 -270 0 -270 205 0 c172 0 205 2 205 14 0
8 -4 17 -9 20 -5 3 -12 17 -15 32 -6 21 2 35 45 82 123 134 164 228 164 377 0
87 -4 107 -27 157 -38 81 -87 112 -182 115 -39 1 -89 -2 -111 -8z m-26 -381
c22 -38 5 -77 -44 -105 -22 -13 -43 -23 -47 -23 -5 0 -8 36 -8 81 l0 80 42 -3
c34 -2 45 -8 57 -30z m-54 -279 c7 -22 -7 -39 -32 -39 -16 0 -17 32 -1 48 17
17 26 15 33 -9z"/>
<path d="M1595 931 c-3 -5 -1 -12 4 -15 13 -8 42 4 35 15 -7 12 -31 12 -39 0z"/>
<path d="M2123 928 c2 -7 10 -13 17 -13 7 0 15 6 18 13 2 7 -5 12 -18 12 -13
0 -20 -5 -17 -12z"/>
<path d="M4673 928 c2 -7 10 -13 17 -13 7 0 15 6 18 13 2 7 -5 12 -18 12 -13
0 -20 -5 -17 -12z"/>
<path d="M5070 914 c-6 -14 -10 -29 -10 -34 0 -5 -13 -18 -30 -30 -43 -30 -37
-43 11 -24 30 13 46 14 63 6 31 -14 44 -3 42 35 -1 21 -10 38 -28 52 -33 27
-36 26 -48 -5z"/>
<path d="M2252 899 c-13 -5 -28 -6 -33 -3 -5 3 -28 -10 -49 -30 -54 -48 -91
-49 -55 -2 19 25 19 36 1 36 -18 0 -60 -66 -51 -80 3 -5 29 -9 57 -8 42 2 56
8 83 35 18 18 41 33 50 33 14 0 14 -3 -4 -26 -23 -29 -20 -44 9 -44 33 0 100
31 100 46 0 12 -3 12 -22 0 -13 -8 -34 -17 -47 -21 l-23 -7 23 32 c20 26 21
32 9 40 -18 11 -18 11 -48 -1z"/>
<path d="M3963 709 c-59 -11 -115 -42 -135 -77 -15 -25 -18 -56 -18 -199 0
-196 6 -215 86 -254 103 -49 252 -19 296 61 17 31 18 53 16 207 -3 167 -4 172
-28 198 -49 53 -135 78 -217 64z m68 -109 c18 -10 19 -23 19 -170 l0 -160 -24
-6 c-13 -3 -34 -1 -45 6 -20 10 -21 19 -21 158 0 81 4 152 8 158 6 9 23 19 40
23 2 1 12 -4 23 -9z"/>
<path d="M312 689 c-63 -31 -82 -64 -82 -142 0 -57 3 -67 27 -92 37 -36 72
-53 124 -60 93 -13 89 -10 89 -70 0 -51 -2 -55 -27 -61 -39 -10 -57 7 -63 58
l-5 46 -72 -42 c-48 -27 -73 -47 -73 -59 0 -90 201 -145 317 -86 65 33 86 74
80 155 -2 33 -10 70 -18 81 -20 33 -82 63 -141 70 -77 8 -88 17 -88 64 0 32 5
41 24 50 37 17 66 -3 66 -46 0 -19 2 -35 5 -35 21 0 145 78 145 91 0 21 -48
65 -92 83 -56 24 -163 21 -216 -5z"/>
<path d="M1455 691 c-23 -10 -53 -33 -68 -50 l-27 -33 0 -224 0 -224 75 0 74
0 3 67 3 68 43 23 42 23 0 -90 0 -91 80 0 80 0 0 219 c0 210 -1 219 -23 252
-49 74 -188 103 -282 60z m126 -91 c15 -9 19 -22 19 -65 0 -54 -1 -55 -40 -75
-21 -11 -42 -20 -45 -20 -3 0 -5 31 -5 69 0 61 3 72 22 85 27 19 24 19 49 6z"/>
<path d="M2024 685 c-79 -39 -84 -55 -84 -252 0 -147 2 -172 19 -199 46 -76
200 -103 297 -53 69 36 86 73 82 188 l-3 91 -75 -43 -75 -43 -3 -52 c-3 -45
-6 -53 -27 -58 -13 -3 -33 -1 -44 6 -20 10 -21 19 -21 158 0 81 4 152 8 158
12 18 42 24 63 14 16 -9 19 -22 19 -75 0 -36 2 -65 5 -65 3 0 39 19 81 42 l76
43 -5 38 c-15 109 -187 165 -313 102z"/>
<path d="M4390 488 c0 -258 3 -268 86 -309 98 -47 250 -19 295 55 18 28 19 49
17 251 l-3 220 -75 0 -75 0 -3 -217 -2 -218 -24 -6 c-13 -3 -34 -1 -45 6 -20
10 -21 18 -21 225 l0 215 -75 0 -75 0 0 -222z"/>
<path d="M810 430 l0 -270 75 0 75 0 0 68 0 67 83 44 c107 58 142 85 161 126
39 81 9 164 -74 208 -49 26 -60 27 -186 27 l-134 0 0 -270z m225 164 c22 -9
37 -49 29 -80 -5 -21 -75 -74 -97 -74 -4 0 -7 36 -7 80 l0 80 29 0 c16 0 37
-3 46 -6z"/>
<path d="M2520 430 l0 -270 205 0 c113 0 205 3 205 8 0 4 -10 26 -22 49 l-23
42 -105 3 -105 3 -3 63 -3 62 66 0 65 0 0 50 0 50 -65 0 -65 0 0 55 0 55 108
0 108 0 22 45 c12 25 22 48 22 50 0 3 -92 5 -205 5 l-205 0 0 -270z"/>
<path d="M3278 650 c26 -48 28 -50 69 -50 l43 0 0 -220 0 -220 80 0 80 0 0
220 0 220 43 0 c41 0 44 2 65 45 12 25 22 48 22 50 0 3 -97 5 -214 5 l-215 0
27 -50z"/>
</g>
</svg>
